<?xml version="1.0" standalone="no"?>
<!DOCTYPE svg PUBLIC "-//W3C//DTD SVG 20010904//EN"
 "http://www.w3.org/TR/2001/REC-SVG-20010904/DTD/svg10.dtd">
<svg version="1.0" xmlns="http://www.w3.org/2000/svg"
 width="400.000000pt" height="400.000000pt" viewBox="0 0 400.000000 400.000000"
 preserveAspectRatio="xMidYMid meet">
<metadata>
Created by potrace 1.11, written by Peter Selinger 2001-2013
</metadata>
<g transform="translate(0.000000,400.000000) scale(0.100000,-0.100000)"
fill="#000000" stroke="none">
<path d="M151 3896 c-53 -29 -50 76 -51 -1885 0 -1349 3 -1833 11 -1856 8 -22
22 -36 44 -44 23 -8 503 -11 1836 -11 1515 0 1810 3 1844 14 l40 14 2 1876 c2
1032 0 1875 -5 1874 -4 -1 -21 6 -39 15 -30 16 -155 17 -1845 17 -1486 -1
-1817 -3 -1837 -14z"/>
</g>
</svg>
