<svg id="Layer_1" data-name="Layer 1" xmlns="http://www.w3.org/2000/svg" viewBox="0 0 835.86 201.75"><defs><style>.cls-1{fill:#121212;}.cls-2{fill:#231f20;}</style></defs><title>RB logo thick line</title><path class="cls-1" d="M168.22,62.08c.13-1.41-.25-39.71-.25-39.71h-8l.1,152.66L279.64,175V116c1.12.42,6.77,2.6,6.77,2.6V109.2S181.42,67.28,168.22,62.08Zm102.59,50.34c0,17.82,0,35.93,0,53.48H168.32V71.57l51,20.34Z"/><path class="cls-1" d="M23.93,115.8v9l4.13-1.64V175h8.86s0-38.51,0-55.47c27.1-11.22,115.69-48,116-48.17V61.8S24,115.81,23.93,115.8Z"/><path class="cls-2" d="M383.68,169.55A19.12,19.12,0,0,1,377,174.7a21.54,21.54,0,0,1-8.68,1.57q-6.72,0-10.6-2.84t-5-9.67l-2.09-11.57q-1.5-8.46-3.64-12.45c-1.43-2.66-3.81-4-7.12-4h-7.53v26.62a22.45,22.45,0,0,0,.64,6.37,4,4,0,0,0,2.37,2.66,19.39,19.39,0,0,0,5.67.93v2.32q-6.24-.35-17.48-.35-12.39,0-18.29.35v-2.32a19.56,19.56,0,0,0,5.61-.93,4,4,0,0,0,2.44-2.66,22.92,22.92,0,0,0,.63-6.37V105a23,23,0,0,0-.63-6.37,4,4,0,0,0-2.44-2.66,19.92,19.92,0,0,0-5.61-.93V92.68q5.91.34,17.6.34l12.85-.11c1.54-.08,3.32-.12,5.32-.12q16,0,24,5.21a16.76,16.76,0,0,1,8,14.94,20.21,20.21,0,0,1-6,14.47q-6,6.26-19.91,7.87,10.43.93,15.51,4.52t6.6,10.76l2.67,11.93A19.53,19.53,0,0,0,374,169a3.86,3.86,0,0,0,3.41,1.86,5.55,5.55,0,0,0,2.38-.7,10.7,10.7,0,0,0,2.26-2ZM334.88,95.8a4.5,4.5,0,0,0-2,2.9,24.86,24.86,0,0,0-.58,6.25v28.48h5q9.5,0,13-5t3.54-14.18q0-9.49-3.36-14.36t-11-4.86A9.76,9.76,0,0,0,334.88,95.8Z"/><path class="cls-2" d="M433.46,157.51l2.08.7A27.51,27.51,0,0,1,427.26,171a21.64,21.64,0,0,1-14.87,5.27q-12.28,0-19.51-7.82t-7.24-23.1q0-15.63,7.76-23.9T414,113.17q21.76,0,21.76,25.7H403.24c-.08,1.16-.12,3-.12,5.44a33,33,0,0,0,2.15,12.74,16.09,16.09,0,0,0,5.55,7.41,12.89,12.89,0,0,0,7.35,2.31Q427.67,166.77,433.46,157.51Zm-27-36.76q-2.71,5.16-3.41,15.92h18.18a44.32,44.32,0,0,0-1.8-15.11q-2-6-6.08-6T406.42,120.75Z"/><path class="cls-2" d="M497.6,117.68a12.68,12.68,0,0,1,2.78,5.68,43,43,0,0,1,.81,9.38v31.14c0,3.17.56,5.34,1.68,6.54s3,1.8,5.73,1.8v2.43q-11.58-.47-15.29-.47-3.46,0-15.05.47v-2.43q3.48,0,4.87-1.8c.92-1.2,1.39-3.37,1.39-6.54v-36c0-3.16-.53-5.55-1.57-7.18s-2.91-2.43-5.61-2.43a10.38,10.38,0,0,0-8.11,3.88,14.08,14.08,0,0,0-3.35,9.55v32.19c0,3.17.46,5.34,1.38,6.54s2.55,1.8,4.87,1.8v2.43q-10.67-.47-14.36-.47-3.47,0-16,.47v-2.43q4.17,0,5.79-1.8c1.08-1.2,1.62-3.37,1.62-6.54V127.41q0-5.32-1.62-7.76t-5.79-2.43v-2.43c2.47.23,4.87.35,7.18.35a72.85,72.85,0,0,0,16.91-1.62v10.42q5.21-10.77,19-10.77Q493.67,113.17,497.6,117.68Z"/><path class="cls-2" d="M536.38,114.79h13.67v2.32H536.38v46.77c0,2.31.41,4,1.22,4.92a4.77,4.77,0,0,0,3.88,1.45q5,0,7.87-6.95l2,1q-4.41,11.92-15.86,11.93-7.65,0-11.58-3.94a12.5,12.5,0,0,1-3.3-6.08,45.17,45.17,0,0,1-.87-10V117.11H510v-2.32h9.72V99.51a35.41,35.41,0,0,0,16.67-3.71Z"/><path class="cls-2" d="M618.12,138.52q7.07,5.8,7.07,13.67,0,10.76-8.46,16.61t-23.5,5.85q-3.36,0-5.67-.12c-5.1-.15-10.07-.23-14.94-.23q-11.93,0-17.83.35v-2.32a19.71,19.71,0,0,0,5.62-.93,4,4,0,0,0,2.43-2.66,22.83,22.83,0,0,0,.64-6.37V105a22.93,22.93,0,0,0-.64-6.37,4,4,0,0,0-2.43-2.66,20.07,20.07,0,0,0-5.62-.93V92.68q5.91.34,17.6.34l12.85-.11c1.54-.08,3.32-.12,5.33-.12q13.89,0,21.24,5t7.36,13.2q0,6.72-5.85,12.5T596,131.35v.23Q611.05,132.73,618.12,138.52ZM584.49,95.8a4.5,4.5,0,0,0-2,2.9,24.86,24.86,0,0,0-.58,6.25v26.16h5q7.53,0,10.54-5.15t3-13.72q0-8.68-2.72-13T589.06,95A9.76,9.76,0,0,0,584.49,95.8ZM606,151.72q0-9.14-4.63-13.89t-14.59-4.75h-4.87v29.29a23.46,23.46,0,0,0,.58,6.14,4,4,0,0,0,2.26,2.72,13.15,13.15,0,0,0,5.15.75Q606,172,606,151.72Z"/><path class="cls-2" d="M635.66,171.64A14,14,0,0,1,632,161.56a13.37,13.37,0,0,1,2.72-8.62,18.54,18.54,0,0,1,6.6-5.27,98.39,98.39,0,0,1,9.89-3.94,50.49,50.49,0,0,0,9.32-4,5.53,5.53,0,0,0,3-4.92v-9c0-3.24-.76-5.77-2.26-7.58s-3.84-2.73-7-2.73q-5.55,0-8.45,2.78a10.81,10.81,0,0,1,5,3.48,8.58,8.58,0,0,1,1.79,5.44,7.84,7.84,0,0,1-2.66,6.25,9.52,9.52,0,0,1-6.48,2.32,7.78,7.78,0,0,1-6.25-2.55,10.39,10.39,0,0,1-.64-11.87,15.49,15.49,0,0,1,4.8-4.22,26.8,26.8,0,0,1,7.7-2.9,45.41,45.41,0,0,1,10-1,37.1,37.1,0,0,1,9.84,1.16,15.42,15.42,0,0,1,6.94,3.93,12.81,12.81,0,0,1,3.42,6.25,46.19,46.19,0,0,1,.87,10.08v31.49a10.48,10.48,0,0,0,.52,3.94,2,2,0,0,0,2,1.15,7.17,7.17,0,0,0,4.16-2l1.16,2a19.37,19.37,0,0,1-12.73,4.29q-6.37,0-8.92-2.55a9.57,9.57,0,0,1-2.66-6.83q-5.79,9.38-17,9.38Q639.31,175.46,635.66,171.64Zm27.85-8.34V139.57q-1.39,2.31-5.91,5.09a28,28,0,0,0-6.83,5.79q-2.31,2.9-2.31,8.34,0,4.74,2,7a6.6,6.6,0,0,0,5.21,2.26Q660.15,168.05,663.51,163.3Z"/><path class="cls-2" d="M722.43,114.27a19.6,19.6,0,0,1,5.68,2.49,3.74,3.74,0,0,0,2.08.81,2.17,2.17,0,0,0,1.8-1.1,7,7,0,0,0,1-3.19h2.43q-.46,5.91-.46,20.38h-2.43a29.3,29.3,0,0,0-4.58-12.79,11.64,11.64,0,0,0-10.24-5.15,8.39,8.39,0,0,0-5.73,2,6.85,6.85,0,0,0-2.26,5.45,9.57,9.57,0,0,0,2.66,6.77,59,59,0,0,0,8.34,6.89l3.36,2.43a60.17,60.17,0,0,1,10.42,9.49,16.12,16.12,0,0,1,3.35,10.42,14.62,14.62,0,0,1-3,9,18.64,18.64,0,0,1-7.93,6,28.19,28.19,0,0,1-11,2.09,22.68,22.68,0,0,1-10.88-2.43,56.47,56.47,0,0,0-5.33-2.44,1.77,1.77,0,0,0-2,.76,8,8,0,0,0-1.34,3.3H694q.46-6.6.47-23.16h2.43q2.31,21.3,15.63,21.3a8.52,8.52,0,0,0,5.73-2q2.37-2,2.37-6.2a11.43,11.43,0,0,0-1.45-5.78,17.78,17.78,0,0,0-3.64-4.52q-2.21-2-6.6-5.44-5.21-4.17-7.93-6.72a23.59,23.59,0,0,1-4.63-6,15.73,15.73,0,0,1-1.91-7.75,13.78,13.78,0,0,1,5.79-11.7,23.08,23.08,0,0,1,14.12-4.28A28.43,28.43,0,0,1,722.43,114.27Z"/><path class="cls-2" d="M794.22,157.51l2.08.7A27.59,27.59,0,0,1,788,171a21.66,21.66,0,0,1-14.87,5.27q-12.28,0-19.51-7.82t-7.24-23.1q0-15.63,7.76-23.9t20.61-8.28q21.76,0,21.76,25.7H764c-.08,1.16-.12,3-.12,5.44A33,33,0,0,0,766,157.05a16.17,16.17,0,0,0,5.56,7.41,12.89,12.89,0,0,0,7.35,2.31Q788.43,166.77,794.22,157.51Zm-27-36.76q-2.71,5.16-3.41,15.92h18.17a44.09,44.09,0,0,0-1.79-15.11q-2-6-6.08-6T767.18,120.75Z"/></svg>