<?xml version="1.0" encoding="utf-8"?>
<!-- Generator: Adobe Illustrator 21.0.0, SVG Export Plug-In . SVG Version: 6.00 Build 0)  -->
<svg version="1.1" id="Слой_1" xmlns="http://www.w3.org/2000/svg" xmlns:xlink="http://www.w3.org/1999/xlink" x="0px" y="0px"
	 viewBox="0 0 560 595" style="enable-background:new 0 0 560 595;" xml:space="preserve">
<style type="text/css">
	.st0{clip-path:url(#SVGID_2_);}
	.st1{fill:#F5F5F5;}
	.st2{fill:#EBEBEB;}
	.st3{fill:#FFA8A7;}
	.st4{fill:#37474F;}
	.st5{fill:#FFFFFF;}
	.st6{fill:#263238;}
	.st7{fill:#F28F8F;}
	.st8{fill:#336FE8;}
	.st9{fill:#E0E0E0;}
	.st10{opacity:0.12;}
	.st11{fill:#27DEBF;}
	.st12{fill:#455A64;}
	.st13{fill:#FAFAFA;}
	.st14{fill:#38AEFF;}
	.st15{fill:none;stroke:#E6E6E6;stroke-miterlimit:10;}
</style>
<g>
	<defs>
		<rect id="SVGID_1_" x="0.5" y="7" width="558.5" height="588"/>
	</defs>
	<clipPath id="SVGID_2_">
		<use xlink:href="#SVGID_1_"  style="overflow:visible;"/>
	</clipPath>
	<g class="st0">
		<path class="st1" d="M100,540.8c102.2,56.2,268,56.2,370.2,0c102.2-56.2,102.2-147.4,0-203.7c-102.2-56.2-268-56.2-370.2,0
			C-2.2,393.4-2.2,484.6,100,540.8z"/>
		<path class="st2" d="M396.8,450c17.1,8.1,44.8,8.1,61.9,0c17.1-8.1,17.1-21.2,0-29.2c-17.1-8.1-44.8-8.1-61.9,0
			C379.7,428.9,379.7,442,396.8,450z"/>
		<path class="st3" d="M455.7,422.5h-7.9V434h7.9V422.5z"/>
		<path class="st3" d="M427.9,408.2l-7.9,0.3l0.4,11.5l7.9-0.3L427.9,408.2z"/>
		<path class="st4" d="M455.2,310c0,7.6,1,56.4,1,56.4c0.2,2.2,2.2,6.2,1.8,14.5c-0.6,11.3-1.6,42.8-1.6,42.8s-3.7,3.7-8.9,0
			c0,0-7.2-42.8-8.6-54c-1.2-9.8-3.3-36.4-3.3-36.4l-7.3,31.4c0,0,1.3,7.4,1.6,12.6c0.3,5.2-1.3,35.2-1.3,35.2
			c-1.3,0.8-2.7,1.3-4.3,1.3c-1.5,0.1-3-0.3-4.3-1c0,0-6.4-43.9-7.2-48.6c-0.8-4.7,5.6-54.2,5.6-54.2L455.2,310z"/>
		<path class="st5" d="M443.3,257.7l0.1,0c3.4,0.9,6.4,2.8,8.5,5.6c2.1,2.8,3.3,6.2,3.3,9.7v37c-5.5,6-24.9,8.8-37,0v-38.5
			c0-6.2,3.4-13.6,12.9-14.1L443.3,257.7z"/>
		<path class="st6" d="M446,226.2c0.6-0.1,1.3,0,1.9,0.2c0.6,0.2,1.2,0.6,1.6,1c1.5,1.5,1.2,4.4,0,10.9l-4.6,0.5L446,226.2z"/>
		<path class="st6" d="M419,224.3c-1,0-2-0.2-2.9-0.6c-1.4-0.8-1.8,0.8-1,2.2c0.5,1,1.3,1.9,2.2,2.5c0.9,0.6,2,1,3.2,1.1
			c0-0.2,1.3-3.6,1.3-3.6L419,224.3z"/>
		<path class="st3" d="M443.8,238.9c0.7,0.4,1.7-0.9,2.5-1.8c0.3-0.4,0.8-0.7,1.2-0.8c0.5-0.2,1-0.2,1.5-0.1c0.5,0.1,1,0.3,1.4,0.6
			c0.4,0.3,0.7,0.7,0.9,1.2c1.4,3-1.8,6.9-3.7,8.2c-0.5,0.5-1.2,0.7-1.9,0.8c-0.7,0.1-1.4-0.1-2-0.5l-0.5,11.3c0,0-2.3,4.2-8.9,5.2
			c-3.7,0.6-5.4-2.9-3.3-5.6l0-4.1c-1.7,0.4-3.4,0.4-5.1,0.3c-0.9-0.2-2.9-2.7-4.3-5.5c-1.5-3.1-4-8.7-1.8-18.2
			c2.4-10.1,13.3-10.5,19.8-6.4C446.3,227.5,443.8,238.9,443.8,238.9z"/>
		<path class="st6" d="M443.8,240c0.3,0,1.7-2.2,2.5-2.9c1.2-1.1-0.3-10.8-0.3-10.8s1.2-3.7-1.1-6.2c-2.3-2.5-6.9-2-10.2-2.2
			c-4.1,0-8.1-0.8-11.9-2.4c-4.7-2-5.1-2.3-5.7-0.2c-0.6,2.1-0.8,6.8,2,10l2.3,0.9c0,0,1.3,1.1,5.7,1.7c4.1,0.3,8.1,0.2,12.2-0.2
			c1.3-0.2,1.5,1.1,2.2,4.4C442.1,235,442.6,240,443.8,240z"/>
		<path class="st6" d="M446,227l4.2-2.2c-0.1-0.3-0.3-0.5-0.6-0.7c-0.2-0.2-0.5-0.4-0.8-0.5c-0.3-0.1-0.6-0.1-0.9-0.1
			c-0.3,0-0.6,0.1-0.9,0.3c-0.6,0.3-1,0.8-1.2,1.4C445.6,225.7,445.7,226.4,446,227z"/>
		<path class="st7" d="M431.1,253.3c2.8-0.5,5.6-1.3,8.3-2.4c1.3-0.7,2.3-1.7,3-2.9c-0.3,1.3-0.9,2.4-1.7,3.5
			c-1.6,2-9.6,3.5-9.6,3.5L431.1,253.3z"/>
		<path class="st6" d="M432.6,237.3c0,0.2,0.1,0.5,0.2,0.7c0.1,0.2,0.3,0.3,0.6,0.4c0.2,0.1,0.5,0.1,0.7,0c0.2-0.1,0.5-0.2,0.6-0.3
			c0.2-0.2,0.3-0.4,0.3-0.6s0-0.5-0.1-0.7c-0.1-0.2-0.3-0.4-0.5-0.5s-0.4-0.2-0.7-0.2c-0.2,0-0.3,0-0.5,0.1
			c-0.2,0.1-0.3,0.2-0.4,0.3c-0.1,0.1-0.2,0.3-0.3,0.4C432.6,237,432.6,237.1,432.6,237.3z"/>
		<path class="st6" d="M433.9,232.6l2.6,1.5c0.2-0.4,0.2-0.8,0.1-1.2c-0.1-0.4-0.4-0.7-0.7-0.9c-0.2-0.1-0.4-0.2-0.6-0.2
			c-0.2,0-0.4,0-0.6,0.1c-0.2,0.1-0.4,0.2-0.5,0.3C434.1,232.3,434,232.5,433.9,232.6z"/>
		<path class="st7" d="M432.7,245.7l-2.8,1.1c0.1,0.2,0.2,0.4,0.3,0.5c0.1,0.1,0.3,0.3,0.5,0.4c0.2,0.1,0.4,0.1,0.6,0.1
			c0.2,0,0.4,0,0.6-0.1c0.4-0.2,0.7-0.4,0.9-0.8C432.8,246.5,432.8,246.1,432.7,245.7z"/>
		<path class="st6" d="M421.6,233.7l2.4-1.9c-0.1-0.2-0.3-0.3-0.4-0.4c-0.2-0.1-0.4-0.2-0.6-0.2c-0.2,0-0.4,0-0.6,0
			c-0.2,0-0.4,0.1-0.5,0.3c-0.3,0.3-0.5,0.6-0.6,1C421.2,232.9,421.3,233.3,421.6,233.7z"/>
		<path class="st6" d="M422.3,237c0,0.2,0.1,0.5,0.2,0.7c0.1,0.2,0.3,0.3,0.6,0.4c0.2,0.1,0.5,0.1,0.7,0c0.2-0.1,0.5-0.2,0.6-0.3
			c0.2-0.2,0.3-0.4,0.3-0.6c0-0.2,0-0.5-0.1-0.7c-0.1-0.2-0.3-0.4-0.5-0.5c-0.2-0.1-0.4-0.2-0.7-0.2c-0.2,0-0.3,0-0.5,0.1
			c-0.2,0.1-0.3,0.2-0.4,0.3c-0.1,0.1-0.2,0.3-0.3,0.4C422.3,236.6,422.3,236.8,422.3,237z"/>
		<path class="st7" d="M428.6,235.8l-0.4,7.4l-3.9-1.3L428.6,235.8z"/>
		<path class="st6" d="M447.8,430.1v-1.1c-0.8,0.3-2.5,7-5.7,9.9c-2.5,2.3-5.9,4.9-6.8,7.4c-0.9,2.6,4.7,4.1,7.1,3.7
			c2.7-0.5,7.4-2.4,8.6-4.2c1.2-1.8,1.7-4.4,2.7-5.7c1-1.3,3.2-2.7,3.7-4.2c0.2-1.4,0-2.8-0.5-4.2c-0.4-1.4-0.8-2.9-1.2-2.8
			c0,0.2,0,0.9,0,0.9c-1.1,0.9-2.5,1.4-4,1.3C450.6,431.2,447.8,430.9,447.8,430.1z"/>
		<path class="st6" d="M420.3,417.5c-0.4,0-0.7,0.6-1.7,1.6c-1.4,1.4-2.9,2.5-4.7,3.3c-3,1.5-8.7,3.8-11.3,4.9
			c-1.6,0.7-1.5,2.7,0.1,3.8c1.7,1.1,5.7,1.9,10.6,0.8c2.7-0.6,6.1-3,8.3-2.9c2.2,0.1,6.3,0.1,7.9-1c1.6-1.1,1-3.5,0.5-5.5
			c-0.5-2.2-1.2-5.6-2-5.5l0,0.7c-1,1.4-5.8,2-7.9,1L420.3,417.5z"/>
		<path class="st6" d="M435.5,333.3c-3.2-1.4-6.2-3.1-9.1-5c1.9,2.4,4.3,4.4,7.1,5.9l-3.8,24.5L435.5,333.3z"/>
		<path class="st6" d="M431.1,257.4c-2.6,2.2-4.6,5.2-5.5,8.5c-1.2,5.1-1.4,61.8-1.4,61.8s-6-1.1-8.8-3.3v-51.9
			c0-7.1,1.7-14.8,15.7-16L431.1,257.4z"/>
		<path class="st6" d="M443.3,257.5c0,0-6.8,4.3-6.9,23.9c-0.1,17-0.4,46.8-0.4,46.8s11.8,2.4,20.2-2.6c0,0-1-42.6-1.1-48.9
			c-0.2-7.3,2-13.5-2.2-15.6C449.9,259.7,446.6,258.5,443.3,257.5z"/>
		<path class="st6" d="M449.1,259.5c2.5,0.9,4.9,2.1,7.2,3.6c1.8,1.4,12.2,31.2,12.6,33.9c0.4,2.7-1.1,8.7-1.1,8.7
			c-1.4,0.9-3,1.4-4.6,1.5c-1.6,0.1-3.3-0.2-4.8-0.9l-1.7-6.1l-8.2-21.4C448.4,278.7,444.3,267.1,449.1,259.5z"/>
		<path class="st4" d="M445.3,268.3l-3.7,4.6l1.8,5.2l-4.8,12.4l5.8-12.4l-2-4.9L445.3,268.3z"/>
		<path class="st4" d="M420.9,265.8l0.8,4.7l-3.2,4.2l4.4,13.9l-3.4-13.8l2.9-3.9L420.9,265.8z"/>
		<path class="st6" d="M404.6,282.6l-4.5,10.2l9.8,7.9l7.3-12.9L404.6,282.6z"/>
		<path class="st6" d="M427.2,259c-5.7,0.1-11.9,2.1-14.1,6.5c-2.2,4.4-8.9,18.1-8.9,18.1s5,7.3,13,6.7L427.2,259z"/>
		<path class="st8" d="M406.7,294c-1.7-3-2.1-3.2-3.1-3.8c-1-0.7-7-1.6-9.5-1.8c-3-0.2-4,0.3-3.2,2.8c2.3,6.3,5,12.4,8.3,18.3
			c0.8,1,0.9,2,4.3,2.3c3.1,0.3,7,0.5,8.1,0.5c1.1,0.1,2.7,0.3,1.7-3c-1.3-3.8-2.8-7.4-4.5-11C407.5,295.5,406.7,294,406.7,294z"/>
		<path class="st3" d="M453.4,297.6c0,0-29,3.1-32.4,2c-3.4-1.1-8-4.5-10.4-5.9c-2.5-1.4-4.2-1.5-4.2-0.9s2.1,3.8,2.6,5.1
			c0.5,1.3-2.3,1.3-5.9,0.5c-3.6-0.8-5-2.9-6-1.7c-0.9,1.2,2,7.2,8,9.4c6,2.2,10.4,0.8,15.4,1c4.9,0.2,35.4,2.2,42.3,0
			c0.2-1.1,0.1-2.2-0.4-3.3c-0.4-1-1.1-1.9-2-2.6C458.3,299.6,455.9,298.4,453.4,297.6z"/>
		<path class="st6" d="M456.5,295.7c0,0-35.2,1.1-38.8,0.1c0,0,0.4,2.3,0.7,3.7c0.7,3.4,1.6,8.5,1.6,8.5s39.2,1.2,46.6-1
			c0.2-1.1,0.1-2.2-0.4-3.2c-0.5-1-1.2-1.9-2.2-2.5C461.7,299.7,459.2,296.6,456.5,295.7z"/>
		<path class="st9" d="M105.4,488.5l6,3.5c1.6,0.9,4.3,0.9,6,0l177.8-102.2c1.6-0.9,1.6-2.5,0-3.4l-6-3.5c-1.6-0.9-4.3-0.9-6,0
			L105.4,485C103.8,486,103.8,487.5,105.4,488.5z"/>
		<g class="st10">
			<path class="st11" d="M110,443.9c0.2-8.5-1.9-22.8-9.4-37c-8-15.2-18.5-25.4-27.4-22.3c-8.2,2.9-6.4,15.5,6,29.1
				c8.7,9.6,17.5,21.8,21.5,35.7l7,17.9L110,443.9z"/>
			<path class="st4" d="M110,443.9c0.2-8.5-1.9-22.8-9.4-37c-8-15.2-18.5-25.4-27.4-22.3c-8.2,2.9-6.4,15.5,6,29.1
				c8.7,9.6,17.5,21.8,21.5,35.7l7,17.9L110,443.9z"/>
			<path class="st5" d="M108.6,450.2c-0.2,0-0.4-0.2-0.5-0.5c-5.3-24.3-18.8-49.8-31.3-59.4c-0.2-0.2-0.3-0.6-0.1-0.8
				c0.2-0.3,0.5-0.3,0.7-0.2c12.7,9.7,26.4,35.6,31.8,60.1c0.1,0.3-0.1,0.7-0.4,0.7C108.7,450.2,108.6,450.2,108.6,450.2z"/>
			<path class="st12" d="M110,471.4c0,0-5.3,6-14.7,8.3c-9.4,2.3-13.9-2.5-13.9-2.5s3.2-10.3,8.5-13.5c0,0-9.1,2.7-16.1,8.7
				c0,0-5.8,0.5-8.7-9.3c0,0,3.1-6.2,14.5-10.2c0,0-7.1-1.5-17.1,2.1c-0.7,0.4-4.7-12.3-6-18.2c-1.3-5.9,0.8-6,4.9-7.5
				c4.1-1.5,18.1-3.2,20.8-0.9c2.7,2.4,4.5,11,4.5,11s2.2-5.1,1.4-9.5c0,0,4.1-1.9,8.8-0.4c4.7,1.5,4.6,4.1,4.8,7.9
				c0.2,4.1,0,6.8-0.8,11.4c0,0,3-3.3,2.5-14.8c0,0,6.6,5.6,9.4,10.6C115.6,449.7,115.7,463.3,110,471.4z"/>
			<path class="st5" d="M110.1,472c-0.2,0-0.4-0.1-0.5-0.3c-8.6-17.4-38.3-36.3-48.7-37.9c-0.3,0-0.5-0.3-0.5-0.7
				c0-0.3,0.3-0.6,0.6-0.5c10.5,1.6,40.7,20.8,49.5,38.5c0.1,0.3,0.1,0.7-0.2,0.8C110.2,472,110.1,472,110.1,472z"/>
		</g>
		<path class="st1" d="M113.2,151.2L268.9,46c0.7-0.5,1.9-0.5,2.7,0l1.5,1c0.7,0.5,1.3,1.7,1.3,2.7v278c0,1-0.6,2.2-1.3,2.7
			L117.4,435.5c-0.7,0.5-1.9,0.5-2.7,0l-1.5-1c-0.7-0.5-1.3-1.7-1.3-2.7v-278C111.9,152.9,112.5,151.7,113.2,151.2z"/>
		<path class="st13" d="M310.7,24.4c-0.2-0.7-0.8-0.9-1.6-0.5l-190,109.6c-0.5,0.3-0.9,0.7-1.2,1.2l-5.1-2.9c0.3-0.5,0.7-1,1.2-1.2
			L304,21c0.9-0.5,2.4-0.5,3.2,0l1.8,1.1C309.9,22.5,310.5,23.5,310.7,24.4z"/>
		<path class="st9" d="M118.7,427.1c-0.2,0.1-0.4,0.1-0.6,0.2c-0.1,0-0.2,0-0.3,0c-0.3,0-0.7,0-1,0c-0.2,0-0.4-0.1-0.6-0.2
			c-0.1,0-0.2-0.1-0.4-0.2l-1.8-1.1c-0.9-0.5-1.6-1.8-1.6-2.8V133.4c0-0.5,0.2-1.1,0.5-1.6l5.1,2.9c-0.3,0.5-0.5,1.1-0.5,1.6V426
			C117.5,426.9,118,427.3,118.7,427.1z"/>
		<path class="st13" d="M132.9,168.2l30.3-17.7v35.2l-30.3,17.7V168.2z"/>
		<path class="st12" d="M134.2,168.9v32.3l27.8-16.3v-32.3L134.2,168.9z M132.9,204.6c-0.2,0-0.4,0-0.6-0.2
			c-0.4-0.2-0.6-0.6-0.6-1.1v-35.2c0-0.4,0.2-0.8,0.6-1.1l30.3-17.7c0.4-0.2,0.9-0.2,1.3,0c0.4,0.2,0.6,0.6,0.6,1.1v35.2
			c0,0.4-0.2,0.9-0.6,1.1l-30.3,17.7C133.4,204.5,133.2,204.6,132.9,204.6z"/>
		<path class="st9" d="M177.3,151.9v1.6c0,0.9,0.6,1.2,1.4,0.8l68.1-39.3c0.8-0.4,1.4-1.5,1.4-2.4V111c0-0.9-0.6-1.2-1.4-0.8
			l-68.1,39.3C177.9,149.9,177.3,151,177.3,151.9z"/>
		<path class="st9" d="M177.3,161.6v1.6c0,0.9,0.6,1.2,1.4,0.8l68.1-39.3c0.8-0.4,1.4-1.5,1.4-2.4v-1.6c0-0.9-0.6-1.2-1.4-0.8
			l-68.1,39.3C177.9,159.7,177.3,160.7,177.3,161.6z"/>
		<path class="st9" d="M177.3,171.3v1.6c0,0.9,0.6,1.2,1.4,0.8l68.1-39.3c0.8-0.4,1.4-1.5,1.4-2.4v-1.6c0-0.9-0.6-1.2-1.4-0.8
			l-68.1,39.3C177.9,169.3,177.3,170.4,177.3,171.3z"/>
		<path class="st14" d="M148.6,186.1l-7-6.8l3-6.4l4,3.9l16.7-35.3l3,2.9L148.6,186.1z"/>
		<path class="st13" d="M132.9,232.7l30.3-17.7v35.2l-30.3,17.7V232.7z"/>
		<path class="st12" d="M134.2,233.4v32.3l27.8-16.3v-32.3L134.2,233.4z M132.9,269.2c-0.2,0-0.4-0.1-0.6-0.2
			c-0.4-0.2-0.6-0.6-0.6-1.1v-35.2c0-0.5,0.2-0.9,0.6-1.1l30.3-17.7c0.4-0.2,0.9-0.2,1.3,0c0.4,0.2,0.6,0.6,0.6,1.1v35.2
			c0,0.4-0.2,0.9-0.6,1.1L133.6,269C133.4,269.1,133.2,269.2,132.9,269.2z"/>
		<path class="st9" d="M178.5,216.9v1.6c0,0.9,0.6,1.2,1.4,0.8l69.2-39.9c0.8-0.4,1.4-1.5,1.4-2.4v-1.6c0-0.9-0.6-1.2-1.4-0.8
			l-69.2,39.9C179.1,215,178.5,216,178.5,216.9z"/>
		<path class="st9" d="M178.5,226.8v1.6c0,0.9,0.6,1.2,1.4,0.8l69.2-39.9c0.8-0.4,1.4-1.5,1.4-2.4v-1.6c0-0.9-0.6-1.2-1.4-0.8
			l-69.2,39.9C179.1,224.8,178.5,225.9,178.5,226.8z"/>
		<path class="st9" d="M178.5,236.6v1.6c0,0.9,0.6,1.2,1.4,0.8l69.2-39.9c0.8-0.4,1.4-1.5,1.4-2.4v-1.6c0-0.9-0.6-1.2-1.4-0.8
			l-69.2,39.9C179.1,234.7,178.5,235.8,178.5,236.6z"/>
		<path class="st14" d="M148.6,250.7l-7-6.8l3-6.4l4,3.9l16.7-35.3l3,2.9L148.6,250.7z"/>
		<path class="st13" d="M132.9,297.2l30.3-17.7v35.2l-30.3,17.7V297.2z"/>
		<path class="st12" d="M134.2,298v32.3L162,314v-32.3L134.2,298z M132.9,333.7c-0.2,0-0.4,0-0.6-0.2c-0.4-0.2-0.6-0.6-0.6-1.1
			v-35.2c0-0.4,0.2-0.9,0.6-1.1l30.3-17.7c0.4-0.2,0.9-0.2,1.3,0s0.6,0.6,0.6,1.1v35.2c0,0.5-0.2,0.9-0.6,1.1l-30.3,17.7
			C133.4,333.6,133.2,333.7,132.9,333.7z"/>
		<path class="st9" d="M178.5,281.4v1.6c0,0.9,0.6,1.2,1.4,0.8l69.3-40c0.8-0.4,1.4-1.5,1.4-2.4v-1.6c0-0.9-0.6-1.2-1.4-0.8
			l-69.3,40C179.1,279.4,178.5,280.5,178.5,281.4z"/>
		<path class="st9" d="M178.5,291.3v1.6c0,0.9,0.6,1.2,1.4,0.8l69.3-40c0.8-0.4,1.4-1.5,1.4-2.4v-1.6c0-0.9-0.6-1.2-1.4-0.8
			l-69.3,40C179.1,289.4,178.5,290.4,178.5,291.3z"/>
		<path class="st9" d="M178.5,301.2v1.6c0,0.9,0.6,1.2,1.4,0.8l69.3-40c0.8-0.4,1.4-1.5,1.4-2.4v-1.6c0-0.9-0.6-1.2-1.4-0.8
			l-69.3,40C179.1,299.2,178.5,300.3,178.5,301.2z"/>
		<path class="st13" d="M132.9,361.8l30.3-17.7v35.2L132.9,397V361.8z"/>
		<path class="st12" d="M134.2,362.5v32.3l27.8-16.3v-32.3L134.2,362.5z M132.9,398.2c-0.2,0-0.4,0-0.6-0.2
			c-0.4-0.2-0.6-0.6-0.6-1.1v-35.2c0-0.4,0.2-0.8,0.6-1.1l30.3-17.7c0.4-0.2,0.9-0.2,1.3,0s0.6,0.6,0.6,1.1v35.2
			c0,0.5-0.2,0.9-0.6,1.1l-30.3,17.7C133.4,398.2,133.2,398.2,132.9,398.2z"/>
		<path class="st9" d="M178.5,345v1.6c0,0.9,0.6,1.3,1.4,0.8l69.5-40.1c0.8-0.4,1.4-1.5,1.4-2.4v-1.6c0-0.9-0.6-1.3-1.4-0.8
			l-69.5,40.1C179.1,343,178.5,344.1,178.5,345z"/>
		<path class="st9" d="M178.5,354.9v1.6c0,0.9,0.6,1.3,1.4,0.8l69.5-40.1c0.8-0.4,1.4-1.5,1.4-2.4v-1.6c0-0.9-0.6-1.3-1.4-0.8
			l-69.5,40.1C179.1,352.9,178.5,354,178.5,354.9z"/>
		<path class="st9" d="M178.5,364.8v1.6c0,0.9,0.6,1.3,1.4,0.8l69.5-40.1c0.8-0.4,1.4-1.5,1.4-2.4v-1.6c0-0.9-0.6-1.3-1.4-0.8
			l-69.5,40.1C179.1,362.8,178.5,363.9,178.5,364.8z"/>
		<path class="st4" d="M282.9,25.3c-0.4-3-2.8-4.1-5.7-2.4l-158.7,91.6c-1.7,1.1-3.1,2.6-4.1,4.3c-1,1.7-1.6,3.7-1.7,5.7v350.1
			c0,3.4,2.2,4.9,5,3.7c-1.7,0.7-3.6,1.1-5.4,1c-1.9-0.1-3.7-0.5-5.4-1.4l-6.6-3.8c-1.7-1.1-3.1-2.6-4.1-4.3c-1-1.7-1.6-3.7-1.7-5.7
			V114c0.1-2,0.7-4,1.7-5.7c1-1.7,2.4-3.2,4.1-4.3L259,12.4c1.8-0.9,3.8-1.4,5.8-1.4s4,0.5,5.8,1.4l6.6,3.8c1.5,1,2.9,2.4,3.8,3.9
			C282,21.7,282.6,23.4,282.9,25.3z"/>
		<path class="st12" d="M277.2,22.9l-158.7,91.6c-1.7,1.1-3.1,2.6-4.1,4.3c-1,1.7-1.6,3.7-1.7,5.7v350.1c0,3.7,2.6,5.2,5.8,3.3
			l158.7-91.6c1.7-1.1,3.1-2.6,4.1-4.3c1-1.7,1.6-3.7,1.7-5.7V26.2C282.9,22.5,280.4,21,277.2,22.9z M274.7,343.4
			c0,3.1-2.2,5.2-4.9,6.7l-144.3,83.3c-2.7,1.6-4.9,0.3-4.9-2.9V157.9c0.1-1.7,0.6-3.4,1.5-4.9c0.9-1.5,2.1-2.8,3.5-3.7l144.3-83.3
			c2.7-1.6,4.9-0.3,4.9,2.8V343.4z"/>
		<path class="st6" d="M117.8,478.3c-1.7,0.7-3.6,1.1-5.4,1c-1.9-0.1-3.7-0.5-5.4-1.4l-6.6-3.8c-1.7-1.1-3.1-2.6-4.1-4.3
			c-1-1.7-1.6-3.7-1.7-5.7V114c0.1-2,0.7-4,1.7-5.7l18.2,10.5c-1,1.7-1.6,3.7-1.7,5.7v350.1C112.7,478,114.9,479.5,117.8,478.3z"/>
		<path class="st6" d="M197.8,77.9c2.1-1.2,3.9-0.2,3.9,2.2c-0.1,1.3-0.5,2.7-1.1,3.8c-0.7,1.2-1.6,2.2-2.7,2.9
			c-2.1,1.2-3.9,0.2-3.9-2.2c0.1-1.3,0.5-2.7,1.1-3.8C195.8,79.6,196.7,78.6,197.8,77.9z"/>
		<path class="st6" d="M186.7,97.2c7.9-4.3,21.9-12.7,29.6-17.2c1.3-0.8,2.4-0.2,2.4,1.2c-0.1,0.8-0.3,1.6-0.7,2.3
			c-0.4,0.7-1,1.3-1.7,1.7l-29.7,17.1c-1.3,0.8-2.4,0.2-2.4-1.2c0.1-0.8,0.3-1.6,0.8-2.2C185.4,98.2,186,97.6,186.7,97.2z"/>
		<path class="st6" d="M179.2,101.6c1.2-0.7,2.2-0.1,2.2,1.3c0,0.8-0.3,1.5-0.6,2.1c-0.4,0.7-0.9,1.2-1.5,1.6
			c-1.2,0.7-2.2,0.1-2.2-1.3c0-0.8,0.3-1.5,0.6-2.1C178,102.5,178.5,102,179.2,101.6z"/>
		<path class="st15" d="M199.2,400.7c5-2.9,9.1-0.5,9.1,5.3c-0.2,3.2-1.1,6.2-2.7,9c-1.6,2.7-3.8,5.1-6.4,6.8
			c-5,2.9-9.1,0.6-9.1-5.3c0.2-3.2,1.1-6.2,2.7-9C194.4,404.7,196.6,402.4,199.2,400.7L199.2,400.7z"/>
		<path class="st4" d="M274.6,68.9v274.5c-0.1,1.7-0.6,3.4-1.4,4.9c-0.9,1.5-2.1,2.7-3.5,3.7l-144.3,83.3c-2.7,1.6-4.9,0.3-4.9-2.9
			v-17.1l131-75.6c2.7-1.6,4.9-3.6,4.9-6.7V73.7l13.3-7.7C272.4,64.5,274.6,65.8,274.6,68.9z"/>
		<path class="st6" d="M269.7,66l-13.3,7.7v259.2c0,1.2-0.4,2.3-1,3.3c-0.6,1-1.4,1.8-2.4,2.4l19.2,11.1c1.5-1.8,2.3-4,2.4-6.3V68.9
			C274.6,65.8,272.4,64.5,269.7,66z"/>
	</g>
</g>
</svg>
