<?xml version="1.0" encoding="utf-8"?>
<!-- Generator: Adobe Illustrator 21.0.0, SVG Export Plug-In . SVG Version: 6.00 Build 0)  -->
<svg version="1.1" id="Слой_1" xmlns="http://www.w3.org/2000/svg" xmlns:xlink="http://www.w3.org/1999/xlink" x="0px" y="0px"
	 viewBox="0 0 560 595" style="enable-background:new 0 0 560 595;" xml:space="preserve">
<style type="text/css">
	.st0{clip-path:url(#SVGID_2_);}
	.st1{fill:#EBEBEB;}
	.st2{fill:#F0F0F0;}
	.st3{fill:#F5F5F5;}
	.st4{fill:#FFFFFF;}
	.st5{fill:#E6E6E6;}
	.st6{fill:#FAFAFA;}
	.st7{opacity:0.5;fill:#E0E0E0;enable-background:new    ;}
	.st8{fill:#38AEFF;}
	.st9{opacity:0.4;fill:#38AEFF;enable-background:new    ;}
	.st10{opacity:0.6;fill:#FAFAFA;enable-background:new    ;}
	.st11{fill:#336FE8;}
	.st12{opacity:0.2;enable-background:new    ;}
	.st13{opacity:0.4;enable-background:new    ;}
	.st14{opacity:0.2;fill:#38AEFF;enable-background:new    ;}
	.st15{fill:#9738FF;}
	.st16{opacity:0.3;enable-background:new    ;}
	.st17{fill:#FFB573;}
	.st18{fill:#263238;}
	.st19{fill:#ED893E;}
	.st20{fill:#407BFF;}
	.st21{fill:#2D8BCC;}
</style>
<g>
	<defs>
		<rect id="SVGID_1_" x="-47.2" y="45" width="658.2" height="491.3"/>
	</defs>
	<clipPath id="SVGID_2_">
		<use xlink:href="#SVGID_1_"  style="overflow:visible;"/>
	</clipPath>
	<g class="st0">
		<path class="st1" d="M611,476.8H-47.2v0.3H611V476.8z"/>
		<path class="st1" d="M545,498h-43.6v0.3H545V498z"/>
		<path class="st1" d="M388.8,501.6h-11.4v0.3h11.4V501.6z"/>
		<path class="st1" d="M500.1,485.8h-25.3v0.3h25.3V485.8z"/>
		<path class="st1" d="M-47.2,536.3"/>
		<path class="st1" d="M98.8,488h-8.3v0.3h8.3V488z"/>
		<path class="st1" d="M249.2,493.5H125.8v0.3h123.3V493.5z"/>
		<path class="st1" d="M264.8,418H10.6c-4.1,0-7.5-3.4-7.5-7.5V52.5c0-4.2,3.4-7.5,7.5-7.5h254.2c4.1,0,7.5,3.4,7.5,7.5v357.9
			C272.3,414.6,268.9,418,264.8,418z M10.6,45.3c-4,0-7.2,3.2-7.2,7.2v357.9c0,4,3.2,7.2,7.2,7.2h254.2c4,0,7.2-3.2,7.2-7.2V52.5
			c0-4-3.2-7.2-7.2-7.2H10.6z"/>
		<path class="st1" d="M549.5,418H295.3c-4.1,0-7.5-3.4-7.5-7.5V52.5c0-4.2,3.4-7.5,7.5-7.5h254.2c4.1,0,7.5,3.4,7.5,7.5v357.9
			C557.1,414.6,553.7,418,549.5,418z M295.3,45.3c-4,0-7.2,3.2-7.2,7.2v357.9c0,4,3.2,7.2,7.2,7.2h254.2c4,0,7.2-3.2,7.2-7.2V52.5
			c0-4-3.2-7.2-7.2-7.2H295.3z"/>
		<path class="st2" d="M133.3,92.4H68.8v79.1h64.6V92.4z"/>
		<path class="st3" d="M147.2,92.4H72.9v79.1h74.3V92.4z"/>
		<path class="st4" d="M141,165.2V98.6H79.1v66.6H141z"/>
		<path class="st3" d="M126,149.1v-34.3H94.1v34.3H126z"/>
		<path class="st2" d="M242.3,129.1h-64.6v79.1h64.6V129.1z"/>
		<path class="st3" d="M256.2,129.1h-74.3v79.1h74.3V129.1z"/>
		<path class="st4" d="M249.9,202v-66.6h-61.8V202H249.9z"/>
		<path class="st3" d="M203.1,173.1v-8.8c0-7.1,5.7-12.8,12.7-12.8h6.4c7,0,12.7,5.7,12.7,12.8v8.8c0,7.1-5.7,12.8-12.7,12.8h-6.4
			C208.8,185.9,203.1,180.1,203.1,173.1z"/>
		<path class="st5" d="M537.8,409.6H502v67.1h35.8V409.6z"/>
		<path class="st2" d="M531,476.8h6.8v-25.3h-13.9L531,476.8z"/>
		<path class="st5" d="M333.6,409.6h-35.8v67.1h35.8V409.6z"/>
		<path class="st2" d="M537.8,409.6H327.6v60.2h210.1V409.6z"/>
		<path class="st2" d="M334.4,476.8h-6.8v-25.3h13.9L334.4,476.8z"/>
		<path class="st5" d="M334.6,420.1v38.5h62.3v-38.5H334.6z"/>
		<path class="st2" d="M371.9,433.3h-12.3c-5.4,0-10.5-5.4-14.2-15h40.6C382.4,427.9,377.3,433.3,371.9,433.3z"/>
		<path class="st5" d="M401.6,420.1v38.5h62.3v-38.5H401.6z"/>
		<path class="st2" d="M439.5,433.3h-12.3c-5.4,0-10.5-5.4-14.2-15h40.6C450,427.9,444.9,433.3,439.5,433.3z"/>
		<path class="st5" d="M468.5,420.1v38.5h62.3v-38.5H468.5z"/>
		<path class="st2" d="M506.4,433.3h-12.3c-5.4,0-10.5-5.4-14.2-15h40.6C516.9,427.9,511.8,433.3,506.4,433.3z"/>
		<path class="st5" d="M527.3,83.5H322.5v174.7h204.9V83.5z"/>
		<path class="st2" d="M534,83.5H325.6v174.7H534V83.5z"/>
		<path class="st5" d="M527.3,258.2H322.5v12.4h204.9V258.2z"/>
		<path class="st2" d="M545.2,258.2H336.7v12.4h208.4V258.2z"/>
		<path class="st6" d="M524.7,248.8V92.9H335v155.9H524.7z"/>
		<path class="st4" d="M455.7,248.8l15-155.9h25.9l-15,155.9H455.7z"/>
		<path class="st2" d="M339.3,196c-0.4,0-0.7-0.3-0.7-0.7V99c0-0.4,0.3-0.7,0.7-0.7c0.4,0,0.7,0.3,0.7,0.7v96.2
			C340,195.7,339.7,196,339.3,196z"/>
		<path class="st4" d="M487.2,248.8l15-155.9h10.1l-15,155.9H487.2z"/>
		<path class="st5" d="M524.7,248.8V92.9h-1.2v155.9H524.7z"/>
		<path class="st7" d="M536.3,109.9H331.4l-0.9-13.3h204.9L536.3,109.9z"/>
		<path class="st7" d="M536.3,131.9H331.4l-0.9-13.3h204.9L536.3,131.9z"/>
		<path class="st7" d="M536.3,153.8H331.4l-0.9-13.3h204.9L536.3,153.8z"/>
		<path class="st7" d="M536.3,175.8H331.4l-0.9-13.3h204.9L536.3,175.8z"/>
		<path class="st7" d="M536.3,197.7H331.4l-0.9-13.3h204.9L536.3,197.7z"/>
		<path class="st7" d="M536.3,219.7H331.4l-0.9-13.4h204.9L536.3,219.7z"/>
		<path class="st5" d="M272.1,316.9h-62.4v159.9h62.4V316.9z"/>
		<path class="st2" d="M265.9,476.8h6.3V455h-12.9L265.9,476.8z"/>
		<path class="st5" d="M174.3,316.9h-62.4v159.9h62.4V316.9z"/>
		<path class="st2" d="M272.1,316.9H168.8v146.5h103.3V316.9z"/>
		<path class="st5" d="M267.3,323.4h-93.6v40.2h93.6V323.4z"/>
		<path class="st2" d="M229.6,335.9h-14.1c-6.1,0-12-5-16.2-13.7h46.5C241.6,330.9,235.8,335.9,229.6,335.9z"/>
		<path class="st2" d="M175.1,476.8h-6.3V455h12.9L175.1,476.8z"/>
		<path class="st5" d="M267.3,370.1h-93.6v40.2h93.6V370.1z"/>
		<path class="st2" d="M229.6,382.5h-14.1c-6.1,0-12-5-16.2-13.7h46.5C241.6,377.6,235.8,382.5,229.6,382.5z"/>
		<path class="st5" d="M267.3,416.7h-93.6v40.2h93.6V416.7z"/>
		<path class="st2" d="M229.6,429.2h-14.1c-6.1,0-12-5-16.2-13.7h46.5C241.6,424.3,235.8,429.2,229.6,429.2z"/>
		<path class="st3" d="M347.7,409.5h36.9c4.6,0,8.3-3.7,8.3-8.3V340c0-4.6-3.7-8.3-8.3-8.3h-36.9c-4.6,0-8.3,3.7-8.3,8.3v61.1
			C339.4,405.7,343.1,409.5,347.7,409.5z"/>
		<path class="st2" d="M478.3,366.2c0,0-1.3,43.3-51.9,43.3c-50.6,0-51.9-43.3-51.9-43.3H478.3z"/>
		<path class="st2" d="M72.6,442.1h2.6c0-11,0-14.7,0.3-78.7c0.5-116,1.4-123.1,1.4-123.1l-6.1,53.6
			C66.8,353.1,71.8,388.5,72.6,442.1z"/>
		<path class="st6" d="M72,476.8c-16.8,0-30.9-11.8-34.4-27.7c-0.9-4.2-1.9-8.4-3.6-12.4l-0.3-0.6h76.4l-0.3,0.6
			c-1.6,4-2.7,8.2-3.6,12.4C103,465,88.8,476.8,72,476.8z"/>
		<path class="st2" d="M115.2,439.9H28.9l-2.5-18.7h91.2L115.2,439.9z"/>
		<path class="st2" d="M70.4,338c15.1-26.3-24-35.7-36.7-59.2C18.5,297.4,52.7,368.9,70.4,338z"/>
		<path class="st2" d="M73.3,316.4c-5.8-13.3,22.2-29.3,28.2-50.9C112.7,278,90.5,355.7,73.3,316.4z"/>
		<path class="st2" d="M73.1,356.4c4.7-16.7,31.8-4.7,45.7-36.1C133.5,364.7,60,402.8,73.1,356.4z"/>
		<path class="st2" d="M74.3,376.4c-0.3-15.9-17.5-1.8-48.8-30.1C20,375.5,75.5,437.7,74.3,376.4z"/>
		<path class="st3" d="M281.9,536.3c141,0,255.2-6.7,255.2-14.9s-114.3-14.9-255.2-14.9s-255.2,6.7-255.2,14.9
			S140.9,536.3,281.9,536.3z"/>
		<path class="st8" d="M309.9,148.1c3.6-24.2-13-46.8-37.1-50.4c-24.2-3.6-46.7,13-50.3,37.2c-3.6,24.2,13,46.8,37.1,50.4
			C283.7,189,306.3,172.3,309.9,148.1z"/>
		<path class="st4" d="M300.6,153.7c-2.1,5.9-5.6,11-10,14.9c-9.6,8.7-23.6,11.9-36.7,7.3c-13.1-4.7-21.9-16-23.9-28.8
			c-0.9-5.8-0.4-11.9,1.7-17.9c6.8-19,27.6-29,46.6-22.2C297.4,113.8,307.3,134.7,300.6,153.7z"/>
		<path class="st9" d="M290.6,168.7c-9.6,8.7-23.6,11.9-36.7,7.3c-13.1-4.7-21.9-16-23.9-28.8c10.7-2.7,22.3-2.4,33.5,1.6
			C274.8,152.7,284,159.8,290.6,168.7z"/>
		<path class="st9" d="M285.7,135.1c-3,8.5-12.3,12.9-20.8,9.9c-8.5-3-12.9-12.3-9.9-20.8c3-8.5,12.3-12.9,20.8-9.9
			C284.3,117.4,288.7,126.7,285.7,135.1z"/>
		<path class="st8" d="M103.3,188.6c20.6-0.1,37.3-16.8,37.2-37.5c-0.1-20.6-16.8-37.3-37.4-37.3c-20.6,0.1-37.3,16.8-37.2,37.5
			C65.9,172,82.6,188.7,103.3,188.6z"/>
		<path class="st10" d="M103.3,188.6c20.6-0.1,37.3-16.8,37.2-37.5c-0.1-20.6-16.8-37.3-37.4-37.3c-20.6,0.1-37.3,16.8-37.2,37.5
			C65.9,172,82.6,188.7,103.3,188.6z"/>
		<path class="st4" d="M132,140.5c1.8,5,2.3,10.2,1.6,15.1c-1.5,10.8-8.8,20.5-19.8,24.6c-11,4.1-22.8,1.5-31-5.7
			c-3.7-3.3-6.7-7.5-8.6-12.5c-5.9-16,2.2-33.7,18.2-39.7C108.4,116.4,126.1,124.5,132,140.5z"/>
		<path class="st11" d="M133.6,155.6c-1.5,10.8-8.8,20.5-19.8,24.6c-11,4.1-22.8,1.5-31-5.7c5.5-7.6,13.1-13.6,22.5-17.1
			C114.8,153.8,124.6,153.4,133.6,155.6z"/>
		<path class="st11" d="M112.4,136.5c2.6,7.1-1,15-8.1,17.7c-7.1,2.6-15-1-17.6-8.1c-2.6-7.1,1-15,8.1-17.7
			C101.8,125.8,109.7,129.4,112.4,136.5z"/>
		<path class="st11" d="M203.1,122.8c16.6-16.7,16.6-43.7,0-60.3s-43.6-16.7-60.2,0c-16.6,16.7-16.6,43.7,0,60.3
			C159.5,139.4,186.4,139.4,203.1,122.8z"/>
		<path class="st4" d="M207.8,87.9c0.8,6,0.1,11.9-2,17.2c-4.4,11.7-14.9,20.6-28.1,22.4c-13.2,1.8-25.8-4-33.1-14.1
			c-3.4-4.6-5.6-10-6.5-16c-2.6-19.3,10.9-37,30.1-39.6C187.5,55.1,205.2,68.6,207.8,87.9z"/>
		<path class="st8" d="M205.8,105.1c-4.4,11.7-14.9,20.6-28.1,22.4c-13.2,1.8-25.7-4-33.1-14.1c8-7.1,18-11.9,29.4-13.4
			C185.3,98.4,196.2,100.4,205.8,105.1z"/>
		<path class="st8" d="M183.8,90.2c5.2-6.9,3.9-16.7-3-22c-6.9-5.2-16.7-3.9-21.9,3c-5.2,6.9-3.9,16.7,3,22
			C168.7,98.4,178.6,97.1,183.8,90.2z"/>
		<path class="st11" d="M226.7,509.7h-67.1v11.7h67.1V509.7z"/>
		<path class="st12" d="M165.6,509.7h-2.7v11.7h2.7V509.7z"/>
		<path class="st12" d="M172.8,509.7h-2.7v11.7h2.7V509.7z"/>
		<path class="st12" d="M180.1,509.7h-2.7v11.7h2.7V509.7z"/>
		<path class="st12" d="M187.3,509.7h-2.7v11.7h2.7V509.7z"/>
		<path class="st12" d="M194.5,509.7h-2.7v11.7h2.7V509.7z"/>
		<path class="st12" d="M201.7,509.7H199v11.7h2.7V509.7z"/>
		<path class="st12" d="M208.9,509.7h-2.7v11.7h2.7V509.7z"/>
		<path class="st12" d="M216.2,509.7h-2.7v11.7h2.7V509.7z"/>
		<path class="st12" d="M223.4,509.7h-2.7v11.7h2.7V509.7z"/>
		<path class="st11" d="M224.3,498.1h-67.1v11.7h67.1V498.1z"/>
		<path class="st12" d="M163.2,498.1h-2.7v11.7h2.7V498.1z"/>
		<path class="st12" d="M170.5,498.1h-2.7v11.7h2.7V498.1z"/>
		<path class="st12" d="M177.7,498.1H175v11.7h2.7V498.1z"/>
		<path class="st12" d="M184.9,498.1h-2.7v11.7h2.7V498.1z"/>
		<path class="st12" d="M192.1,498.1h-2.7v11.7h2.7V498.1z"/>
		<path class="st12" d="M199.4,498.1h-2.7v11.7h2.7V498.1z"/>
		<path class="st12" d="M206.6,498.1h-2.7v11.7h2.7V498.1z"/>
		<path class="st12" d="M213.8,498.1h-2.7v11.7h2.7V498.1z"/>
		<path class="st12" d="M221,498.1h-2.7v11.7h2.7V498.1z"/>
		<path class="st8" d="M226.2,486.4h-67.1v11.7h67.1V486.4z"/>
		<path class="st12" d="M165.1,486.4h-2.7v11.7h2.7V486.4z"/>
		<path class="st12" d="M172.4,486.4h-2.7v11.7h2.7V486.4z"/>
		<path class="st12" d="M179.6,486.4h-2.7v11.7h2.7V486.4z"/>
		<path class="st12" d="M186.8,486.4h-2.7v11.7h2.7V486.4z"/>
		<path class="st12" d="M194,486.4h-2.7v11.7h2.7V486.4z"/>
		<path class="st12" d="M201.2,486.4h-2.7v11.7h2.7V486.4z"/>
		<path class="st12" d="M208.5,486.4h-2.7v11.7h2.7V486.4z"/>
		<path class="st12" d="M215.7,486.4H213v11.7h2.7V486.4z"/>
		<path class="st12" d="M222.9,486.4h-2.7v11.7h2.7V486.4z"/>
		<path class="st8" d="M197,480.1c18.2-4.2,29.5-22.4,25.4-40.6c-4.2-18.2-22.4-29.6-40.6-25.4c-18.2,4.2-29.6,22.4-25.4,40.6
			C160.7,472.9,178.8,484.3,197,480.1z"/>
		<path class="st12" d="M212.4,463.3c-8.3,13.3-25.8,17.4-39.1,9s-17.3-25.9-9-39.2c8.3-13.3,25.8-17.4,39.1-9
			C216.6,432.4,220.7,450,212.4,463.3z"/>
		<path class="st8" d="M196.2,475.4c15-3.5,24.4-18.5,20.9-33.5c-3.5-15-18.4-24.4-33.5-21c-15,3.5-24.4,18.5-20.9,33.5
			C166.2,469.5,181.2,478.9,196.2,475.4z"/>
		<path class="st6" d="M199.2,453.1l-4.2,6.7c-0.3,0.5-0.8,0.9-1.4,1c-0.6,0.1-1.2,0-1.8-0.3l-5.9-3.7l-2.9,4.7
			c-0.3,0.5-0.8,0.9-1.4,1c-0.6,0.1-1.2,0-1.7-0.3c-0.6-0.3-0.9-0.8-1.1-1.5c-0.1-0.6-0.1-1.2,0.3-1.7l3-4.8l-5.9-3.7
			c-0.5-0.3-0.9-0.8-1-1.4c-0.1-0.6-0.1-1.2,0.3-1.7c0.3-0.5,0.8-0.9,1.4-1c0.6-0.1,1.2,0,1.7,0.3l13.7,8.6l1.7-2.8l-13.7-8.5
			c-0.5-0.3-0.9-0.8-1-1.4c-0.1-0.6,0-1.2,0.3-1.7l4.2-6.7c0.3-0.5,0.8-0.9,1.4-1c0.6-0.1,1.2,0,1.7,0.3l5.8,3.6l2.9-4.7
			c0.3-0.5,0.8-0.9,1.4-1c0.6-0.2,1.2,0,1.8,0.3c0.5,0.3,0.9,0.8,1,1.4c0.1,0.6,0,1.2-0.3,1.7l-2.9,4.7l6,3.7c0.5,0.3,0.9,0.8,1,1.5
			c0.2,0.6,0.1,1.2-0.3,1.7c-0.3,0.5-0.8,0.9-1.5,1c-0.6,0.1-1.2,0.1-1.8-0.3l-13.7-8.6l-1.7,2.8l13.7,8.5c0.5,0.3,0.9,0.8,1,1.5
			C199.6,452.1,199.6,452.6,199.2,453.1z"/>
		<path class="st13" d="M207.4,418.3c-15.8-9.9-36.7-5.1-46.6,10.8c-2.9,4.6-4.5,9.6-5,14.6h67.3
			C222.1,433.6,216.6,424.1,207.4,418.3z"/>
		<path class="st14" d="M312.7,148.8H67.2c-9,0-14.3,10.2-9.2,17.6L85.4,206c2.1,3,5.5,4.8,9.2,4.8h190.7c3.7,0,7.1-1.8,9.2-4.8
			l27.4-39.7C327.1,159,321.7,148.8,312.7,148.8z"/>
		<path class="st8" d="M314.1,197.5H65.8l80.7,174.2h86.8L314.1,197.5z"/>
		<path class="st15" d="M93.7,265.5l-1.2,0.6l8.2,17.7l1.2-0.6L93.7,265.5z"/>
		<path class="st15" d="M104.4,288.5l-1.2,0.6l3.8,8.3l1.2-0.6L104.4,288.5z"/>
		<path class="st16" d="M314.1,197.5H65.8l80.7,174.2h86.8L314.1,197.5z"/>
		<path class="st12" d="M138.3,197.5h-47l71.1,174.2h15.2L138.3,197.5z"/>
		<path class="st8" d="M321.8,197.5H58.1c-3.5,0-6.3-2.8-6.3-6.3v-20.9c0-3.5,2.8-6.3,6.3-6.3h263.6c3.5,0,6.3,2.8,6.3,6.3v20.9
			C328.1,194.7,325.2,197.5,321.8,197.5z"/>
		<path class="st8" d="M220.6,434.9h-61.3c-4.6,0-8.3-3.5-8.7-8.1l-4.1-55.1h86.8l-4.1,55.1C228.9,431.4,225.1,434.9,220.6,434.9z"
			/>
		<path class="st12" d="M220.6,434.9h-61.3c-4.6,0-8.3-3.5-8.7-8.1l-4.1-55.1h86.8l-4.1,55.1C228.9,431.4,225.1,434.9,220.6,434.9z"
			/>
		<path class="st17" d="M388.5,510.4h-10.8l-0.7-25h10.8L388.5,510.4z"/>
		<path class="st12" d="M377,485.4l0.4,12.9h10.8l-0.4-12.9H377z"/>
		<path class="st17" d="M471.8,471.1l-9.4,5.2l-15.1-20.2l9.4-5.2L471.8,471.1z"/>
		<path class="st12" d="M456.8,450.9l-9.5,5.2l7.8,10.4l9.5-5.2L456.8,450.9z"/>
		<path class="st18" d="M407.7,147.7c-0.7-4.6,3.3-9.2,8-9.8s9.3,2.4,11.5,6.6c1,2.1,1.5,4.5,1.6,6.8c0.1,2.4-0.4,4.7-1.2,6.9
			c-1.1,3-3.3,6-6.5,6.2c-3,0.2-5.6-2.2-7.7-4.4"/>
		<path class="st18" d="M374.5,168.7c-8.7-19.1,12-28.7,23.3-25.6c10.6,3,15.2,8.3,16.9,15.4c1.9,7.1,1.5,14.7-1.1,21.6
			c-1.4,3.3-12.2,6.1-15.8,6.6"/>
		<path class="st17" d="M371.9,215.4c-0.1,1.8-0.3,3.4-0.5,5c-0.2,1.6-0.5,3.2-0.7,4.9c-0.5,3.2-1.3,6.4-2,9.6
			c-1.6,6.4-3.6,12.6-6.4,18.7l-0.5,1.1c-0.2,0.4-0.3,0.6-0.7,1.4c-0.7,1.3-1.9,2.6-3.3,3.5c-1.4,0.9-2.8,1.3-4.1,1.5
			c-1.3,0.2-2.4,0.1-3.5,0c-4.2-0.6-7.3-2.1-10.3-3.6c-5.9-3.2-11.1-7-16-11.3l3.3-4.4c2.6,1.5,5.4,3,8.1,4.4
			c2.7,1.4,5.5,2.7,8.2,3.7c2.7,1,5.5,1.9,7.6,1.9c1,0,1.6-0.3,1.5-0.3c-0.1,0-0.1,0.1-0.1,0l0.7-1.8c2.1-5.6,3.7-11.4,5.1-17.3
			c0.6-3,1.2-5.9,1.7-8.9c0.5-3,0.9-6.1,1.2-8.8L371.9,215.4z"/>
		<path class="st8" d="M364.4,202.2c-4.4,1.1-7.5,19.4-7.5,19.4l12.2,8.3c0,0,11.7-18.5,8.3-23.4
			C373.9,201.5,370.9,200.5,364.4,202.2z"/>
		<path class="st12" d="M364.4,202.2c-4.4,1.1-7.5,19.4-7.5,19.4l12.2,8.3c0,0,11.7-18.5,8.3-23.4
			C373.9,201.5,370.9,200.5,364.4,202.2z"/>
		<path class="st12" d="M364.8,206.3l-3.4,18.5l6.9,4.7L364.8,206.3z"/>
		<path class="st17" d="M328.9,242.4l-6.6-10.3l-3.7,10.3c0,0,4.6,5.2,8.9,4.2L328.9,242.4z"/>
		<path class="st17" d="M315.3,228.2l-4.4,8.1l7.7,6.1l3.7-10.3L315.3,228.2z"/>
		<path class="st18" d="M460.3,475.1l9.6-7.4c0.4-0.3,0.8-0.2,1.1,0.1l6.9,6.8c0.7,0.7,0.6,2-0.2,2.6c-3.4,2.5-5.2,3.5-9.4,6.8
			c-2.6,2-6.2,5.2-9.8,7.9c-3.5,2.7-6.5-0.7-5.3-2.1c5.6-6.6,5.2-9.4,6-13C459.4,476,459.8,475.5,460.3,475.1z"/>
		<path class="st18" d="M377.3,509.1h12.1c0.4,0,0.8,0.3,0.9,0.7l1.4,9.6c0.1,1-0.7,1.9-1.7,1.9c-4.2-0.1-6.3-0.3-11.6-0.3
			c-3.3,0-12.7,0.3-17.2,0.3c-4.4,0-4.8-4.5-2.9-4.9c8.5-1.8,14.4-4.3,17.2-6.7C376,509.3,376.7,509.1,377.3,509.1z"/>
		<path class="st8" d="M364.4,202.2c0,0-5.1,1.8,5.1,65.2c17.4,0,35.3,0,43.8,0c-0.7-17.8-0.7-28.9,7.8-65.5c0,0-9.2-2-18.6-2.5
			c-7.4-0.4-13.4-0.6-19.9,0C374.1,200.2,364.4,202.2,364.4,202.2z"/>
		<path class="st12" d="M364.4,202.2c0,0-5.1,1.8,5.1,65.2c17.4,0,35.3,0,43.8,0c-0.7-17.8-0.7-28.9,7.8-65.5c0,0-9.2-2-18.6-2.5
			c-7.4-0.4-13.4-0.6-19.9,0C374.1,200.2,364.4,202.2,364.4,202.2z"/>
		<path class="st4" d="M402.5,199.4c-7.4-0.4-13.4-0.6-19.9,0c-2.4,0.2-4.9,0.5-7.2,0.9c0,0,0,0,0,0c-1,3.9-0.8,9.3,3.1,16.3l2.3,4
			l4.3-1.7c3.2-1.3,19.3-8.1,24.5-16.5l1.3-2.2C408.4,199.8,405.5,199.6,402.5,199.4z"/>
		<path class="st17" d="M402.5,199.4c-4.5-4.3-3.2-16-2-22.4l-12.2,10.4c1.2,5,1.4,10.3-5.7,12c-0.4,0-0.9,0.1-1.3,0.1
			c-1.6,3-2,7.6,1.8,14.4c0,0,17.4-7,22-14.4C404.3,199.5,403.4,199.5,402.5,199.4z"/>
		<path class="st12" d="M395.6,181.3l-7.2,6.2c0.3,1.2,0.5,2.4,0.6,3.5c2.7-0.4,6.5-3.4,6.8-6.3
			C395.9,183.3,395.8,181.9,395.6,181.3z"/>
		<path class="st17" d="M408.6,166.8c-3.2,10.2-4.3,14.6-10.9,18.7c-9.8,6.1-21.7-0.1-21.6-11.1c0.1-9.9,5.3-24.9,16.4-26.6
			C403.6,146.2,411.8,156.5,408.6,166.8z"/>
		<path class="st18" d="M410.7,151.9c-3.8-3.5-8.3-5-12.8-5.3c-0.5-0.6-1.6-0.9-2.4-1.1c-4.9-1-10.6,0.3-13.1,3.5
			c-2.3,2.9,5.5,4.6,11.1,2.3c0.8,8.8,8.2,26.9,15.3,25.3C418,174.4,418.1,158.8,410.7,151.9z"/>
		<path class="st18" d="M369.6,267.3c0,0-8.5,83.2-7.8,116.1c0.7,34.2,13.3,112.3,13.3,112.3h14.6c0,0-2.3-76.1-1-109.7
			c1.4-36.7,13-118.7,13-118.7H369.6z"/>
		<path class="st11" d="M390.9,496.3h-17.1l-1.3-5.5l19.2-0.7L390.9,496.3z"/>
		<path class="st12" d="M388.5,288c-10.8,21.7-2.2,61.2,1.6,75.9c1.9-22.1,5.2-49.1,7.8-68.9C396.3,283.8,393.4,278,388.5,288z"/>
		<path class="st18" d="M381.1,267.3c0,0,9.9,86.5,17.4,114.2c8.9,33,53,84,53,84l12.9-7.1c0,0-30.6-57.4-37.4-74.7
			c-14.5-37.1-2.1-92.3-13.7-116.4H381.1z"/>
		<path class="st11" d="M466.3,458.4l-16,8.8l-4.5-4.1l18.3-11.2L466.3,458.4z"/>
		<path class="st18" d="M391.4,165.4c-0.2,0.8-0.8,1.4-1.4,1.3c-0.6-0.1-0.8-0.9-0.6-1.8c0.2-0.8,0.8-1.4,1.4-1.3
			C391.3,163.8,391.6,164.6,391.4,165.4z"/>
		<path class="st18" d="M381.9,163.1c-0.2,0.8-0.8,1.4-1.4,1.3c-0.6-0.1-0.8-0.9-0.6-1.8c0.2-0.8,0.8-1.4,1.4-1.3
			C381.8,161.4,382.1,162.2,381.9,163.1z"/>
		<path class="st18" d="M381.5,161.4l-1.9-1.1C379.6,160.3,380.2,162.2,381.5,161.4z"/>
		<path class="st19" d="M384.4,165.3c0,0-2.3,3.3-4.3,4.7c0.9,1.3,2.9,1.3,2.9,1.3L384.4,165.3z"/>
		<path class="st18" d="M386.8,175.8c-0.4,0-0.8-0.1-1.3-0.2c-0.1,0-0.2-0.2-0.2-0.3c0-0.1,0.2-0.2,0.3-0.2c3.7,0.9,6.1-1.3,6.1-1.3
			c0.1-0.1,0.3-0.1,0.4,0c0.1,0.1,0.1,0.3,0,0.4C392,174.2,390,176,386.8,175.8z"/>
		<path class="st17" d="M409.1,177c-1.2,1.8-3.2,2.9-5,3.3c-2.7,0.5-3.8-2-2.8-4.4c0.9-2.2,3.3-5.1,5.9-4.4
			C409.8,172,410.5,174.9,409.1,177z"/>
		<path class="st18" d="M395.7,164.4c-0.2,0-0.4-0.2-0.4-0.4c-0.5-2.3-3.3-3.5-3.4-3.5c-0.3-0.1-0.4-0.4-0.3-0.7
			c0.1-0.3,0.4-0.4,0.7-0.3c0.1,0.1,3.3,1.4,4,4.2c0.1,0.3-0.1,0.6-0.4,0.6C395.8,164.5,395.8,164.5,395.7,164.4z"/>
		<path class="st18" d="M380.1,158c-0.2,0-0.3-0.1-0.4-0.3c-0.1-0.3,0-0.6,0.2-0.7c2.5-1.2,4.6,0,4.7,0c0.2,0.1,0.3,0.5,0.2,0.7
			c-0.1,0.2-0.5,0.3-0.7,0.2c-0.1,0-1.7-1-3.7,0C380.3,158,380.2,158,380.1,158z"/>
		<path class="st17" d="M426.2,214.4c1.3,6.5,2.3,13,3,19.6c0.4,3.3,0.7,6.6,0.9,9.9c0.1,1.6,0.2,3.3,0.3,5l0.1,2.5l0,0.6v0.4
			c0,0.3,0,0.6,0,0.9c-0.1,1.3-0.8,2.9-1.8,3.9c-1,1-2,1.5-2.8,1.8c-0.8,0.3-1.5,0.5-2.1,0.6c-1.3,0.2-2.3,0.2-3.3,0.2
			c-2-0.1-3.8-0.4-5.5-0.7c-3.4-0.7-6.7-1.6-9.8-2.6c-3.2-1-6.3-2.1-9.4-3.3c-3.1-1.2-6.1-2.4-9.1-3.8l1.8-5.2
			c3.1,0.8,6.2,1.5,9.3,2.2c3.1,0.8,6.2,1.4,9.3,2c3.1,0.6,6.2,1.1,9.2,1.5c1.5,0.2,2.9,0.3,4.2,0.2c0.6,0,1.2-0.1,1.5-0.2
			c0.2,0,0.2-0.1,0.2-0.1c-0.1,0-0.4,0.1-0.8,0.5c-0.4,0.4-0.8,1.2-0.8,1.8c0,0.1,0,0.2,0,0.3c0,0.1,0-0.2,0-0.2l-0.1-0.6l-0.2-2.3
			l-0.5-4.7c-0.4-3.1-0.8-6.3-1.3-9.4c-0.4-3.2-1-6.3-1.5-9.5c-0.5-3.1-1.1-6.3-1.6-9.4L426.2,214.4z"/>
		<path class="st8" d="M421.1,201.9c4.4,1.3,9.7,16.5,9.7,16.5l-17,12.2c0,0-6.2-12.6-4.4-18.3C411.3,206.3,416.1,200.3,421.1,201.9
			z"/>
		<path class="st12" d="M421.1,201.9c4.4,1.3,9.7,16.5,9.7,16.5l-17,12.2c0,0-6.2-12.6-4.4-18.3
			C411.3,206.3,416.1,200.3,421.1,201.9z"/>
		<path class="st20" d="M456.7,479.6c0,0-0.1,0-0.1,0c-0.5,0-0.9-0.3-1.2-0.8c-0.2-0.4-0.1-0.7,0-0.9c0.7-1.2,4.5-1.5,5-1.5
			c0.1,0,0.2,0.1,0.3,0.1c0.1,0.1,0,0.2,0,0.3C459.7,477.8,458,479.6,456.7,479.6z M459.8,476.9c-1.6,0.2-3.6,0.6-3.9,1.2
			c0,0.1-0.1,0.2,0,0.4c0.2,0.4,0.4,0.5,0.8,0.6C457.3,479.1,458.5,478.4,459.8,476.9z"/>
		<path class="st20" d="M460,476.9c-1.3,0-3.8-0.6-4.3-1.6c-0.1-0.2-0.2-0.6,0.3-1.1c0.3-0.3,0.7-0.4,1.1-0.4
			c1.6,0.1,3.4,2.6,3.5,2.7c0.1,0.1,0.1,0.2,0,0.3c0,0.1-0.1,0.1-0.2,0.2C460.3,476.9,460.1,476.9,460,476.9z M456.9,474.3
			c-0.2,0-0.4,0.1-0.6,0.2c-0.2,0.2-0.2,0.4-0.1,0.5c0.3,0.7,2.4,1.3,3.7,1.4C459.2,475.6,457.9,474.3,456.9,474.3
			C457,474.3,456.9,474.3,456.9,474.3z"/>
		<path class="st20" d="M373.3,511c-1.1,0-2.1-0.2-2.6-0.7c-0.4-0.3-0.5-0.7-0.5-1.2c0-0.3,0.2-0.5,0.4-0.7c1.3-0.7,5.6,1.5,6.1,1.7
			c0.1,0.1,0.1,0.2,0.1,0.3c0,0.1-0.1,0.2-0.2,0.2C375.7,510.8,374.5,511,373.3,511z M371.4,508.8c-0.2,0-0.4,0-0.5,0.1
			c-0.1,0.1-0.2,0.1-0.2,0.3c0,0.3,0.1,0.6,0.3,0.8c0.7,0.6,2.4,0.7,4.8,0.3C374.3,509.5,372.4,508.8,371.4,508.8z"/>
		<path class="st20" d="M376.6,510.6c0,0-0.1,0-0.1,0c-1.3-0.6-3.8-2.9-3.6-4.1c0.1-0.3,0.2-0.6,1-0.7c0.5-0.1,1,0.1,1.4,0.4
			c1.4,1.1,1.6,4,1.6,4.2c0,0.1,0,0.2-0.1,0.2C376.7,510.6,376.7,510.6,376.6,510.6z M374.1,506.2c-0.1,0-0.1,0-0.2,0
			c-0.5,0.1-0.5,0.2-0.5,0.3c-0.1,0.7,1.6,2.6,2.9,3.4c-0.1-0.8-0.5-2.6-1.4-3.3C374.7,506.3,374.4,506.2,374.1,506.2z"/>
		<path class="st18" d="M391,163.8l-1.9-1.1C389.1,162.7,389.8,164.5,391,163.8z"/>
		<path class="st8" d="M414,264.8l1.1,3.9c0.2,0.3-0.2,0.6-0.7,0.6h-45c-0.4,0-0.7-0.2-0.7-0.4l-0.4-3.9c0-0.3,0.3-0.5,0.7-0.5h44.3
			C413.6,264.4,413.9,264.6,414,264.8z"/>
		<path class="st18" d="M408.1,269.7h1.2c0.2,0,0.4-0.1,0.4-0.3l-0.6-5.1c0-0.1-0.2-0.3-0.5-0.3h-1.2c-0.2,0-0.4,0.1-0.4,0.3
			l0.6,5.1C407.6,269.6,407.8,269.7,408.1,269.7z"/>
		<path class="st18" d="M372.7,269.7h1.2c0.2,0,0.4-0.1,0.4-0.3l-0.6-5.1c0-0.1-0.2-0.3-0.5-0.3h-1.2c-0.2,0-0.4,0.1-0.4,0.3
			l0.6,5.1C372.3,269.6,372.5,269.7,372.7,269.7z"/>
		<path class="st18" d="M390.4,269.7h1.2c0.2,0,0.4-0.1,0.4-0.3l-0.6-5.1c0-0.1-0.2-0.3-0.5-0.3h-1.2c-0.2,0-0.4,0.1-0.4,0.3
			l0.6,5.1C389.9,269.6,390.2,269.7,390.4,269.7z"/>
		<path class="st8" d="M348.8,282.2c19.6,0,35.5-15.9,35.5-35.5c0-19.6-15.9-35.5-35.5-35.5s-35.5,15.9-35.5,35.5
			C313.4,266.3,329.3,282.2,348.8,282.2z"/>
		<path class="st13" d="M348.8,282.2c19.6,0,35.5-15.9,35.5-35.5c0-19.6-15.9-35.5-35.5-35.5s-35.5,15.9-35.5,35.5
			C313.4,266.3,329.3,282.2,348.8,282.2z"/>
		<path class="st8" d="M319.9,242.8c-0.7,5-0.1,9.9,1.6,14.3c3.7,9.7,12.4,17.2,23.4,18.7c11,1.5,21.4-3.3,27.6-11.7
			c2.8-3.8,4.7-8.3,5.4-13.4c2.2-16-9-30.8-25.1-33C336.8,215.5,322,226.7,319.9,242.8z"/>
		<path class="st4" d="M321.5,257.1c3.7,9.7,12.4,17.2,23.4,18.7c11,1.5,21.4-3.3,27.6-11.7c-6.6-5.9-15-9.9-24.4-11.2
			C338.6,251.5,329.4,253.2,321.5,257.1z"/>
		<path class="st4" d="M362.5,241.1c2.4-6.8-1.2-14.3-8-16.7c-6.8-2.4-14.2,1.2-16.6,8c-2.4,6.8,1.2,14.3,8,16.7
			C352.7,251.5,360.1,247.9,362.5,241.1z"/>
		<path class="st17" d="M389.7,244.6l-8.1-8.3l-1,10.9c0,0,5.7,3.9,9.7,1.8L389.7,244.6z"/>
		<path class="st17" d="M372.5,235.1l-0.4,9.2l8.3,2.9l1-10.9L372.5,235.1z"/>
		<path class="st8" d="M419.4,249.5l-4.1-20.6l15.3-10.6c0.6,7.8,1.8,25.4,1.8,32.9c0,9.4-5.3,9.4-10,10.6
			c-3.8,0.9-21.2-4.7-29.4-7.6l3.5-9.4C396.5,244.8,412.4,248.3,419.4,249.5z"/>
		<path class="st21" d="M419.4,249.5l-4.1-20.6l15.3-10.6c0.6,7.8,1.8,25.4,1.8,32.9c0,9.4-5.3,9.4-10,10.6
			c-3.8,0.9-21.2-4.7-29.4-7.6l3.5-9.4C396.5,244.8,412.4,248.3,419.4,249.5z"/>
	</g>
</g>
</svg>
