<?xml version="1.0" encoding="utf-8"?>
<!-- Generator: Adobe Illustrator 21.0.0, SVG Export Plug-In . SVG Version: 6.00 Build 0)  -->
<svg version="1.1" id="Слой_1" xmlns="http://www.w3.org/2000/svg" xmlns:xlink="http://www.w3.org/1999/xlink" x="0px" y="0px"
	 viewBox="0 0 560 595" style="enable-background:new 0 0 560 595;" xml:space="preserve">
<style type="text/css">
	.st0{fill:none;}
	.st1{fill:#F5F5F5;}
	.st2{fill:#E0E0E0;}
	.st3{fill:#F2F2F2;}
	.st4{opacity:0.1;}
	.st5{opacity:0.1;enable-background:new    ;}
	.st6{fill:#FFFFFF;}
	.st7{opacity:0.2;}
	.st8{fill:#9A4A4D;}
	.st9{fill:#FFA8A7;}
	.st10{fill:#37474F;}
	.st11{fill:#F0F0F0;}
	.st12{fill:#B16668;}
	.st13{fill:#263238;}
	.st14{fill:#38AEFF;}
	.st15{fill:#F28F8F;}
	.st16{opacity:0.2;enable-background:new    ;}
	.st17{fill:#27DEBF;}
	.st18{opacity:0.3;fill:#FFFFFF;enable-background:new    ;}
	.st19{fill:#455A64;}
</style>
<path class="st0" d="M588-18H-21v609h609V-18z"/>
<path class="st1" d="M287,537.7c150.5,0,272.4-66.3,272.4-148.1c0-81.8-122-148.1-272.4-148.1S14.6,307.8,14.6,389.6
	C14.6,471.4,136.6,537.7,287,537.7z"/>
<path class="st2" d="M424.9,371.8c31.4,0,56.8-14.7,56.8-32.8c0-18.1-25.4-32.8-56.8-32.8c-31.4,0-56.8,14.7-56.8,32.8
	C368,357.1,393.5,371.8,424.9,371.8z"/>
<path class="st2" d="M117.5,454.9c31.4,0,56.8-14.7,56.8-32.8c0-18.1-25.4-32.8-56.8-32.8c-31.4,0-56.8,14.7-56.8,32.8
	C60.7,440.2,86.2,454.9,117.5,454.9z"/>
<path class="st3" d="M510.2,327.5l-8.2-4.7c0,0-3.9-21.7-1-40.3c4.1-26.2,22-35.3,28.5-32.6c6.5,2.6,8,10.4-3.7,25.5
	C518.9,284.3,510,303.2,510.2,327.5z"/>
<g class="st4">
	<path class="st5" d="M510.2,327.5l-8.2-4.7c0,0-3.9-21.7-1-40.3c4.1-26.2,22-35.3,28.5-32.6c6.5,2.6,8,10.4-3.7,25.5
		C518.9,284.3,510,303.2,510.2,327.5z"/>
</g>
<path class="st6" d="M506.3,316.8C506.3,316.8,506.4,316.8,506.3,316.8c0.2,0,0.4-0.1,0.5-0.2c0.1-0.1,0.1-0.3,0.1-0.4
	c-2.7-24.6,8-51.2,19.4-61.7c0.1-0.1,0.1-0.1,0.1-0.2c0-0.1,0-0.1,0.1-0.2c0-0.1,0-0.2,0-0.2c0-0.1-0.1-0.1-0.1-0.2
	c-0.1-0.1-0.1-0.1-0.2-0.1c-0.1,0-0.1,0-0.2-0.1c-0.1,0-0.2,0-0.2,0c-0.1,0-0.1,0.1-0.2,0.1c-11.6,10.7-22.5,37.7-19.7,62.7
	c0,0.1,0.1,0.3,0.2,0.4C506,316.7,506.2,316.8,506.3,316.8z"/>
<path class="st1" d="M533,340.6c1.3,0.7,4-0.9,5-1.6c1.8-1.2,3.2-2.8,4.1-4.7c1.1-2.2,1.4-4.6,1-7c-0.2-1.3-0.5-2.5-0.9-3.7
	c-0.3-1.2-0.7-2.4-1-3.6c-0.4-1.2-0.6-2.4-0.5-3.6c0.3-2.5,2.5-4.2,4.5-5.7c2.2-1.6,4.5-3.8,4.5-6.8c-0.2-2.3-1.1-4.5-2.6-6.2
	c-1.4-1.8-3.1-3.4-4.4-5.3c-1-1.3-1.5-2.9-1.5-4.6c0.1-1,0.5-2,1-2.9c1.2-1.8,2.3-3.8,3.1-5.8c0.7-2.1,0.6-4.6-1-6.1
	c-0.7-0.5-1.5-0.9-2.4-1.1c-0.9-0.2-1.8-0.3-2.7-0.1c-1.7,0.2-3.3,0.8-4.7,1.7c-4.7,2.6-7.4,8.2-12.4,10.2c-2,0.6-4,1.1-6,1.5
	c-1,0.2-2,0.6-2.8,1.2c-0.9,0.6-1.6,1.3-2.1,2.2c-1.8,3.7,1.6,8.2,0.3,12c-1.1,3.4-4.5,4.8-6.3,7.8c-0.8,1.4-1.1,2.9-0.9,4.5
	c0.2,2.6,0.8,5.2,1.9,7.6c1.2,2.4,2.6,4.7,4.2,6.8C510.3,327.6,532.8,340.5,533,340.6z"/>
<path class="st6" d="M519.7,333.5L519.7,333.5c0.1,0,0.2,0,0.2-0.1c0.1,0,0.1-0.1,0.2-0.1c0.1-0.1,0.1-0.1,0.1-0.2
	c0-0.1,0-0.1,0-0.2c-1-23.2,10-48.9,17.9-56.3c0.1-0.1,0.1-0.1,0.1-0.2c0-0.1,0-0.1,0.1-0.2c0-0.1,0-0.2,0-0.2
	c0-0.1-0.1-0.1-0.1-0.2c-0.1-0.1-0.1-0.1-0.2-0.1c-0.1,0-0.1,0-0.2-0.1c-0.1,0-0.2,0-0.2,0c-0.1,0-0.1,0.1-0.2,0.1
	c-8.1,7.6-19.3,33.7-18.3,57.2c0,0.2,0.1,0.3,0.2,0.4C519.4,333.5,519.5,333.5,519.7,333.5z"/>
<path class="st6" d="M523.1,306.1c0.1,0,0.1,0,0.2,0c5.5-1.5,11.2-2.4,16.9-2.7c0.2,0,0.3-0.1,0.4-0.2c0.1-0.1,0.2-0.3,0.2-0.4
	c0-0.1,0-0.2,0-0.2c0-0.1-0.1-0.1-0.1-0.2c-0.1-0.1-0.1-0.1-0.2-0.1s-0.1,0-0.2,0c-5.8,0.3-11.6,1.2-17.2,2.8
	c-0.1,0-0.2,0.1-0.3,0.2c-0.1,0.1-0.1,0.3-0.1,0.4c0,0.1,0.1,0.3,0.2,0.4C522.9,306,523,306.1,523.1,306.1z"/>
<path class="st1" d="M38,353.9l8.2-4.7c0,0,4-21.7,1-40.3c-4.1-26.2-22-35.3-28.5-32.6c-6.5,2.6-8,10.4,3.7,25.5
	C29.3,310.6,38.2,329.5,38,353.9z"/>
<g class="st7">
	<path class="st5" d="M38,353.9l8.2-4.7c0,0,4-21.7,1-40.3c-4.1-26.2-22-35.3-28.5-32.6c-6.5,2.6-8,10.4,3.7,25.5
		C29.3,310.6,38.2,329.5,38,353.9z"/>
</g>
<path class="st6" d="M42.4,352.6L42.4,352.6c-0.2,0-0.3-0.1-0.5-0.2c-0.1-0.1-0.2-0.3-0.2-0.4c1.9-36.5-3.2-57.3-17.2-69.7
	c-0.1-0.1-0.2-0.3-0.2-0.4c0-0.2,0-0.3,0.2-0.4c0.1-0.1,0.3-0.2,0.4-0.2c0.2,0,0.3,0,0.4,0.1C39.7,294,44.9,315.1,43,352
	c0,0.2-0.1,0.3-0.2,0.4C42.7,352.6,42.5,352.6,42.4,352.6z"/>
<path class="st1" d="M40.5,352.4c0.2-7.8-4.4-33.8-19.8-43.3s-22.8,2.3-16.6,9.5c4.6,5.2,13.1,9,21.1,19.8
	c5.5,7.4,8.6,17.9,8.6,17.9L40.5,352.4z"/>
<path class="st6" d="M37.7,355.5c-0.2,0-0.3-0.1-0.4-0.2c-0.1-0.1-0.2-0.2-0.2-0.4c-1.5-19.8-12.7-37.6-27.3-43.2
	c-0.2-0.1-0.3-0.2-0.3-0.3c-0.1-0.1-0.1-0.3,0-0.5c0.1-0.2,0.2-0.3,0.3-0.3c0.1-0.1,0.3-0.1,0.5,0c15,5.8,26.6,24,28.1,44.3
	c0,0.2,0,0.3-0.1,0.4C38.1,355.4,37.9,355.5,37.7,355.5L37.7,355.5z"/>
<path class="st8" d="M347.4,146.2c1.9,1.5,4,2.3,6.4,4.7c1.5,1.8,3.5,3.1,5.7,3.9c2.8,1.1,5.5,0.8,13.3-0.5
	c9.5-1.5,13.6-3.1,17.8-6.6c4.8-4.1,15.6-16.5,20.8-21.4c5.5-5.1,13.1-3.2,13.1-3.2c-2.3,7.6-5.8,14.8-10.3,21.4
	c-4.2,5.9-12,11.6-15.5,14.5c-5.6,4.7-8.6,6.5-21,7.5c-9.3,0.7-10.6,0.9-18.2,0.7c-2.8-0.1-4.5-0.1-9-0.5c-2-0.1-3.9-0.5-5.8-1
	c-2.1-0.5-4.2-1.3-6.1-2.4c-2.5-1.6-4.5-3.8-5.8-6.5c-0.7-1.5-1.1-3-1.1-4.7c0-1.6,0.6-3.2,1.7-4.4c0.2-0.3,0.5-0.5,0.8-0.6
	c0.6-0.1,1.2,0,1.7,0.4c2.9,1.5,5.9,3.6,8.9,4.8c2.6,1,4.6,1.3,4.4,0.8c-0.2-0.5-1.8-1-3.4-2.8c-1.5-1.7-2-4.3-1-5.1
	C345.7,144.5,345.6,144.7,347.4,146.2z"/>
<path class="st2" d="M426.6,123.2c-2.9-1.4-6.3-1.8-9.5-1c-4.8,1.4-8.7,4.5-13.3,9.5c-4.6,4.9-12.3,12.9-12.3,12.9
	s3.8,9.7,12.4,13.1l18-16.6L426.6,123.2z"/>
<path class="st2" d="M403.9,157.6c-8.6-3.4-12.4-13.1-12.4-13.1c-1.1,2.7-6.3,5-16,8c0,0-4.3,10.1,0,15.2c4.3,0.2,9.9,0.4,16-3
	C397.7,161.3,403.9,158.3,403.9,157.6z"/>
<path class="st9" d="M453,339.4h-10.9v18.7H453V339.4z"/>
<path class="st9" d="M422.8,344.1l-10.9,0.4l-0.6-19.7l11.4-0.4L422.8,344.1z"/>
<path class="st10" d="M457.6,200.1c0,10.4-1.8,70.9-1.8,70.9c0.3,3,3.1,8.3,3.4,19.1c0.3,15.6-5.7,58.6-5.7,58.6
	c-1.9,0.9-3.9,1.4-6,1.5c-2.1,0-4.2-0.4-6.1-1.2c0,0-4.9-58.2-6.9-73.7c-1.7-13.5-4.6-50.2-4.6-50.2l-5.1,44.1
	c1.3,5.7,1.7,11.5,1.4,17.3c-0.5,7.2-2.5,51.5-2.5,51.5c-1.9,1.1-4,1.7-6.2,1.9c-2.2,0.2-4.4-0.1-6.4-0.9c0,0-7.7-63.2-7.8-69.8
	c-0.1-7.5,2.8-84,2.8-84L457.6,200.1z"/>
<path class="st11" d="M450.5,123.5c2.4,1.1,4.3,3,5.3,5.5c1.1,3,1.7,6.2,1.6,9.4v21.4l0.3,40.3c-15.6,8.2-35.5,8.8-52.2-3.4
	c0,0,0.9-51.9,0.9-60.4c0-0.4,0-0.8,0-1.2c0.6-12.1,12.5-20.4,24.3-17.4l9.9,2.5L450.5,123.5L450.5,123.5z"/>
<path class="st12" d="M442.4,95c0.9,0.5,2.2-1.2,3.4-2.4c1.1-1.2,4.8-2.8,6.7,1.1c1.9,4-1.6,9.2-4.5,10.1c-5,1.6-5.8-1.6-5.8-1.6
	l-0.4,18.6c-6.2,8-23.5,7.3-16.3-1l0-5.5c-2.2,0.4-4.5,0.5-6.8,0.3c-3.7-0.6-6-3.5-7.1-7.5c-1.8-6.4-2.5-11.6-1-24.2
	c1.7-13.8,17.7-13.9,26.4-8.5C445.7,79.9,442.4,95,442.4,95z"/>
<path class="st13" d="M446.6,89.6c-0.6-1.9-0.2-3.9,0.3-5.8c0.5-1.9,1.1-3.8,1-5.7c-0.1-2-1.1-4-3-4.6c-1.3-0.4-2.8-0.1-4.1-0.5
	c-1.4-0.4-2.4-1.5-3.4-2.5c-3.9-3.6-8.8-6.1-14-7c-1.5-0.3-3.1-0.4-4.5,0.2c-1.4,0.6-2.4,2.3-1.9,3.8c-2-1.1-4-2.3-6.2-2.6
	c-2.2-0.3-4.7,0.4-6,2.3c-1.2,1.9-0.4,5,1.7,5.5c-2.5,0.3-4.2,3.4-3.6,5.9c0.6,2.5,3,4.3,5.5,4.9c2.5,0.5,5.1,0,7.6-0.9
	c2.4-0.9,4.7-2.2,7.1-3.1c1.5,2.2,4.4,3.2,7,3.1c2.7-0.1,5.2-1.2,7.7-2.3c-0.2,2.8-0.4,5.7,0.7,8.3c0.5,1.1,1.1,2,1.5,3.1
	c0.4,1.5,0.1,3.1,0.2,4.6c0.1,1.6,1,3.3,2.5,3.5c1.4,0.2,2.7-0.9,3.1-2.3c0.5-1.3,0.3-2.8,0.2-4.2C446,91.9,447.3,90.8,446.6,89.6z"
	/>
<path class="st8" d="M425.5,114.2c0,0,8.2-1.7,11.1-3.2c1.7-0.9,3.1-2.3,4-3.9c-0.4,1.7-1.2,3.3-2.3,4.6c-2.1,2.7-12.8,4.7-12.8,4.7
	V114.2z"/>
<path class="st13" d="M425.9,92.9c0,0.3,0.1,0.6,0.3,0.9c0.2,0.3,0.5,0.5,0.8,0.6c0.3,0.1,0.6,0.1,0.9,0.1c0.3-0.1,0.6-0.2,0.8-0.5
	c0.2-0.2,0.4-0.5,0.4-0.8c0.1-0.3,0-0.6-0.1-0.9c-0.1-0.3-0.3-0.6-0.6-0.7c-0.3-0.2-0.6-0.3-0.9-0.3c-0.2,0-0.4,0.1-0.6,0.1
	c-0.2,0.1-0.4,0.2-0.5,0.4c-0.2,0.2-0.3,0.3-0.4,0.6C425.9,92.5,425.9,92.7,425.9,92.9z"/>
<path class="st13" d="M427.7,86.7l3.5,1.9c0.2-0.5,0.3-1,0.2-1.6c-0.2-0.5-0.5-1-1-1.2c-0.2-0.1-0.5-0.2-0.8-0.2
	c-0.3,0-0.5,0-0.8,0.1c-0.3,0.1-0.5,0.2-0.7,0.4C427.9,86.3,427.8,86.5,427.7,86.7z"/>
<path class="st8" d="M426.2,104.3l-3.8,1.4c0.1,0.3,0.2,0.5,0.4,0.7c0.2,0.2,0.4,0.4,0.6,0.5c0.2,0.1,0.5,0.2,0.8,0.2
	c0.3,0,0.5,0,0.8-0.1c0.5-0.2,0.9-0.6,1.1-1.1C426.4,105.4,426.4,104.8,426.2,104.3z"/>
<path class="st13" d="M411.7,88.1l3.2-2.5c-0.2-0.2-0.3-0.4-0.6-0.5s-0.5-0.2-0.7-0.3c-0.3,0-0.5,0-0.8,0c-0.3,0.1-0.5,0.2-0.7,0.3
	c-0.4,0.3-0.7,0.8-0.8,1.4C411.2,87.1,411.4,87.6,411.7,88.1z"/>
<path class="st13" d="M412.7,92.5c0,0.3,0.1,0.6,0.3,0.9c0.2,0.3,0.5,0.5,0.8,0.6c0.3,0.1,0.6,0.1,0.9,0.1c0.3-0.1,0.6-0.2,0.8-0.5
	c0.2-0.2,0.4-0.5,0.4-0.8c0.1-0.3,0-0.6-0.1-0.9c-0.1-0.3-0.3-0.6-0.6-0.7c-0.3-0.2-0.6-0.3-0.9-0.3c-0.2,0-0.4,0.1-0.6,0.1
	c-0.2,0.1-0.4,0.2-0.5,0.4c-0.2,0.2-0.3,0.3-0.4,0.6C412.7,92,412.7,92.3,412.7,92.5z"/>
<path class="st8" d="M421.1,90.9l-0.5,9.9l-5.2-1.8L421.1,90.9z"/>
<path class="st13" d="M442.1,352.7v-1.6c-1,0.5-3.5,9.7-7.8,13.6c-3.4,3.1-8.1,6.8-9.3,10.3c-1.2,3.6,6.5,5.6,9.7,5.1
	c3.7-0.7,10.2-3.3,11.8-5.7c1.6-2.4,2.4-6,3.7-7.8c1.3-1.8,4.4-3.8,5.1-5.8c0.4-1.1-0.1-3.6-0.6-5.7c-0.5-1.9-1.1-4-1.7-3.9
	c0,0.2,0,1.2,0,1.2c-1.6,1.2-3.5,1.9-5.4,1.8C445.9,354.2,442.1,353.9,442.1,352.7z"/>
<path class="st13" d="M411.8,341.1c-0.6,0-1,0.8-2.3,2.2c-1.9,1.9-4,3.4-6.4,4.6c-4.1,2-12,5.2-15.6,6.8c-2.2,1-2.1,3.7,0.2,5.3
	c2.3,1.5,7.9,2.7,14.6,1.1c3.7-0.8,8.4-4.2,11.4-4c3,0.2,8.7,0.1,10.9-1.4s1.3-4.8,0.7-7.6c-0.7-3.1-1.5-7.9-2.6-7.7v1.1
	c-1.3,2-8.1,2.8-10.9,1.3L411.8,341.1z"/>
<path class="st13" d="M429.8,225c-5.6-1.8-10.8-4.7-15.2-8.7c0,0,2.9,5.5,11.6,10.6l-1.2,38.5L429.8,225z"/>
<path class="st13" d="M106.6,135.7h3.9c5.8,0,11.3,2.3,15.4,6.4c4.1,4.1,6.4,9.6,6.4,15.4v46.3H84.8v-46.3c0-5.8,2.3-11.3,6.4-15.4
	C95.2,138,100.8,135.7,106.6,135.7L106.6,135.7z"/>
<path class="st9" d="M101.8,431.3c-1-0.9-2.1-1.8-3-2.7c-3-2.7-5.2-7.3-6.5-10.4c-0.7-1.8-1.1-3.7-1.1-5.6v-6.1H80.4v9.9v0.3l0.1,0
	c0.5,2.2,5.4,8.1,8.2,12c1.9,2.6,5.4,5.9,9.7,6.4C102.3,435.6,104.4,434.4,101.8,431.3z"/>
<path class="st13" d="M137.6,414.7c3.2,2.5,6.7,4.6,10.3,6.5c0.6,0.2,1.1,0.6,1.5,1.1c0.6,0.8,1.6,2.9-2.2,5c-1.9,1-4,1.7-6.2,1.8
	c-2.2,0.1-4.4-0.2-6.4-1c-3.7-1.6-4.5-5.9-8.1-7.9c-2.6-1.5-5.6-1.5-7.9-3.6c-1.6-1.5-1.6-3.8-1.4-6.6c0.2-3.1,1.4-5.6,1.2-5.4
	l1.3,1.2c1.6,1.8,6.8,1.5,9.4-0.3C131.8,408.7,134.6,411.8,137.6,414.7z"/>
<path class="st9" d="M140.8,418.7L140.8,418.7c-1-0.7-2.1-1.5-3.1-2.3c-2.2-2.1-4.2-4.3-6.1-6.7c-1.2-1.4-1.8-3.1-1.8-5l0-7.1
	l-10.5,0.5l0.5,9.8c0.1,2.2,2.2,3.9,5.8,6.2c3.6,2.3,8.6,8.1,11.6,9.3c3.1,1.2,5.1,0.8,6.1-0.2C144.3,422.1,144.3,421.4,140.8,418.7
	z"/>
<path class="st13" d="M91.1,414.8l0-1.5c1,0.4,3.4,9.5,7.7,13.4c3.4,3.1,8,6.6,9.2,10.1c1.2,3.6-6.4,5.5-9.6,5
	c-3.7-0.6-10-3.2-11.6-5.6c-1.6-2.4-2.3-5.9-3.6-7.7c-1.3-1.8-4.3-3.7-5-5.7c-0.4-1.1,0.1-3.6,0.6-5.6c0.5-1.9,1-4,1.7-3.8
	c0,0.2,0,1.2,0,1.2c1.5,1.2,3.4,1.8,5.4,1.8C87.4,416.3,91.2,416,91.1,414.8z"/>
<path class="st9" d="M101.3,431.3c-1-0.9-2-1.8-3-2.6c-2.8-2.9-4.9-6.4-6.3-10.2c-0.7-1.7-1.1-3.6-1.1-5.5v-5.9H80.5v9.7v0.3l0.1,0
	c0.5,2.2,5.3,7.9,8,11.7c2.2,3.2,5.6,5.5,9.4,6.3C101.9,435.5,103.9,434.3,101.3,431.3z"/>
<path class="st10" d="M82.6,250.8c-8.3,18.1,0.3,81.8,0.3,81.8c-0.2,2.9-3.6,8.7-4.9,21.6c-1.5,15.3,2.3,53.6,2.3,53.6
	c1.6,0.9,3.5,1.5,5.3,1.6c1.9,0.1,3.8-0.3,5.4-1.1c0,0,10.2-57.7,12.1-72.9c1.7-13.2,4.9-42.4,4.9-42.4l6.4,42.3
	c-1.3,4.3-2.3,8.6-2.9,13.1c-0.9,8.9,7.8,50.5,7.8,50.5s3.7,1.4,10.7,0.3c0,0,3.1-55.1,3.9-65.9c1.4-18.1-0.7-74.4-4-85.1
	L82.6,250.8z"/>
<path class="st13" d="M108.1,293l2.7-16.8c0,0,11.4-2.4,16.5-7.2c0,0-5.4,6.7-13.4,8.9l-3,12.9l2.7,38.4L108.1,293z"/>
<path class="st9" d="M118,187.5c2.6-0.2,5.2,0.2,7.6,1.3c2.4,1.1,4.4,2.7,6,4.8c4.3,5.6,15.5,28.4,15.5,28.4s24.7-1.7,25.9-3.1
	c1.2-1.4,0.5-4.3,0.2-5.9c-0.3-1.6-0.9-5.1-1.2-6.1c-0.6-1.7,1.9-1.3,3.5,0.4c1.5,1.7,2.2,4.8,2.9,5.3c0.8,0.5,6.5-6.1,9.3-9.2
	c2.8-3.2,4.1-5.4,6-4.1c1.3,0.9,0.5,2.8-1.5,5.6c-0.9,1.1-1.8,2.4-2.6,3.6c-0.2,0.5,0.5,0.9,0.8,1.1c0.5,0.5,1.5,1.3,1.6,2
	c0,0.4,0,0.8,0.1,1.2c0.3,0.9,1.4,1.3,1.7,2.2c0.2,0.6,0,1.4,0.1,2c0.1,0.4,0.3,0.8,0.4,1.3c0,0.4,0,0.9-0.2,1.3
	c-0.2,0.4-0.4,0.8-0.7,1.1c-2,2.3-4.6,3.2-7.2,4.6c-2.1,1.2-4.3,1.7-6.8,2.8s-32.5,8.9-37,6.4c-4.5-2.5-21.7-29.6-21.7-29.6
	C113.9,193.8,118,187.5,118,187.5z"/>
<path class="st14" d="M116,187.2c4.2-1.7,14.6,2,17.9,8.4c2.6,5.1,10.7,20.9,10.7,20.9s-1.8,6.9-11.3,7.8l-3.8-5.5L116,187.2z"/>
<path class="st5" d="M116,187.2c4.2-1.7,13.5,1,17.9,8.4c2.6,5.1,10.7,20.9,10.7,20.9s-1.8,6.9-11.3,7.8l-3.8-5.5L116,187.2z"/>
<path class="st14" d="M100.4,188c-10.6,0.7-11.4,5.9-14,11.5c-2,4.3-1.4,9.4,0.2,13.8l6.7,21.3c0,0-3.5,8.4-7.5,16.3
	c18.6,10.4,41.7,4.9,47.3-2.6c0.2-1.6-1.2-14.1-2.1-22.3c3.3-8.2,4.1-13.4,2.8-18.8c-2.6-10.1-12.5-19.9-16.9-19.5L100.4,188z"/>
<path class="st13" d="M83.6,145.5l3.2,5.2c-0.3,0.2-0.7,0.4-1.1,0.5c-0.4,0.1-0.8,0.1-1.2,0c-0.4-0.1-0.8-0.2-1.1-0.5
	c-0.3-0.2-0.6-0.5-0.8-0.9c-0.4-0.7-0.6-1.5-0.4-2.4C82.4,146.7,82.9,146,83.6,145.5z"/>
<path class="st9" d="M124.5,145.3c2.5,1.5,5.6,7.8,5.3,21c-0.3,11.2-3.9,14-5.7,14.8c-1.8,0.8-5.3,0.3-8.8-0.3v6.7
	c0,0,4.7,5.5,4.4,8.6c-0.3,3.1-6.8,3.8-11.3,0.8c-2.9-2.1-5.3-4.6-7.3-7.6v-16.3c0,0-2.3,3.1-6.1,0.6s-3.9-8.7-1.7-10.9
	c2.2-2.2,6.9-1.5,7.8,1.6c0,0,5.5,0.2,12.7-3.8c2.8-1.5,5.3-3.7,7.1-6.3C122.8,151.5,124,148.5,124.5,145.3z"/>
<path class="st13" d="M116,163.5c0,0.3-0.1,0.5-0.2,0.8c-0.2,0.2-0.4,0.4-0.6,0.5c-0.3,0.1-0.5,0.1-0.8,0.1c-0.3,0-0.5-0.2-0.7-0.4
	c-0.2-0.2-0.3-0.4-0.4-0.7c-0.1-0.3,0-0.6,0-0.8c0.1-0.3,0.3-0.5,0.5-0.6c0.2-0.2,0.5-0.3,0.8-0.3c0.2,0,0.4,0,0.6,0.1
	c0.2,0.1,0.3,0.2,0.5,0.3c0.1,0.1,0.2,0.3,0.3,0.5C115.9,163.1,116,163.3,116,163.5z"/>
<path class="st15" d="M117.6,173l3.3,1c-0.1,0.2-0.2,0.4-0.3,0.6c-0.1,0.2-0.3,0.3-0.5,0.4c-0.2,0.1-0.4,0.2-0.6,0.2
	c-0.2,0-0.5,0-0.7-0.1c-0.4-0.1-0.8-0.5-1-0.9C117.5,173.9,117.5,173.5,117.6,173z"/>
<path class="st13" d="M127.6,159.2l-2.9-2c0.1-0.2,0.3-0.4,0.5-0.5c0.2-0.1,0.4-0.2,0.6-0.3c0.2,0,0.4,0,0.7,0
	c0.2,0,0.4,0.1,0.6,0.3c0.4,0.3,0.6,0.7,0.7,1.1C127.9,158.3,127.8,158.8,127.6,159.2z"/>
<path class="st13" d="M126.9,162.5c0,0.3-0.1,0.5-0.2,0.8c-0.1,0.2-0.4,0.4-0.6,0.5c-0.3,0.1-0.5,0.1-0.8,0.1
	c-0.3,0-0.5-0.2-0.7-0.4c-0.2-0.2-0.3-0.4-0.4-0.7c-0.1-0.3,0-0.6,0-0.8c0.1-0.3,0.3-0.5,0.5-0.6c0.2-0.2,0.5-0.3,0.8-0.3
	c0.2,0,0.4,0,0.6,0.1c0.2,0.1,0.3,0.2,0.5,0.3c0.1,0.1,0.2,0.3,0.3,0.5C126.8,162.1,126.9,162.3,126.9,162.5z"/>
<path class="st15" d="M120,161.7l0.2,8.5l4.5-1.4L120,161.7z"/>
<path class="st15" d="M115.3,180.8c-3.6-0.5-11-2.6-12.2-5.5c0.5,1.5,1.4,2.8,2.6,3.7c2.2,1.9,9.6,4,9.6,4L115.3,180.8z"/>
<path class="st5" d="M105.1,252.8c-5.1-1.2-10.2-6.7-7.9-12.1c0.7-1.5,1.8-2.8,3.2-3.6c0.5-0.3,1.1-0.4,1.7-0.4
	c0.6,0.1,1.2,0.3,1.6,0.7c-2.4-1.6-6.6-9.3-7.2-12.2l-2.9-9.5c-0.3-2.2-0.1-4.4,0.6-6.5l-7.5-8.6l-1.4,1c-1.2,3.7-0.3,8,1,11.7
	l6.7,21.3c0,0-3.5,8.4-7.5,16.3c6,3.2,12.7,5.2,19.5,5.6c6.8,0.5,13.7-0.6,20.1-3C118.7,254.5,111.8,254.3,105.1,252.8z"/>
<path class="st14" d="M192.8,464.7l-24.1-13.9c-2.5-1.5-3.9-5.2-3.9-10l-0.1-105.9l24.3,14l-0.1,106.2
	C188.9,459.8,190.4,463.2,192.8,464.7z"/>
<path class="st16" d="M192.8,464.7l-24.1-13.9c-2.5-1.5-3.9-5.2-3.9-10l-0.1-105.9l24.3,14l-0.1,106.2
	C188.9,459.8,190.4,463.2,192.8,464.7z"/>
<path class="st14" d="M193,464.8l-0.2-0.1c-2.4-1.5-3.9-4.9-3.9-9.6L189,349l-24.3-14l21-12.3l0.2-0.1l0.1,0l0,0l3-1.7l0,0l3.4-2.3
	c0,0,0.1-0.1,0.1-0.1c0,0,0.1-0.1,0.1-0.1c0.2-0.1,0.3-0.3,0.5-0.4l0.2-0.1c0.2-0.1,0.4-0.3,0.6-0.4c0.2-0.1,0.4-0.3,0.6-0.4
	c0.2-0.1,0.3-0.3,0.5-0.4l0.2-0.2l0.2-0.1c0.3-0.2,0.6-0.5,0.9-0.8c0.2-0.1,0.3-0.3,0.5-0.4l0.2-0.2c0.6-0.5,1.1-1.1,1.7-1.7
	l0.2-0.2c0.2-0.2,0.4-0.5,0.6-0.7c0.1-0.1,0.2-0.2,0.3-0.3c0.1-0.1,0.2-0.2,0.3-0.3l0.1-0.1l0.1-0.1l0.1-0.2
	c0.2-0.3,0.4-0.5,0.6-0.8c0.2-0.2,0.4-0.5,0.5-0.7l0.1-0.2l0-0.1c0.2-0.3,0.4-0.7,0.6-1c0.2-0.3,0.4-0.6,0.5-0.9l0.1-0.1
	c0.1-0.3,0.3-0.5,0.4-0.8c0.1-0.1,0.1-0.3,0.2-0.4c0.2-0.3,0.3-0.7,0.5-1l0,0c0.1-0.2,0.2-0.4,0.3-0.6c0.1-0.2,0.2-0.4,0.3-0.6
	c0.1-0.2,0.2-0.4,0.2-0.5c0.1-0.2,0.1-0.4,0.2-0.5c0.2-0.4,0.3-0.9,0.4-1.3v0c0.1-0.4,0.2-0.7,0.3-1.1c0-0.1,0-0.1,0-0.2
	c0.1-0.4,0.2-0.8,0.3-1.2l0-0.1c0.1-0.3,0.1-0.6,0.2-1l0,0c0.1-0.5,0.2-1,0.2-1.5l0-0.2c0-0.1,0-0.2,0.1-0.3c0,0,0-0.1,0-0.1
	c0-0.1,0-0.2,0.1-0.3c0.1-0.6,0.1-1.2,0.2-1.7l0-0.3c0-0.2,0-0.5,0-0.7l0,0c0-0.9,0.1-1.8,0.1-2.7v-0.1c0-0.3,0-0.5,0-0.8l0-0.3
	v-0.4c0-0.3,0-0.6,0-0.9c0-0.1,0-0.2,0-0.2c0-0.1,0-0.2,0-0.2l0-0.2l0-0.2c0-0.4-0.1-0.9-0.1-1.3l0,0l0-0.1c0-0.4-0.1-0.8-0.1-1.1
	c-0.2-1.6-0.5-3.3-1-4.9c-0.3-1-0.6-1.9-0.9-2.7c-0.7-1.9-1.2-3.9-1.5-5.9c0-0.4-0.1-0.8-0.1-1.3c0-0.4-0.1-0.9-0.1-1.4v-0.1l0-0.1
	c0-0.1,0-0.2,0-0.3c0-0.3,0-0.5,0-0.8c0-5.6,3.4-12.2,7.6-14.6c0.4-0.2,0.9-0.4,1.3-0.6c0.6-0.2,1.2-0.2,1.8-0.1
	c0.1,0,0.3,0.1,0.4,0.1c0.4,0.1,0.8,0.3,1.2,0.5l24.3,14l0,0c0.1,0.1,0.3,0.2,0.4,0.3c1.4,1.1,2.2,3.2,2.2,5.9c0,0.4,0,0.7-0.1,1.3
	v0.1l0,0.1c-0.2,3.5-0.7,7-1.7,10.4c-0.2,0.9-0.4,1.7-0.6,2.6c-0.1,0.3-0.1,0.6-0.2,0.9c-0.2,0.9-0.4,1.9-0.6,2.9
	c-0.1,0.3-0.1,0.7-0.2,1l17.1-9.7l24.3,14v14.5l0,6.9l0,6.5c0,7.8-0.6,13.1-1.8,16c-0.9,2-2.2,3.3-5.2,5c-2.4,1.5-5.1,2.3-7.9,2.3
	c-0.9,0.1-1.7,0.2-2.5,0.3c-0.3,0-0.6,0.1-1,0.2c-0.3,0.1-0.6,0.1-1,0.2c-0.6,0.1-1.2,0.3-1.8,0.5l-0.5,0.2
	c-0.9,0.3-1.8,0.7-2.7,1.2c-0.1,0-0.2,0.1-0.3,0.2l-0.1,0l-0.1,0.1c-0.4,0.2-0.7,0.4-1.1,0.6c-3.6,2.2-6.7,5.3-9,8.9
	c-1.2,1.8-2.3,3.7-3.2,5.7c-0.9,1.9-1.6,3.8-2.2,5.8c0.5-0.5,0.9-1,1.3-1.4c1.3-1.4,2.6-2.8,4-4c1.2-1,2.5-1.9,3.8-2.7
	c1.9-1.1,3.5-2,4.7-1.3l0,0l24.1,14.4v0c0.1,0.1,0.2,0.1,0.3,0.2c0.1,0.1,0.1,0.1,0.2,0.2c0,0,0.1,0.1,0.1,0.1
	c0.1,0.1,0.1,0.2,0.2,0.3c0,0,0,0,0,0.1c0.1,0.1,0.1,0.2,0.2,0.4c0.6,1.3,1,3.7,1.2,7.6c0,0.4,0,0.9,0.1,1.4c0,1.2,0.1,2.6,0.1,4.1
	l0,27.9l-79.5,45.9c-1.3,0.8-2.8,1.3-4.3,1.4c-0.5,0-1,0-1.4,0c-0.2,0-0.3,0-0.5-0.1C194.1,465.4,193.5,465.2,193,464.8z"/>
<path class="st5" d="M254,361.7L254,361.7l24.1,14.4l0,0c-1.1-0.7-2.7,0.2-4.7,1.3c-1.4,0.8-2.6,1.7-3.8,2.7c-1.4,1.3-2.8,2.6-4.1,4
	c-2.8,3.2-6,6.1-9.5,8.4c-0.5,0.3-1,0.7-1.6,1c-8.8,5.1-16-0.3-16-12.1c0-3.5,0.6-7,1.7-10.3c0.5-0.5,0.9-0.9,1.3-1.4
	c1.3-1.4,2.6-2.8,4-4c1.2-1,2.5-1.9,3.8-2.7C251.2,361.9,252.8,361,254,361.7z"/>
<path class="st5" d="M238.9,291.9l17.1-9.7l24.3,14.1l0,0l-20.9,12.1l0,0l0,0l-6.3,3.3l-0.1,0l-0.1,0c-0.1,0.1-0.3,0.1-0.4,0.2
	l-0.2,0.1c-0.4,0.2-0.7,0.3-1,0.4c-0.2,0.1-0.4,0.1-0.6,0.2l-0.2,0.1c-0.3,0.1-0.7,0.2-1,0.3c-0.2,0.1-0.5,0.1-0.7,0.2
	c-0.3,0.1-0.7,0.2-1,0.2l-0.1,0c-0.2,0-0.3,0.1-0.5,0.1c-0.4,0.1-0.8,0.1-1.2,0.1c-0.1,0-0.2,0-0.3,0c-0.5,0-0.9-0.1-1.4-0.1
	c-0.1,0-0.2,0-0.2-0.1c-0.4-0.1-0.7-0.2-1-0.4c-0.1,0-0.2-0.1-0.3-0.1l0,0c-0.3-0.2-0.6-0.4-0.9-0.6l0,0c-0.1-0.1-0.1-0.1-0.2-0.2
	c-0.3-0.3-0.6-0.6-0.9-1c0,0-0.1-0.1-0.1-0.1c-0.7-1-1.1-2.1-1.4-3.3l-0.1-0.2c-0.2-0.6-0.3-1.2-0.4-1.9l0-0.3
	c-0.1-0.7-0.2-1.5-0.2-2.3c-0.1-1-0.1-2-0.1-2.9C238.3,297.3,238.5,294.6,238.9,291.9z"/>
<path class="st5" d="M189,349l-24.3-14l21-12.3l0.2-0.1l0.1,0l0,0l3-1.7l0,0l3.4-2.3c0,0,0.1-0.1,0.1-0.1c0,0,0.1-0.1,0.1-0.1
	c0.2-0.1,0.3-0.3,0.5-0.4l0.2-0.1l0.6-0.4c0.2-0.1,0.4-0.3,0.6-0.4c0.2-0.1,0.3-0.3,0.5-0.4l0.2-0.2l0.2-0.1
	c0.3-0.2,0.6-0.5,0.9-0.8c0.2-0.1,0.3-0.3,0.5-0.4l0.2-0.2c0.6-0.5,1.1-1.1,1.7-1.7l0.2-0.2c0.2-0.2,0.4-0.5,0.6-0.7
	c0.1-0.1,0.2-0.2,0.3-0.3c0.1-0.1,0.2-0.2,0.2-0.3l0.1-0.1l0.1-0.1l0.1-0.2c0.2-0.3,0.4-0.5,0.6-0.8c0.2-0.2,0.4-0.5,0.5-0.7
	l0.1-0.2l0-0.1c0.2-0.3,0.4-0.7,0.6-1c0.2-0.3,0.4-0.6,0.5-0.9l0.1-0.1c0.1-0.3,0.3-0.5,0.4-0.8c0.1-0.1,0.1-0.3,0.2-0.4
	c0.1-0.3,0.3-0.7,0.5-1l0,0c0.1-0.2,0.2-0.4,0.3-0.6c0.1-0.2,0.2-0.4,0.3-0.6c0.1-0.2,0.1-0.4,0.2-0.6c0.1-0.2,0.1-0.4,0.2-0.5
	c0.2-0.4,0.3-0.9,0.4-1.3v0c0.1-0.4,0.2-0.7,0.3-1.1c0-0.1,0-0.1,0-0.2c0.1-0.4,0.2-0.8,0.3-1.2l0-0.1c0.1-0.3,0.1-0.7,0.2-1l0,0
	c0.1-0.5,0.2-1,0.2-1.5l0-0.3c0-0.1,0-0.2,0.1-0.3c0,0,0-0.1,0-0.1c0-0.1,0-0.2,0-0.4c0.1-0.6,0.1-1.2,0.2-1.7l0-0.3
	c0-0.2,0-0.4,0-0.7l0,0c0-0.9,0.1-1.8,0.1-2.7v-0.1c0-0.3,0-0.5,0-0.8l0-0.3v-0.4c0-0.3,0-0.6,0-0.9c0-0.1,0-0.2,0-0.2
	c0-0.1,0-0.2,0-0.2l0-0.2l0-0.2c0-0.4-0.1-0.9-0.1-1.3l0-0.1l0,0c0-0.4-0.1-0.7-0.1-1.1c-0.2-1.6-0.5-3.3-1-4.9
	c-0.3-1-0.6-1.9-0.9-2.7c-0.7-1.9-1.2-3.9-1.5-5.9c0-0.4-0.1-0.8-0.1-1.3c0-0.4-0.1-0.9-0.1-1.4l0-0.1V268c0-0.1,0-0.2,0-0.4
	c0-0.3,0-0.5,0-0.8c0-5.6,3.4-12.2,7.6-14.6c0.4-0.2,0.9-0.4,1.3-0.6c0.3-0.1,0.6-0.1,0.9-0.1c0.3,0,0.6,0,0.9,0
	c0.1,0,0.3,0.1,0.4,0.1c0.4,0.1,0.8,0.3,1.2,0.5l24.3,14c-0.5-0.3-1.1-0.5-1.7-0.5c-0.4,0-0.9,0-1.3,0.1c-0.7,0.2-1.4,0.4-2,0.8
	c-0.7,0.4-1.4,1-2.1,1.6c-1.7,1.7-3.1,3.7-4,5.9c-0.2,0.5-0.4,1-0.6,1.5c-0.2,0.7-0.4,1.4-0.6,2.1c-0.3,1.2-0.4,2.3-0.4,3.5
	c0,0.3,0,0.7,0.1,1.1l0,0.1v0.1c0,2,0.3,3.9,0.8,5.8c0.1,0.3,0.2,0.6,0.2,0.9c0.2,0.6,0.4,1.2,0.6,1.8c0.3,0.8,0.6,1.7,0.9,2.7
	c0.1,0.3,0.2,0.7,0.3,1c0.1,0.3,0.2,0.7,0.3,1.1c0.3,1.3,0.5,2.6,0.6,3.8l0,0.1l0,0c0,0.2,0,0.4,0,0.6c0,0.2,0,0.4,0,0.7l0,0.2
	l0,0.2c0,0.2,0,0.3,0,0.5c0,0.1,0,0.3,0,0.4c0,0.2,0,0.3,0,0.4v0.4v0.3c0,0.2,0,0.5,0,0.7l0,0.1v0c0,0.5,0,0.9,0,1.4
	c0,0.4,0,0.9-0.1,1.3c0,0.2,0,0.5-0.1,0.7l0,0.3c0,0.6-0.1,1.2-0.2,1.7c0,0.3-0.1,0.5-0.1,0.8l0,0.2l0,0c-0.1,0.5-0.2,1-0.3,1.5
	c-0.1,0.3-0.1,0.7-0.2,1l0,0.1c-0.1,0.2-0.1,0.5-0.2,0.7c-0.1,0.2-0.1,0.5-0.2,0.7c0,0.1,0,0.2-0.1,0.3c-0.1,0.3-0.2,0.6-0.3,0.8
	l0,0c-0.1,0.4-0.3,0.9-0.4,1.3c-0.1,0.4-0.3,0.7-0.4,1.1c-0.2,0.4-0.4,0.8-0.5,1.2l-0.5,1l0,0c-0.1,0.2-0.2,0.4-0.3,0.6
	c-0.1,0.2-0.2,0.4-0.3,0.6l-0.1,0.1c-0.1,0.1-0.2,0.3-0.3,0.4l-0.1,0.1c-0.1,0.1-0.1,0.2-0.2,0.3c-0.2,0.3-0.4,0.7-0.6,1l0,0.1
	l-0.1,0.2c-0.1,0.1-0.2,0.3-0.3,0.4c-0.1,0.1-0.2,0.2-0.3,0.4l-0.2,0.3c-0.1,0.2-0.3,0.4-0.4,0.5l-0.1,0.2L224,326
	c-0.1,0.1-0.2,0.2-0.3,0.3c0,0-0.1,0.1-0.1,0.1c-0.1,0.1-0.1,0.2-0.2,0.2c-0.1,0.1-0.2,0.2-0.3,0.4c-0.1,0.1-0.2,0.2-0.3,0.3
	l-0.2,0.2c-0.5,0.6-1.1,1.1-1.7,1.7l-0.2,0.2c-0.2,0.1-0.3,0.3-0.5,0.4c-0.3,0.3-0.6,0.5-0.9,0.8l-0.2,0.1l-0.1,0.1l-0.1,0.1
	c-0.2,0.1-0.3,0.3-0.5,0.4c-0.4,0.3-0.8,0.6-1.2,0.9l-0.2,0.1c-0.2,0.1-0.3,0.2-0.5,0.4c-0.1,0.1-0.2,0.1-0.3,0.2l-3.4,2.3l-3,1.7
	l-0.1,0.1l-0.2,0.1L189,349z"/>
<path class="st17" d="M281.9,349.1l-25.9-15c0.2-0.3,0.4-0.5,0.6-0.8l0.1-0.1c0.1-0.1,0.2-0.3,0.3-0.4c0.4-0.6,0.8-1.2,1.2-1.9
	l0.1-0.2c0.4-0.7,0.7-1.4,1.1-2.2c0.1-0.2,0.2-0.4,0.2-0.6l0-0.1c0.2-0.4,0.4-1,0.6-1.5c0.1-0.3,0.2-0.5,0.3-0.8l0-0.2
	c0.2-0.4,0.3-0.9,0.4-1.3c0.1-0.4,0.2-0.7,0.3-1.1c0.1-0.4,0.2-0.8,0.3-1.2c0.1-0.4,0.2-0.8,0.2-1.2s0.1-0.8,0.2-1.2l0-0.2
	c0.1-0.4,0.1-0.8,0.2-1.1c0-0.2,0.1-0.5,0.1-0.7l0-0.2c0.3-1.9,0.4-4,0.6-6.2l0-0.1l0,0v-0.1l0,0l0.1-6l0,0l0,0v-0.2v-0.3v-27.9
	l25.8,15.1l0,0v27.9v0.3v0.2v0.1v0l-0.1,6v0l0,0v0.1l0,0.1c-0.1,2.2-0.3,4.3-0.5,6.2l0,0.3c0,0.2-0.1,0.5-0.1,0.7
	c-0.1,0.4-0.1,0.8-0.2,1.1l0,0.2c-0.1,0.4-0.1,0.8-0.2,1.1c-0.1,0.4-0.2,0.8-0.3,1.2c-0.1,0.4-0.2,0.8-0.3,1.2
	c-0.1,0.4-0.2,0.7-0.3,1.1c-0.1,0.4-0.3,0.9-0.4,1.3l-0.1,0.2c-0.1,0.3-0.2,0.5-0.3,0.8c-0.2,0.6-0.4,1.1-0.6,1.5l-0.1,0.1l-0.2,0.6
	c-0.4,0.8-0.7,1.5-1.1,2.2l-0.1,0.2c-0.4,0.6-0.7,1.2-1.2,1.9c-0.1,0.1-0.2,0.3-0.3,0.4l0,0.1C282.2,348.7,282,348.9,281.9,349.1z"
	/>
<path class="st17" d="M262.9,398.5L263,375l-0.4,0.4c1.1-1.2,2.1-2.2,3.1-3.3l0.2-0.2l0.3-0.3l0.1-0.1c2-2,4.3-3.7,6.8-5.1l0,0
	l0.3-0.1l0.1,0l0.2-0.1l0,0c0.6-0.3,1.2-0.6,1.7-0.9c0.2-0.1,0.3-0.2,0.5-0.2l0.2-0.1c0.4-0.2,0.8-0.3,1.2-0.5
	c0.2-0.1,0.4-0.1,0.6-0.2l0.1,0c0.3-0.1,0.7-0.2,1-0.2c0.3,0,0.5-0.1,0.7-0.1c0.3,0,0.6-0.1,0.9-0.1c0.2,0,0.5,0,0.7,0
	c0.3,0,0.5,0.1,0.8,0.1l0.1,0c0.2,0,0.3,0.1,0.5,0.1c0.3,0.1,0.5,0.2,0.7,0.3c0.3,0.1,0.5,0.3,0.8,0.4c0.3,0.2,0.5,0.4,0.8,0.7
	c0.1,0.1,0.3,0.3,0.4,0.5l0.1,0.1l0.1,0.1c0.1,0.2,0.2,0.3,0.4,0.5c0.2,0.2,0.3,0.5,0.4,0.7c0.1,0.2,0.2,0.4,0.3,0.7
	c0.1,0.3,0.3,0.6,0.4,0.9c0.1,0.2,0.2,0.5,0.2,0.7c0.1,0.3,0.2,0.7,0.3,1.1c0.1,0.2,0.1,0.4,0.1,0.6l0,0.1c0.1,0.4,0.2,0.8,0.3,1.3
	c0,0.1,0,0.2,0.1,0.4l0,0.1c0.3,2,0.5,3.9,0.6,5.9l0,0v0l0.1,5.4l0,0v0v0.3c0,0.2,0,0.3,0,0.5l0,27.9L262.9,398.5z"/>
<path class="st17" d="M249.2,382.7L223.7,368c-1.7-0.9-2.7-3.3-2.7-6.4c0.1-3.7,1.3-7.3,3.4-10.4c0.2-0.2,0.3-0.5,0.5-0.7
	c-0.1,0.2-0.3,0.4-0.4,0.6l25.9,15c-0.1,0.1-0.1,0.2-0.2,0.3c-2.1,3.1-3.3,6.7-3.4,10.4C246.8,379.6,247.7,381.7,249.2,382.7z"/>
<path class="st13" d="M281.9,349.1l-25.9-15c0.2-0.3,0.4-0.5,0.6-0.8l0.1-0.1c0.1-0.1,0.2-0.3,0.3-0.4c0.4-0.6,0.8-1.2,1.2-1.9
	l0.1-0.2c0.4-0.7,0.7-1.4,1.1-2.2c0.1-0.2,0.2-0.4,0.2-0.6l0-0.1c0.2-0.4,0.4-1,0.6-1.5c0.1-0.3,0.2-0.5,0.3-0.8l0-0.2
	c0.2-0.4,0.3-0.9,0.4-1.3c0.1-0.4,0.2-0.7,0.3-1.1c0.1-0.4,0.2-0.8,0.3-1.2c0.1-0.4,0.2-0.8,0.2-1.2s0.1-0.8,0.2-1.2l0-0.2
	c0.1-0.4,0.1-0.8,0.2-1.1c0-0.2,0.1-0.5,0.1-0.7l0-0.2c0.3-1.9,0.4-4,0.6-6.2l0-0.1l0,0v-0.1l0,0l0.1-6l0,0l0,0v-0.2v-0.3v-27.9
	l25.8,15.1l0,0v27.9v0.3v0.2v0.1v0l-0.1,6v0l0,0v0.1l0,0.1c-0.1,2.2-0.3,4.3-0.5,6.2l0,0.3c0,0.2-0.1,0.5-0.1,0.7
	c-0.1,0.4-0.1,0.8-0.2,1.1l0,0.2c-0.1,0.4-0.1,0.8-0.2,1.1c-0.1,0.4-0.2,0.8-0.3,1.2c-0.1,0.4-0.2,0.8-0.3,1.2
	c-0.1,0.4-0.2,0.7-0.3,1.1c-0.1,0.4-0.3,0.9-0.4,1.3l-0.1,0.2c-0.1,0.3-0.2,0.5-0.3,0.8c-0.2,0.6-0.4,1.1-0.6,1.5l-0.1,0.1l-0.2,0.6
	c-0.4,0.8-0.7,1.5-1.1,2.2l-0.1,0.2c-0.4,0.6-0.7,1.2-1.2,1.9c-0.1,0.1-0.2,0.3-0.3,0.4l0,0.1C282.2,348.7,282,348.9,281.9,349.1z"
	/>
<path class="st13" d="M262.9,398.5L263,375l-0.4,0.4c1.1-1.2,2.1-2.2,3.1-3.3l0.2-0.2l0.3-0.3l0.1-0.1c2-2,4.3-3.7,6.8-5.1l0,0
	l0.3-0.1l0.1,0l0.2-0.1l0,0c0.6-0.3,1.2-0.6,1.7-0.9c0.2-0.1,0.3-0.2,0.5-0.2l0.2-0.1c0.4-0.2,0.8-0.3,1.2-0.5
	c0.2-0.1,0.4-0.1,0.6-0.2l0.1,0c0.3-0.1,0.7-0.2,1-0.2c0.3,0,0.5-0.1,0.7-0.1c0.3,0,0.6-0.1,0.9-0.1c0.2,0,0.5,0,0.7,0
	c0.3,0,0.5,0.1,0.8,0.1l0.1,0c0.2,0,0.3,0.1,0.5,0.1c0.3,0.1,0.5,0.2,0.7,0.3c0.3,0.1,0.5,0.3,0.8,0.4c0.3,0.2,0.5,0.4,0.8,0.7
	c0.1,0.1,0.3,0.3,0.4,0.5l0.1,0.1l0.1,0.1c0.1,0.2,0.2,0.3,0.4,0.5c0.2,0.2,0.3,0.5,0.4,0.7c0.1,0.2,0.2,0.4,0.3,0.7
	c0.1,0.3,0.3,0.6,0.4,0.9c0.1,0.2,0.2,0.5,0.2,0.7c0.1,0.3,0.2,0.7,0.3,1.1c0.1,0.2,0.1,0.4,0.1,0.6l0,0.1c0.1,0.4,0.2,0.8,0.3,1.3
	c0,0.1,0,0.2,0.1,0.4l0,0.1c0.3,2,0.5,3.9,0.6,5.9l0,0v0l0.1,5.4l0,0v0v0.3c0,0.2,0,0.3,0,0.5l0,27.9L262.9,398.5z"/>
<path class="st13" d="M249.2,382.7L223.7,368c-1.7-0.9-2.7-3.3-2.7-6.4c0.1-3.7,1.3-7.3,3.4-10.4c0.2-0.2,0.3-0.5,0.5-0.7
	c-0.1,0.2-0.3,0.4-0.4,0.6l25.9,15c-0.1,0.1-0.1,0.2-0.2,0.3c-2.1,3.1-3.3,6.7-3.4,10.4C246.8,379.6,247.7,381.7,249.2,382.7z"/>
<path class="st10" d="M249.4,382.8L249.4,382.8l-0.2-0.1c-1.4-1-2.3-3.1-2.3-6c0.1-3.7,1.3-7.3,3.4-10.4c0.1-0.1,0.1-0.2,0.2-0.3
	l-25.9-15c0.1-0.2,0.3-0.4,0.4-0.6c0.3-0.4,0.7-0.8,1-1.2c0.2-0.2,0.4-0.4,0.5-0.6c0.2-0.2,0.4-0.4,0.6-0.5c0.5-0.5,1.1-0.8,1.6-1.2
	l0,0c0.2-0.1,0.4-0.2,0.7-0.3c0.1,0,0.2-0.1,0.3-0.1l0.1,0l0.1,0c1.1-0.6,2.2-1,3.4-1.3c0.1,0,0.3-0.1,0.4-0.1
	c1.1-0.2,2.2-0.4,3.2-0.4c3.8-0.1,7.6-1.3,10.8-3.3c0.3-0.2,0.6-0.3,0.9-0.5c0.2-0.1,0.5-0.3,0.7-0.5c0.2-0.1,0.4-0.2,0.6-0.4
	c0,0,0,0,0,0c0,0,0.1,0,0.1,0c0.3-0.2,0.6-0.4,0.9-0.7c0.3-0.2,0.6-0.4,0.9-0.7c0.1,0,0.1-0.1,0.2-0.1c0,0,0.1-0.1,0.1-0.1l0.1-0.1
	c0.1-0.1,0.2-0.2,0.4-0.3c0.1-0.1,0.2-0.2,0.4-0.3c0.2-0.2,0.4-0.4,0.7-0.6c0.1-0.1,0.2-0.2,0.3-0.3c0-0.1,0.1-0.1,0.1-0.1
	c0.2-0.2,0.4-0.4,0.5-0.6c0.2-0.2,0.4-0.5,0.6-0.7l0.1-0.1c0.1-0.1,0.2-0.3,0.4-0.4c0.2-0.2,0.3-0.4,0.5-0.7l25.9,15
	c0.2-0.2,0.3-0.4,0.5-0.6l0-0.1c0.1-0.1,0.2-0.3,0.3-0.4c0.4-0.6,0.8-1.2,1.2-1.9l0.1-0.2c0.4-0.7,0.7-1.4,1.1-2.2l0.2-0.6l0.1-0.1
	c0.2-0.4,0.4-1,0.6-1.5c0.1-0.3,0.2-0.5,0.3-0.8l0.1-0.2c0.2-0.4,0.3-0.9,0.4-1.3c0.1-0.3,0.2-0.7,0.3-1.1c0.1-0.4,0.2-0.8,0.3-1.2
	c0.1-0.4,0.2-0.8,0.3-1.2c0.1-0.4,0.1-0.8,0.2-1.1l0-0.2c0.1-0.4,0.1-0.7,0.2-1.1c0-0.2,0.1-0.5,0.1-0.7l0-0.3
	c0.3-1.9,0.4-4,0.5-6.2l0-0.1V326l0,0v0l0.1-6v0v-0.1v-0.2v-0.3v-27.9l0,0L263,276.3l10.6-6.1l5.5-3.2l4.9-2.8
	c0.7-0.4,1.3-0.7,1.9-1.1c0.5-0.3,0.9-0.5,1.4-0.7c1.6-0.9,3.3-1.6,5.1-2.1c0.2-0.1,0.4-0.1,0.5-0.1c0.5-0.1,1.1-0.2,1.7-0.1
	c0.3,0,0.5,0.3,0.7,0.4l25.9,14.9c0.3,0.2,0.5,0.4,0.6,0.6c0.2,0.2,0.3,0.5,0.3,0.8c0.1,0.2,0.1,0.5,0.2,0.7c0,0.3,0.1,0.5,0.1,0.9
	c0,0.2,0,0.3,0,0.5c0,0.3,0,0.7,0,1.1c0,0.4,0,0.8,0,1.3c0,1.2,0,2.2-0.1,3.2c0,0.3,0,0.5-0.1,0.7c0,0.2,0,0.5-0.1,0.7
	s-0.1,0.5-0.1,0.7s-0.1,0.5-0.1,0.7c-0.1,0.5-0.2,0.9-0.2,1.4c-0.1,0.5-0.2,0.9-0.3,1.3c0,0,0,0.1,0,0.1c2.1-4.7,3.2-9.8,3.3-14.9
	c0-0.7,0-1.4-0.1-2c-0.1-3.9-0.9-7.8-2.2-11.4c-1.2-3-1.7-6.3-1.7-9.5c0-6,0-9.3,12.8-16.7l20.8-11.9l25.9,15v106
	c0,8.8-5.4,19.1-12,22.9l-79.5,45.9l0-27.9c0-0.2,0-0.3,0-0.5v-0.3v0l0,0l-0.1-5.4v0l0,0c-0.1-2-0.3-4-0.6-5.9l0-0.1
	c0-0.1,0-0.2-0.1-0.4c-0.1-0.4-0.2-0.8-0.3-1.3l0-0.1c0-0.2-0.1-0.4-0.1-0.6c-0.1-0.4-0.2-0.7-0.3-1.1c-0.1-0.2-0.1-0.5-0.2-0.7
	c-0.1-0.3-0.2-0.6-0.4-0.9c-0.1-0.2-0.2-0.5-0.3-0.7c-0.1-0.3-0.3-0.5-0.4-0.7c-0.1-0.2-0.2-0.3-0.4-0.5l-0.1-0.1l-0.1-0.1
	c-0.1-0.2-0.2-0.3-0.4-0.5c-0.2-0.2-0.5-0.5-0.8-0.7c-0.2-0.2-0.5-0.3-0.8-0.4c-0.2-0.1-0.5-0.3-0.7-0.3c-0.2,0-0.3-0.1-0.5-0.1
	l-0.1,0c-0.3-0.1-0.5-0.1-0.8-0.1c-0.2,0-0.5,0-0.7,0c-0.3,0-0.6,0-0.9,0.1c-0.2,0-0.5,0.1-0.7,0.1c-0.3,0.1-0.7,0.2-1,0.2l-0.1,0
	c-0.2,0.1-0.4,0.1-0.6,0.2c-0.4,0.1-0.8,0.3-1.2,0.5l-0.2,0.1c-0.2,0.1-0.3,0.1-0.5,0.2c-0.6,0.3-1.2,0.6-1.7,0.9l0,0l-0.2,0.1
	l-0.1,0l-0.3,0.1l0,0c-2.5,1.4-4.7,3.2-6.8,5.1l-0.1,0.1l-0.3,0.3l-0.2,0.2c-1.1,1.1-2.1,2.1-3.1,3.3c-2.1,2.4-4.5,4.6-7.2,6.4
	l-0.1,0l-0.1,0c-0.3,0.2-0.6,0.4-0.9,0.6c-0.7,0.4-1.5,0.7-2.3,0.8c-0.3,0-0.5,0.1-0.8,0.1c-0.3,0-0.5,0-0.7-0.1
	C250.1,383.2,249.7,383,249.4,382.8z"/>
<path d="M288.8,291.4L263,276.3l10.6-6.1l5.5-3.2l4.9-2.8c0.7-0.4,1.3-0.7,1.9-1.1c0.5-0.3,0.9-0.5,1.4-0.7c1.6-0.9,3.3-1.6,5.1-2.1
	c0.2-0.1,0.4-0.1,0.5-0.1c0.5-0.1,1.1-0.2,1.7-0.1c0.3,0,0.5,0.3,0.7,0.4l25.8,14.9c-0.2-0.1-0.5-0.2-0.7-0.2l0,0
	c-0.4,0-0.8,0-1.2,0c-0.3,0-0.7,0.1-1,0.2c-3,1-5.8,2.3-8.4,3.9l-4.9,2.8l-5.5,3.2L288.8,291.4z"/>
<path d="M322.2,320.3c-2.4-2.5-3.7-6.5-3.7-11.5c0-0.7,0-1.4,0.1-2.1c0,0,0-0.1,0-0.1c0-1.2,0.1-2.4,0.3-3.6c0-0.4,0.1-0.7,0.1-1.1
	c0.1-0.8,0.2-1.5,0.3-2.2c0.1-0.7,0.2-1.3,0.3-1.9c0.1-0.3,0.1-0.6,0.2-1c0.3-1.3,0.6-2.7,0.9-4.2c0.2-0.9,0.4-1.8,0.6-2.7l0,0
	c2.1-4.7,3.2-9.7,3.3-14.8c0-0.7,0-1.4-0.1-2c-0.1-3.9-0.9-7.8-2.2-11.4c-1.2-3-1.7-6.3-1.7-9.5c0-6,0-9.3,12.8-16.7l20.8-11.9
	l25.9,15l-20.9,12.1c-12.8,7.4-12.8,10.7-12.8,16.7c-0.1,3.3,0.5,6.5,1.7,9.5c1.3,3.7,2.1,7.5,2.2,11.4c0,0.6,0.1,1.3,0.1,2
	c0,11.8-7.2,25.5-16,30.6C329.8,323.7,325.3,323.5,322.2,320.3z"/>
<path d="M250.4,366l-25.9-15c0.1-0.2,0.3-0.4,0.4-0.6c0.3-0.4,0.7-0.8,1-1.2c0.2-0.2,0.4-0.4,0.5-0.6c0.2-0.2,0.4-0.4,0.6-0.5
	c0.5-0.5,1.1-0.8,1.6-1.2l0,0c0.2-0.1,0.4-0.2,0.7-0.3l0.3-0.1l0.1,0l0.1,0c1.1-0.6,2.2-1,3.4-1.3c0.1,0,0.3-0.1,0.4-0.1
	c1.1-0.2,2.2-0.4,3.2-0.4c3.8-0.1,7.6-1.3,10.8-3.3c0.3-0.2,0.6-0.3,0.9-0.5c0.2-0.1,0.5-0.3,0.7-0.5c0.2-0.1,0.4-0.2,0.5-0.4
	c0,0,0,0,0.1,0c0,0,0.1,0,0.1,0c0.3-0.2,0.6-0.4,0.9-0.7l0.9-0.7c0,0,0.1-0.1,0.1-0.1c0,0,0.1-0.1,0.1-0.1l0.1-0.1
	c0.1-0.1,0.2-0.2,0.3-0.3c0.1-0.1,0.2-0.2,0.4-0.3c0.2-0.2,0.4-0.4,0.7-0.6c0.1-0.1,0.2-0.2,0.3-0.3c0,0,0.1-0.1,0.1-0.1
	c0.2-0.2,0.4-0.4,0.5-0.6c0.2-0.2,0.4-0.5,0.6-0.7l0.1-0.1c0.1-0.1,0.2-0.3,0.4-0.4c0.2-0.2,0.3-0.4,0.5-0.7l25.9,15
	c0,0-0.1,0.1-0.1,0.1c-0.2,0.2-0.4,0.5-0.5,0.7c-0.1,0.1-0.2,0.3-0.3,0.4l-0.1,0.1c-0.4,0.4-0.8,0.9-1.2,1.3
	c-0.1,0.1-0.2,0.2-0.3,0.2c-0.1,0.1-0.1,0.1-0.2,0.2c-0.2,0.2-0.4,0.4-0.7,0.6c-0.2,0.2-0.5,0.4-0.7,0.6l-0.1,0.1
	c-0.1,0.1-0.2,0.2-0.3,0.2c-0.6,0.5-1.2,0.9-1.7,1.3c0,0-0.1,0.1-0.1,0.1c-0.7,0.5-1.4,0.9-2.1,1.4c-0.3,0.2-0.6,0.3-0.9,0.5
	c-0.3,0.2-0.6,0.3-0.9,0.5c-2,1-4.1,1.7-6.3,2.1c-0.4,0.1-0.8,0.1-1.1,0.2c-0.2,0-0.4,0-0.6,0l-1,0.1l0,0c-1.5,0.1-3.1,0.3-4.6,0.8
	c-0.4,0.1-0.9,0.3-1.4,0.6l0,0c-0.3,0.1-0.7,0.3-1.1,0.5l-0.1,0l-0.1,0c-0.1,0-0.2,0.1-0.3,0.1c-0.2,0.1-0.5,0.2-0.7,0.3
	c-0.6,0.4-1.2,0.8-1.7,1.2c-0.2,0.2-0.4,0.3-0.5,0.5c-0.2,0.2-0.4,0.4-0.5,0.6c-0.2,0.2-0.4,0.5-0.6,0.7c-0.1,0.2-0.3,0.3-0.4,0.5
	C250.6,365.8,250.5,365.9,250.4,366z"/>
<path class="st14" d="M329.6,310.2l-26-15c-0.1-0.1-0.2-0.1-0.4-0.2c-1.5-1.1-2.1-3.4-2.1-6.1c0-0.4,0-0.9,0-1.3l0-0.1v-0.1
	c0.2-3.5,0.7-7,1.7-10.4c0.4-1.7,0.9-3.6,1.2-5.6l5.6-3.3l0.2-0.1l0.1-0.1l0.1,0l4.4-2.4l0,0l0,0l0.1-0.1c1.4-0.7,2.8-1.3,4.3-1.8
	l0.2-0.1c0.2-0.1,0.4-0.1,0.6-0.2c0.2-0.1,0.5-0.1,0.7-0.2l0.1,0c0.3-0.1,0.6-0.1,0.8-0.2c0.2,0,0.5-0.1,0.7-0.1
	c0.3,0,0.6-0.1,0.9-0.1c0.2,0,0.4,0,0.6,0c0.3,0,0.6,0,0.9,0.1l0.1,0c0.1,0,0.3,0,0.4,0.1c0.3,0.1,0.7,0.2,1,0.3
	c0.1,0.1,0.2,0.1,0.3,0.1c0.9,0.5,1.6,1.1,2.2,1.9c0,0.1,0.1,0.1,0.1,0.2c0.3,0.4,0.5,0.8,0.7,1.3c0,0.1,0.1,0.2,0.1,0.3l0,0.1
	c0.2,0.4,0.3,0.9,0.5,1.4l0.1,0.4c0.2,0.6,0.3,1.2,0.4,1.8l0.1,0.3c0.2,1.7,0.4,3.5,0.3,5.2c-0.1,5.3-0.8,10.6-2.2,15.7
	c-0.9,3.4-1.5,6.9-1.7,10.4v0.1l0,0.1c0,0.6-0.1,1-0.1,1.3c0,2.7,0.8,4.8,2.2,5.9C329.3,310,329.5,310.1,329.6,310.2z"/>
<path class="st14" d="M288.8,280.2L263,265.1v-9.5l0-9.5v-8.9c-0.1-4.1,0.2-8.2,0.8-12.3c0.9-5,2.3-6.5,6.2-8.8
	c2.4-1.5,5.1-2.3,7.9-2.3c0.9-0.1,1.8-0.2,2.7-0.3c0.2,0,0.5-0.1,0.7-0.1c0.4-0.1,0.8-0.2,1.2-0.3c0.5-0.1,1-0.3,1.6-0.5
	c0.2-0.1,0.4-0.1,0.7-0.2c0.9-0.3,1.8-0.7,2.6-1.2c0,0,0.1,0,0.1-0.1c0.5-0.2,1-0.5,1.5-0.7c4.8-2.8,9.3-8.2,12.4-14.9
	c0.2-0.4,0.4-0.9,0.6-1.3c-0.2,0.2-0.4,0.4-0.7,0.6c0.8-0.8,1.6-1.7,2.5-2.6c2.8-3.2,6-6.1,9.5-8.4c0.5-0.4,1-0.7,1.6-1
	c8.8-5.1,16,0.3,16,12.1c-0.1,5.4-1.4,10.8-3.7,15.7c-3.1,6.7-7.6,12.1-12.4,14.9c-0.5,0.3-1,0.5-1.5,0.7c0,0-0.1,0-0.1,0
	c-0.8,0.4-1.7,0.8-2.6,1.2l-0.7,0.2c-0.5,0.2-1.1,0.3-1.6,0.5c-0.4,0.1-0.8,0.2-1.2,0.3c-0.2,0-0.5,0.1-0.7,0.1
	c-0.9,0.1-1.7,0.2-2.7,0.3c-2.8,0.1-5.5,0.9-7.9,2.3c-3.9,2.3-5.3,3.8-6.2,8.7c-0.6,4.1-0.9,8.2-0.8,12.3l0,8.9v9.5l0,0L288.8,280.2
	z"/>
<path class="st14" d="M291.2,200.4l-26-15c-1.5-0.9-2.2-4.8-2.2-14.5l-0.1-27.8l25.9,15l0,27.9C288.8,195.9,289.6,199.6,291.2,200.4
	L291.2,200.4z"/>
<path class="st16" d="M329.6,310.2l-26-15c-0.1-0.1-0.2-0.1-0.4-0.2c-1.5-1.1-2.1-3.4-2.1-6.1c0-0.4,0-0.9,0-1.3l0-0.1v-0.1
	c0.2-3.5,0.7-7,1.7-10.4c0.4-1.7,0.9-3.6,1.2-5.6l5.6-3.3l0.2-0.1l0.1-0.1l0.1,0l4.4-2.4l0,0l0,0l0.1-0.1c1.4-0.7,2.8-1.3,4.3-1.8
	l0.2-0.1c0.2-0.1,0.4-0.1,0.6-0.2c0.2-0.1,0.5-0.1,0.7-0.2l0.1,0c0.3-0.1,0.6-0.1,0.8-0.2c0.2,0,0.5-0.1,0.7-0.1
	c0.3,0,0.6-0.1,0.9-0.1c0.2,0,0.4,0,0.6,0c0.3,0,0.6,0,0.9,0.1l0.1,0c0.1,0,0.3,0,0.4,0.1c0.3,0.1,0.7,0.2,1,0.3
	c0.1,0.1,0.2,0.1,0.3,0.1c0.9,0.5,1.6,1.1,2.2,1.9c0,0.1,0.1,0.1,0.1,0.2c0.3,0.4,0.5,0.8,0.7,1.3c0,0.1,0.1,0.2,0.1,0.3l0,0.1
	c0.2,0.4,0.3,0.9,0.5,1.4l0.1,0.4c0.2,0.6,0.3,1.2,0.4,1.8l0.1,0.3c0.2,1.7,0.4,3.5,0.3,5.2c-0.1,5.3-0.8,10.6-2.2,15.7
	c-0.9,3.4-1.5,6.9-1.7,10.4v0.1l0,0.1c0,0.6-0.1,1-0.1,1.3c0,2.7,0.8,4.8,2.2,5.9C329.3,310,329.5,310.1,329.6,310.2z"/>
<path class="st16" d="M288.8,280.2L263,265.1v-9.5l0-9.5v-8.9c-0.1-4.1,0.2-8.2,0.8-12.3c0.9-5,2.3-6.5,6.2-8.8
	c2.4-1.5,5.1-2.3,7.9-2.3c0.9-0.1,1.8-0.2,2.7-0.3c0.2,0,0.5-0.1,0.7-0.1c0.4-0.1,0.8-0.2,1.2-0.3c0.5-0.1,1-0.3,1.6-0.5
	c0.2-0.1,0.4-0.1,0.7-0.2c0.9-0.3,1.8-0.7,2.6-1.2c0,0,0.1,0,0.1-0.1c0.5-0.2,1-0.5,1.5-0.7c4.8-2.8,9.3-8.2,12.4-14.9
	c0.2-0.4,0.4-0.9,0.6-1.3c-0.2,0.2-0.4,0.4-0.7,0.6c0.8-0.8,1.6-1.7,2.5-2.6c2.8-3.2,6-6.1,9.5-8.4c0.5-0.4,1-0.7,1.6-1
	c8.8-5.1,16,0.3,16,12.1c-0.1,5.4-1.4,10.8-3.7,15.7c-3.1,6.7-7.6,12.1-12.4,14.9c-0.5,0.3-1,0.5-1.5,0.7c0,0-0.1,0-0.1,0
	c-0.8,0.4-1.7,0.8-2.6,1.2l-0.7,0.2c-0.5,0.2-1.1,0.3-1.6,0.5c-0.4,0.1-0.8,0.2-1.2,0.3c-0.2,0-0.5,0.1-0.7,0.1
	c-0.9,0.1-1.7,0.2-2.7,0.3c-2.8,0.1-5.5,0.9-7.9,2.3c-3.9,2.3-5.3,3.8-6.2,8.7c-0.6,4.1-0.9,8.2-0.8,12.3l0,8.9v9.5l0,0L288.8,280.2
	z"/>
<path class="st16" d="M291.2,200.4l-26-15c-1.5-0.9-2.2-4.8-2.2-14.5l-0.1-27.8l25.9,15l0,27.9C288.8,195.9,289.6,199.6,291.2,200.4
	L291.2,200.4z"/>
<path class="st14" d="M329.8,310.3l-0.2-0.1l0,0c-0.1-0.1-0.3-0.2-0.4-0.3c-1.4-1.1-2.2-3.2-2.2-5.9c0-0.4,0-0.8,0.1-1.3l0-0.1v-0.1
	c0.2-3.5,0.7-7,1.7-10.4c1.4-5.1,2.1-10.4,2.2-15.7c0-1.7-0.1-3.5-0.3-5.2l-0.1-0.3c-0.1-0.6-0.2-1.2-0.4-1.8l-0.1-0.4
	c-0.2-0.5-0.3-1-0.5-1.4l0-0.1c0-0.1-0.1-0.2-0.1-0.3c-0.2-0.4-0.4-0.9-0.7-1.3c-0.1-0.1-0.1-0.1-0.1-0.2c-0.6-0.8-1.3-1.5-2.2-1.9
	c-0.1,0-0.2-0.1-0.3-0.1c-0.3-0.1-0.7-0.3-1-0.3c-0.1,0-0.3,0-0.4-0.1l-0.1,0c-0.3-0.1-0.6-0.1-0.9-0.1c-0.2,0-0.4,0-0.6,0
	c-0.3,0-0.6,0-0.9,0.1c-0.2,0-0.5,0.1-0.7,0.1c-0.3,0.1-0.6,0.1-0.8,0.2l-0.1,0c-0.2,0-0.5,0.1-0.7,0.2c-0.2,0.1-0.4,0.1-0.6,0.2
	l-0.2,0.1c-1.5,0.5-2.9,1.1-4.3,1.8l-0.1,0.1l0,0l0,0l-4.4,2.4l-0.1,0l-0.1,0.1l-0.2,0.1l-5.6,3.3l-15.3,8.8l0-9.5l0,0v-9.5l0-8.9
	c-0.1-4.1,0.2-8.2,0.8-12.3c0.9-5,2.3-6.5,6.2-8.7c2.4-1.5,5.1-2.3,7.9-2.3c0.9-0.1,1.8-0.2,2.7-0.3c0.2,0,0.5-0.1,0.7-0.1
	c0.4-0.1,0.8-0.2,1.2-0.3c0.5-0.1,1.1-0.3,1.6-0.5l0.7-0.2c0.9-0.3,1.8-0.7,2.6-1.2c0,0,0.1,0,0.1,0c0.5-0.2,1-0.5,1.5-0.7
	c4.8-2.8,9.3-8.2,12.4-14.9c2.3-4.9,3.6-10.3,3.7-15.7c0-11.8-7.2-17.2-16-12.1c-0.5,0.3-1.1,0.6-1.6,1c-3.5,2.4-6.7,5.2-9.5,8.4
	c-0.8,0.9-1.6,1.8-2.5,2.6c-1.3,1.3-2.7,2.5-4.2,3.5c-0.2,0.1-0.4,0.2-0.5,0.3c-0.2,0.1-0.4,0.3-0.6,0.4c-0.7,0.4-1.4,0.8-2,1.1
	c-0.2,0.1-0.4,0.2-0.6,0.2c-0.2,0.1-0.4,0.1-0.6,0.2c-0.2,0.1-0.3,0.1-0.5,0.1c-0.3,0-0.6-0.1-0.9-0.2c-1.6-0.9-2.4-4.6-2.4-14.3
	l0-27.9l-25.9-15l79.6-46.1c0.3-0.2,0.6-0.3,0.8-0.4c0.3-0.1,0.5-0.2,0.8-0.3l0,0c0.3-0.1,0.5-0.2,0.8-0.3c0.3-0.1,0.5-0.1,0.8-0.2
	c0.3-0.1,0.7-0.1,1-0.1c1.3-0.1,2.7,0.3,3.8,1l25.6,14.8v0c0.8,0.4,1.5,1,2,1.7c0.2,0.2,0.4,0.5,0.5,0.8c0.1,0.2,0.2,0.4,0.3,0.6
	c0.2,0.4,0.4,0.8,0.5,1.2c0.1,0.2,0.2,0.4,0.2,0.7c0.5,1.6,0.7,3.2,0.6,4.8v106l-20.9,12.1c-0.1,0.1-0.3,0.2-0.4,0.2l-0.2,0.1l0,0
	l0,0l-4.1,2.6l0,0l0,0c-1.7,1.1-3.2,2.3-4.8,3.5l-0.1,0.1c-0.1,0.1-0.2,0.1-0.2,0.2c-0.4,0.3-0.7,0.7-1.1,1l-0.1,0.1
	c-0.2,0.1-0.3,0.3-0.5,0.4c-0.3,0.3-0.6,0.6-0.9,1c-0.2,0.2-0.4,0.4-0.6,0.6c-0.3,0.3-0.6,0.7-0.9,1c-0.2,0.2-0.4,0.5-0.6,0.7
	c-0.3,0.4-0.5,0.7-0.8,1.1c-0.2,0.2-0.3,0.4-0.4,0.6l-0.1,0.2l-0.1,0.2c-0.2,0.3-0.4,0.6-0.6,0.9c-0.1,0.2-0.3,0.5-0.4,0.7l-0.1,0.2
	c-0.4,0.7-0.7,1.4-1.1,2.1l-0.1,0.2c-0.1,0.3-0.3,0.6-0.4,0.9l0,0c-0.1,0.3-0.2,0.6-0.3,1l-0.1,0.3c-0.1,0.4-0.3,0.7-0.4,1.1
	c-0.1,0.4-0.2,0.8-0.3,1.2c-0.1,0.4-0.2,0.8-0.3,1.2c-0.1,0.4-0.2,0.8-0.2,1.2c-0.1,0.4-0.2,0.9-0.2,1.3l0,0.1
	c-0.1,0.4-0.1,0.7-0.2,1.1c-0.1,0.5-0.1,1-0.1,1.5l0,0.3c0,0.3,0,0.6-0.1,0.8c0,0.6,0,1.2-0.1,2.1v0.1c0,0.1,0,0.3,0,0.4
	c-0.1,4.5,0.7,9,2.2,13.2c1,2.8,1.6,5.7,1.7,8.6l0,0.1v0.1c0,0.4,0.1,0.8,0.1,1.1c0,5.6-3.4,12.1-7.6,14.6c-0.8,0.5-1.6,0.8-2.5,0.9
	c-0.2,0-0.4,0-0.5,0h-0.1c-0.1,0-0.2,0-0.3,0c-0.1,0-0.2,0-0.3,0c-0.1,0-0.2,0-0.2-0.1c-0.1,0-0.2-0.1-0.3-0.1c-0.1,0-0.1,0-0.2-0.1
	C329.9,310.4,329.9,310.3,329.8,310.3z"/>
<path class="st18" d="M288.8,158.2l-25.9-15l79.6-46.1c0.3-0.2,0.6-0.3,0.8-0.4c0.3-0.1,0.5-0.2,0.8-0.3l0,0
	c0.3-0.1,0.5-0.2,0.8-0.3c0.3-0.1,0.5-0.1,0.8-0.2c0.3-0.1,0.7-0.1,1-0.1c1.3-0.1,2.7,0.3,3.8,1l25.3,14.6c-0.2-0.1-0.5-0.2-0.7-0.3
	c-0.1,0-0.1,0-0.2-0.1c-0.2-0.1-0.4-0.1-0.7-0.2c-0.1,0-0.2,0-0.2,0c-0.2,0-0.3,0-0.5-0.1c0,0,0,0-0.1,0c-0.1,0-0.3,0-0.4,0
	c0,0-0.1,0-0.1,0c-0.2,0-0.4,0-0.6,0l-0.5,0.1c-0.3,0-0.7,0.1-1,0.2c-0.2,0-0.3,0.1-0.5,0.2c-0.3,0.1-0.6,0.2-1,0.4
	c-0.4,0.2-0.7,0.4-1.1,0.6L288.8,158.2z"/>
<path class="st17" d="M248,301.1L222.2,286l0,0c-1-0.6-1.3-2.3-1.3-5.9c0-3,0.4-5.9,1.1-8.8c-0.8,1.8-1.4,3.6-2,5.5
	c2.5-9,8.1-17.5,14.7-21.2c4.3-2.5,8.3-2.6,11.3-0.3c3,2.3,4.7,6.7,4.7,12.4c0,0.6,0,1.1-0.1,1.6v0.2v0.1c0,0.1,0,0.3,0,0.4
	c0,1.2-0.1,2.4-0.3,3.7c0,0.2,0,0.4-0.1,0.6l0,0.2c-0.1,0.9-0.2,1.7-0.4,2.5c-0.1,0.5-0.2,1-0.3,1.5c-0.1,0.5-0.2,1-0.3,1.5
	c-0.3,1.3-0.6,2.5-0.9,3.9c-1.1,3.7-1.6,7.6-1.7,11.4C246.7,298.9,247,300.5,248,301.1z"/>
<path class="st17" d="M188.9,337.9l-25.9-15l0.1-106.2c0.1-4.2,1.1-8.4,3-12.2l25.9,15c-1.9,3.8-2.9,8.1-3,12.4L188.9,337.9z"/>
<path class="st13" d="M248,301.1L222.2,286l0,0c-1-0.6-1.3-2.3-1.3-5.9c0-3,0.4-5.9,1.1-8.8c2.9-6.8,7.5-12.7,12.7-15.7
	c4.3-2.5,8.3-2.6,11.3-0.3c3,2.3,4.7,6.7,4.7,12.4c0,0.6,0,1.1-0.1,1.6v0.2v0.1c0,0.1,0,0.3,0,0.4c0,1.2-0.1,2.4-0.3,3.7
	c0,0.2,0,0.4-0.1,0.6l0,0.2c-0.1,0.9-0.2,1.7-0.4,2.5c-0.1,0.5-0.2,1-0.3,1.5c-0.1,0.5-0.2,1-0.3,1.5c-0.3,1.3-0.6,2.5-0.9,3.9
	c-1.1,3.7-1.6,7.6-1.7,11.4C246.7,298.9,247,300.5,248,301.1z"/>
<path class="st13" d="M188.9,337.9l-25.9-15l0.1-106.2c0.1-4.2,1.1-8.4,3-12.2l25.9,15c-1.9,3.8-2.9,8.1-3,12.4L188.9,337.9z"/>
<path class="st10" d="M188.9,337.9l0-106.1c0.1-4.3,1.1-8.5,3-12.4l-25.9-15c0.1-0.2,0.1-0.3,0.2-0.4c0.1-0.2,0.2-0.5,0.4-0.7
	c0.2-0.3,0.3-0.6,0.5-1c0.2-0.4,0.4-0.8,0.7-1.1l0.1-0.2c0,0,0.1-0.1,0.1-0.2c0.2-0.3,0.5-0.7,0.7-1c0,0,0,0,0-0.1l0.2-0.3
	c0.1-0.2,0.3-0.4,0.4-0.5c0.1-0.2,0.3-0.4,0.4-0.5c0-0.1,0.1-0.1,0.1-0.2c0.2-0.3,0.5-0.6,0.7-0.8c0.1-0.1,0.2-0.2,0.3-0.3
	c0.1-0.1,0.1-0.2,0.2-0.2c0-0.1,0.1-0.1,0.1-0.1c0.1-0.1,0.2-0.2,0.2-0.2c0,0,0,0,0,0c0.2-0.2,0.3-0.3,0.4-0.4c0,0,0.1-0.1,0.1-0.1
	c0.1-0.1,0.3-0.2,0.4-0.3c0,0,0.1-0.1,0.1-0.1c0,0,0,0,0.1-0.1c0.1-0.1,0.2-0.2,0.3-0.3c0.1-0.1,0.3-0.2,0.4-0.3
	c0.1-0.1,0.2-0.2,0.4-0.3c0.1-0.1,0.3-0.2,0.5-0.3c0.3-0.2,0.5-0.4,0.8-0.5l79.5-45.8l25.9,15l0,23.3c0.1-0.1,0.2-0.3,0.4-0.4
	c2.1-2.4,4.5-4.6,7.2-6.4l0,0l0,0l0.1-0.1c0.2-0.2,0.5-0.4,0.8-0.5c0.7-0.5,1.6-0.8,2.5-0.8c0.9,0,1.8,0.2,2.5,0.6l25.8,14.9
	c0.1,0.1,0.3,0.2,0.4,0.3c0.1,0.1,0.1,0.1,0.2,0.2c0.9,0.8,1.5,1.9,1.8,3.2c0.1,0.3,0.1,0.6,0.2,1c0.1,0.5,0.1,1.1,0.1,1.6
	c-0.1,3-0.8,5.9-2.2,8.5c-1.2,2.5-3.1,4.6-5.4,6.1c-0.3,0.2-0.5,0.3-1,0.5l-0.1,0l-0.1,0c-2.2,1.1-4.6,1.8-7.1,1.8
	c-3.8,0.1-7.6,1.3-10.8,3.3c-1.4,0.8-2.8,1.8-4.1,2.8l-0.1,0.1c-0.6,0.5-1.2,1-1.7,1.5l-0.1,0.1l0,0c-1.2,1.2-2.3,2.5-3.2,3.9l0,0
	c-0.4,0.6-0.8,1.2-1.2,1.9l-0.2,0.3l0,0.1c-0.3,0.6-0.6,1.2-0.9,1.8l0,0.1c-0.1,0.1-0.1,0.3-0.2,0.4c-0.3,0.6-0.5,1.3-0.8,1.9
	c0,0.1-0.1,0.2-0.1,0.3c-0.3,0.8-0.5,1.6-0.7,2.3c0,0.1,0,0.2-0.1,0.3c-0.2,0.7-0.3,1.4-0.5,2.1c0,0.2-0.1,0.4-0.1,0.6l0,0.2
	c-0.1,0.5-0.2,1-0.3,1.6c0,0.3-0.1,0.6-0.1,1c-0.1,0.5-0.1,1-0.2,1.5l0,0.2c0,0.2-0.1,0.5-0.1,0.8c-0.1,0.5-0.1,1-0.1,1.6l0,0.3
	c0,0.2,0,0.4-0.1,0.6v0.1v0.1l-0.3,8.6v0.1v0.1v27.9l-7.4,4.3l-6.9,4l-6.7,3.9c-4.6,2.7-7.9,4.1-9.9,4.2c-0.2,0-0.3,0-0.5,0
	c-0.4,0-0.7-0.1-1.1-0.3v0l0,0c-1-0.6-1.3-2.3-1.3-5.9c0.1-3.9,0.6-7.7,1.7-11.4c0.3-1.3,0.6-2.6,0.9-3.9c0.1-0.5,0.2-1,0.3-1.5
	c0.1-0.5,0.2-1,0.3-1.5c0.1-0.8,0.3-1.7,0.4-2.5l0-0.2c0-0.2,0.1-0.4,0.1-0.6c0.1-1.3,0.2-2.5,0.3-3.7c0-0.1,0-0.3,0-0.4v-0.1v-0.2
	c0-0.5,0.1-1,0.1-1.6c0-5.7-1.7-10.1-4.7-12.4c-3-2.3-7-2.2-11.3,0.3c-5.2,3-9.8,8.9-12.7,15.7c-0.6,1.3-1.1,2.7-1.5,4.1
	c-0.2,0.5-0.3,0.9-0.4,1.4c-0.2,0.6-0.3,1.1-0.4,1.7c0,0.1-0.1,0.2-0.1,0.3c-0.1,0.5-0.2,1.1-0.3,1.6c-0.2,1.2-0.4,2.3-0.4,3.5
	c0,0.4-0.1,0.7-0.1,1.1c0,0.4,0,0.8,0,1.2c0,0.7,0,1.5,0.1,2.1c0.1,3.9,0.9,7.8,2.2,11.4c0.7,2,1.2,4,1.5,6.1l0,0.2l0,0.1l0,0.1
	c0,0.1,0,0.2,0,0.3c0.1,0.9,0.1,1.8,0.1,2.7c0,6,0,9.3-12.8,16.7L188.9,337.9z"/>
<path d="M293.9,178.7l25.8,14.9c-0.8-0.4-1.7-0.6-2.6-0.5c-0.9,0.1-1.7,0.4-2.4,0.9c-0.2,0.1-0.5,0.3-0.8,0.5l-0.1,0.1l-0.1,0l0,0
	c-2.7,1.8-5.1,3.9-7.2,6.4c-3.1,3.6-6.8,6.7-10.8,9.2c-0.2,0.1-0.3,0.2-0.5,0.3c-0.1,0-0.1,0.1-0.2,0.1l-0.1,0.1
	c-0.4,0.2-0.8,0.4-1.1,0.6c-0.2,0.1-0.5,0.2-0.7,0.3l-0.2,0.1l-0.1,0.1c-0.3,0.1-0.6,0.2-0.9,0.3c-0.3,0.1-0.5,0.2-0.8,0.2l-0.1,0
	c-0.3,0.1-0.6,0.1-0.9,0.2c-0.3,0.1-0.6,0.1-0.8,0.1c-0.3,0-0.5,0-0.8,0.1c-0.3,0-0.5,0-0.8,0c-0.2,0-0.5-0.1-0.7-0.1
	c-0.2,0-0.5-0.1-0.7-0.2c-0.2-0.1-0.4-0.2-0.6-0.3l-0.1,0c-0.2-0.1-0.4-0.2-0.5-0.3c-0.2-0.1-0.3-0.2-0.5-0.4l-0.1-0.1l-0.1-0.1
	c-0.1-0.1-0.3-0.2-0.4-0.4c-0.1-0.2-0.3-0.4-0.4-0.6l-0.1-0.1c-0.3-0.4-0.5-0.8-0.7-1.2l-0.1-0.2c-0.1-0.2-0.2-0.4-0.3-0.6
	c-0.1-0.2-0.2-0.5-0.3-0.7l0-0.2l-0.1-0.1c-0.1-0.2-0.2-0.4-0.2-0.7c-0.1-0.3-0.2-0.7-0.3-1c-0.1-0.3-0.2-0.6-0.2-0.9
	c-0.1-0.4-0.1-0.7-0.2-1.1c-0.1-0.3-0.1-0.6-0.2-1c0-0.4-0.1-0.8-0.2-1.2c0-0.3-0.1-0.7-0.1-1c0-0.4-0.1-0.9-0.1-1.4
	c0-0.3,0-0.5-0.1-0.8l0-0.2l0-0.2c0-0.4,0-0.9-0.1-1.3v-0.1l0,0l-0.1-4.9v-0.2l0-0.3l0-4.6c0.1-0.1,0.2-0.3,0.4-0.4
	c2.1-2.4,4.5-4.6,7.2-6.4l0,0l0.1,0l0.1-0.1c0.2-0.2,0.5-0.4,0.8-0.5c0.7-0.5,1.6-0.8,2.5-0.8C292.3,178.1,293.1,178.3,293.9,178.7z
	"/>
<path class="st19" d="M191.9,219.5l-25.9-15c0.1-0.2,0.1-0.3,0.2-0.4c0.1-0.2,0.2-0.5,0.4-0.7c0.2-0.3,0.3-0.6,0.5-1
	c0.2-0.4,0.4-0.8,0.7-1.1c0.1-0.1,0.2-0.3,0.2-0.4c0.2-0.3,0.5-0.7,0.7-1c0,0,0,0,0-0.1l0.2-0.3c0.1-0.2,0.3-0.4,0.4-0.5
	c0.2-0.2,0.4-0.5,0.5-0.7c0.2-0.3,0.5-0.6,0.7-0.8c0.1-0.1,0.2-0.2,0.3-0.3c0.1-0.1,0.1-0.2,0.2-0.2c0.1-0.1,0.2-0.3,0.4-0.4
	c0,0,0,0,0,0c0.2-0.2,0.3-0.3,0.4-0.4c0,0,0.1-0.1,0.1-0.1c0.2-0.2,0.3-0.3,0.5-0.5c0,0,0,0,0.1-0.1c0.1-0.1,0.2-0.2,0.3-0.3
	c0.2-0.2,0.5-0.4,0.7-0.6c0.1-0.1,0.3-0.2,0.5-0.3c0.3-0.2,0.5-0.4,0.8-0.5l79.4-45.8l25.9,15l-34.9,20.2l-44.6,25.8
	c-0.3,0.2-0.7,0.4-1,0.6c-0.3,0.2-0.6,0.4-0.9,0.7c-0.2,0.1-0.3,0.2-0.5,0.4c-0.3,0.2-0.6,0.5-0.9,0.8c-0.3,0.3-0.7,0.7-1,1
	c-0.7,0.8-1.4,1.6-2,2.5c-0.2,0.3-0.5,0.7-0.7,1C193.1,217.1,192.5,218.3,191.9,219.5z"/>
<path class="st9" d="M153.7,245.8c1.3,0.1,2.5-0.3,3.5-1.1c2.7-2.1,4.7-1.9,7.6-3.2c2.3-1,3.2-2.2,3.6-1.8c0.5,0.5,0.7,1.2,0.7,1.9
	c0,0.7-0.3,1.4-0.8,1.9c-0.9,1-1.9,1.9-3,2.6c2.7-0.2,5.3-0.7,7.8-1.6c6.1-2.1,9-1.2,6.2,6.5c-1.7,4.8-6.1,7.6-18,7.3
	c-4.4-0.3-8.8-0.9-13.1-1.7c-11.8-2.3-35.6-5.9-39.8-11.5c-11.8-15.8-22.5-28.9-24-40.7C83.2,194.5,89.4,189,95,189
	c3.2,3.4,5.2,7.4,8.1,16.9c0,0,15.3,27.4,16.8,29.4C123.8,237.3,151.2,245.4,153.7,245.8z"/>
<path class="st9" d="M153.7,245.8c1.3,0.1,2.5-0.3,3.5-1.1c2.7-2.1,4.7-1.9,7.6-3.2c2.3-1,3.2-2.2,3.6-1.8c0.5,0.5,0.7,1.2,0.7,1.9
	c0,0.7-0.3,1.4-0.8,1.9c-0.9,1-1.9,1.9-3,2.6c2.7-0.2,5.3-0.7,7.8-1.6c6.1-2.1,9-1.2,6.2,6.5c-1.7,4.8-6.1,7.6-18,7.3
	c-4.4-0.3-8.8-0.9-13.1-1.7c-11.8-2.3-35.6-5.9-39.8-11.5c-11.8-15.8-22.5-28.9-24-40.7C83.2,194.5,89.4,189,95,189
	c3.2,3.4,5.2,7.4,8.1,16.9c0,0,15.3,27.4,16.8,29.4C123.8,237.3,151.2,245.4,153.7,245.8z"/>
<path class="st12" d="M374.6,168.6c2,1.3,4.3,1.7,7,3.7c1.8,1.5,3.9,2.6,6.2,3.1c2.9,0.7,26-7.1,30.3-10.4
	c8.7-6.7,16.2-19.3,20.4-24.1c3.4-3.9,7.4-9.9,11.6-9.9c7,2.1,5.4,12.6-0.4,22c-4.9,7.8-14.1,17.6-24.6,24.5
	c-5.1,3.3-28.4,9.3-36.2,9.9c-2.4,0.2-4.1,0.7-8.6,1.3c-1.8,0.4-3.7,0.5-5.6,0.3c-2.3-0.4-4.5-1-6.6-2c-2.7-1.2-5-3.2-6.6-5.6
	c-0.9-1.3-1.5-2.9-1.7-4.5c-0.2-1.6,0.2-3.3,1-4.6c0.2-0.3,0.4-0.5,0.7-0.7c0.6-0.2,1.2-0.1,1.7,0.1c3.1,1.1,6.3,2.7,9.5,3.5
	c2.7,0.6,4.7,0.7,4.4,0.2c-0.3-0.5-1.9-0.7-3.7-2.3c-1.8-1.5-2.6-4-1.7-4.9C372.7,167.2,372.6,167.4,374.6,168.6z"/>
<path class="st2" d="M450.6,128.6c5.2,2.5,7.3,6.4,5,15c-2.1,7.7-10,21-16.3,27.4c0,0-10.7-5.1-16.4-11.6c5.6-8.6,8.3-13.7,13.6-21
	C441.9,131.1,447.4,127.7,450.6,128.6z"/>
<path class="st2" d="M439.3,171.1c0,0-10.7-5.1-16.4-11.6l-6.7,6.5c-7.9,3.2-27.4,7.3-27.4,7.3l3,15.8c9.1-2,28.9-6.8,35.9-9.7
	C434.8,176.4,438.4,172.6,439.3,171.1z"/>
<path class="st14" d="M95.3,189.1c-6.7-0.6-14.6,6.7-9.4,23.7c7.7,14.8,10.7,19.8,10.7,19.8s9.9,0.3,18.9-8.1l-8.5-17.1
	C106.3,193.9,104.6,193.3,95.3,189.1z"/>
</svg>
