<svg xmlns="http://www.w3.org/2000/svg" viewBox="0 0 900 900"><defs><style>.cls-1{opacity:0.3;}.cls-2{opacity:0.68;}.cls-3{opacity:0.47;}.cls-4{fill:#efb14c;}.cls-5,.cls-7,.cls-9{fill:#523dde;}.cls-5,.cls-8{opacity:0.2;}.cls-6,.cls-9{opacity:0.58;}</style></defs><title>Landing page illust</title><g id="Layer_2" data-name="Layer 2"><g class="cls-1"><g class="cls-2"><g class="cls-3"><path class="cls-4" d="M122.22,536.21c-3.09-16.61-7.54-33.24-9.87-49.85-4.76-33.83,1.21-65.45,7.27-96.63,4.85-25,11.14-48.53,21.68-71.16A455.2,455.2,0,0,1,175.46,258c34.18-51.21,82.48-92.73,135.61-129,16.9-11.55,32.71-20,53.6-26.71,23.59-7.63,47.86-12.06,73.84-15.46,24.44-3.19,51.79-5.12,78.62-1.29s52.48,13.59,77.73,25.27l27.86,12.89,50.82,39.76,19.31,20.34q23.92,24.31,45.21,50.12a214.48,214.48,0,0,1,28.36,53.6c10.57,28.52,17.28,56.78,25,85.34,15.36,57.11,3,112-10.62,162.56C764.18,596.87,731,649.12,694.92,700.6c-13,18.54-27.6,35.69-46.38,50-21.41,16.3-49,29-73.53,42-22.74,12.07-44,25.76-70.11,33.41-23.37,6.84-48.89,9.19-74.31,12.1-13,1.49-28.51,4.5-42.5,3.65-22.84-1.38-50.68-13-71.31-22.46-29.26-13.39-64.91-27.84-88.87-49.57-16.79-15.23-32-39.66-43.89-56.23-8.07-11.25-14.93-21-20.62-32.87-8.34-17.48-12.86-35-17.64-52.76-7.82-28.91-16.83-58.85-18-87.12-1.55-35.83,7-69.68,12.43-103.68,2.86-18,6.84-34.61,14.35-50.75a331.16,331.16,0,0,1,25.65-45.47c17.37-25.78,39.53-45.3,65.62-64.32,17.53-12.79,37.81-27.9,57.62-39.23,22.05-12.61,48.06-20.26,73.68-28.07L398,203.17q23.61-7.11,47.79-13.3c15.73-.85,29.48,1.45,45.82,5.8,17.38,4.64,37.67,10.3,54.09,19.15,26,14,47.26,36.38,63.51,57.76,23.92,31.47,43.7,63.36,53.1,97.59,5.92,21.55,8.22,43.65,10,64.78q5.61,33-6.79,61.55l-23.19,47.9c-16.4,30.84-32.46,64.68-61.34,87.17-15.45,12-43,22.21-64.32,28.59-14.75,4.42-27.55,6.81-44.43,6.37-20.49-.54-40-6.13-60.85-13.19-15.72-5.32-54.37-22-71.73-34.41-14.17-10.09-24-22.87-33-35.85-20.18-28.92-35.43-56.1-39.13-87.39-2.77-23.45-1.52-47.07-.23-69.69,1.16-20.28,4.22-40.29,13.21-57.82,8.09-15.78,21.83-30.21,34-43.34,12.55-13.53,24.41-25.27,43.36-32.62,32.27-12.53,73.28-10.14,112.45-4.11l15.57,2.4q23.85,6.09,36.58,24.71C539,333,551.89,351.8,562.92,371.72c25.36,45.8,18.17,94.39,14.22,137.68A62.92,62.92,0,0,1,564,543.17l-29.3,25a457,457,0,0,1-45,28.69c-10.45,6-21.8,11.18-35.62,12.49-17,1.61-39.8-2.11-57.84-6.42-14.73-3.52-26.15-6.54-37.86-18.63L339,556.86,322.5,523.81c-5.74-12.74-10.39-24.35-12.29-37.1q-4.53-21.42,1.24-40.84l5.72-28.8,6.4-10.59q4.33-13.64,20.1-18c18.75-10.18,51.51-22.73,79-12,14.19,5.55,28.56,15.47,40.32,24.67s23.5,18.74,28,31.35c3.89,10.85,4.51,24.52-9.83,24"/></g><g class="cls-3"><path class="cls-4" d="M465.72,266.05c-14.87-5.38-17.16-6.85-31.88-3.64-29.74,6.49-60.37,22.38-80.69,39.63a520.24,520.24,0,0,0-126.8,159.7c-16.26,31.9-29.24,63.18-30.14,101.11a243.26,243.26,0,0,0,2.47,53.83L201.44,638c6.22,21.72,37.88,42.68,59.24,53.74q18.06,12.07,37.1,11.32,29.54,4,55.84-3c30.14-4,61.74-6.75,87.28-18.68a316,316,0,0,0,92.85-66.48c31.38-32.4,53.86-70.53,69.88-112.11,20.84-54.11,20.17-115.52-2.37-178a363.1,363.1,0,0,0-30.38-58.22Q562,245.4,537.27,233.41q-33.63-10.46-65.49-8.88a271.7,271.7,0,0,0-52.48,2.09c-39,12.38-64,44.92-85,73.35-15.46,21-25.22,42.33-33.11,67.47"/></g><g class="cls-3"><path class="cls-4" d="M312.88,181.63c17.9-21.54,46.86-36.48,74.63-48.39,23.23-10,48.36-15.33,76.16-17.23l39.89-.79,27.32.77c21,4.75,37.78,19.91,52.39,34.18,18.61,18.18,35.17,39.57,46.29,60.82l17.92,49.71,14.14,57.87,9.08,46A215,215,0,0,1,666.39,439c-5.4,32.27-12,64-23.18,94.09-12.36,33.33-35.72,58.34-61.63,83.14-32.9,31.49-68.8,60.06-106.56,87.32-24.47,17.65-49.52,31.56-81.31,40.36-23.25,6.43-46.9,12.24-72.71,13.55q-12.93,3.56-26.62-4.43a55.33,55.33,0,0,1-29.68-18.17C230.87,707.5,205.61,675.2,185.1,641"/></g></g><g class="cls-3"><path class="cls-4" d="M314.63,584.06c12.12-1,27-.62,38.06-4.4l18-12.43,27.09-27.48c42.65-46.34,74.83-102.4,97.08-160.87,9.05-23.77,14.84-49,18.89-74.51l4.74-37.84-5.83-26.31L490.8,225l-26.7-7-19.82-1.4q-19.74,7.22-30.65,23.11a251.14,251.14,0,0,0-39.09,54.65c-11.3,21.63-12.81,43.58-10.13,69.21,3,29,8.06,57.65,18.79,86.44q3.06,19.19,20.26,33.26Q414.7,500.56,435,508.62c18.58,10.72,37.9,20.82,58.69,21.49,19.45.63,30.52-10.36,40.53-22.78C572.29,460,570,389.39,575,329.61"/></g></g><path class="cls-5" d="M401.63,400.42c1.88.16,3.7.54,5.55.87a25,25,0,0,1,5.18,1.34c.69.27,1.36.56,2,.86,2.36.29,4.72.61,7.08.94-.65-.62-1.31-1.23-2-1.82l-.6-.5-.27-.22,0,0,0,0c-.41-.29-.82-.59-1.24-.87-.77-.5-1.47-1.08-2.24-1.58l-.06,0-1.13-.55a10.57,10.57,0,0,1-4.73-.92c-2-.87-4-1.67-6-2.37a2.14,2.14,0,0,1-1.43.12c-1.61-.44-3.29-.54-4.9-1a2,2,0,0,1-.29-.12v5.73C398.21,400.27,399.93,400.28,401.63,400.42Z"/><path d="M379.38,591.89c-1.91-3-3.64-5.63-5.69-8.76-1-1.5-2.3-3.39-3.55-5.19q-2-2.93-4-5.83-9.74-14-19.64-28Q334.3,527,322.1,509.9l-27.63-38.78L265.28,430.2q-14.68-20.58-29.41-41.13l-28.3-39.44Q194.84,331.84,182,314.12q-10.62-14.72-21.25-29.41Q153,274,145.3,263.23c-.91-1.27-1.84-2.54-2.73-3.83s-2.66-.08-1.71,1.29c4.53,6.51,9,13.09,13.5,19.62q9.72,14,19.53,28Q186,325.56,198.1,342.72l27.58,38.81q14.56,20.48,29.19,40.92l29.44,41.12L312.55,503q12.72,17.8,25.43,35.61c7,9.84,14,19.7,21.11,29.51,5.16,7.16,10.31,14.32,15.58,21.4.93,1.26,1.89,2.5,2.83,3.76,1.12,1.5,2.87.11,1.88-1.43Z"/><path d="M114.46,266.76c-1.72-.22-3-1.38-4.61-1.77-2.89-.68-6.12.83-8.7,1.93-3.89,1.66-9.2,4.35-8.61,9.37.36,3,2.16,6,3.54,8.64.07.13.39.65.18.3l.2.33.31.5,1,1.46c2.4,3.64,4.86,7.24,7.33,10.83,4,5.78,7.88,11.6,11.81,17.41q7.34,10.82,14.7,21.61c5.32,7.79,10.68,15.56,15.94,23.39s10.4,15.46,15.56,23.21q6.83,10.25,13.79,20.41c3.47,5.08,6.91,10.17,10.44,15.21,1.84,2.63,3.69,5.26,5.48,7.93.08.11.15.23.23.35s0-.1,0,.07c.4.72,1.56.46,1.11-.36-.07-.14-.26-.46-.12-.22l-.3-.5-.72-1.14c-.84-1.32-1.69-2.63-2.54-4q-4.36-6.76-8.85-13.46-6.33-9.45-12.73-18.83c-5-7.4-10.12-14.76-15.18-22.14q-8-11.64-15.83-23.34-7.48-11.14-15-22.28-6.34-9.42-12.67-18.86c-3-4.46-5.92-9-8.86-13.46-.85-1.3-1.71-2.61-2.54-3.93-.25-.38-.49-.77-.73-1.15s.08.18,0-.07l-.31-.64a55.2,55.2,0,0,1-2.65-5.68,4.51,4.51,0,0,1,.22-4.05c1.33-2.12,3.93-3.36,6.1-4.41a33.91,33.91,0,0,1,5.49-2.22,5.8,5.8,0,0,1,3.22-.2c1.58.47,2.79,1.4,4.5,1.58,1.08.12.73-1.75-.17-1.87Z"/><path d="M113.73,268.21a32.4,32.4,0,0,1,6,8.49c1.62,3,3.26,5.87,5.06,8.73q6.74,10.69,13.61,21.31,13.84,21.48,28.44,42.45Q181.3,370,196.22,390.37q14.57,20,29.79,39.51c10,12.74,20.07,25.48,29,39a54.2,54.2,0,0,1,3.1,5.24c.3.58,1.21.38.88-.28a87.2,87.2,0,0,0-6-9.82q-3.42-5.08-7-10.06c-4.76-6.67-9.69-13.23-14.66-19.75-10-13.13-20.14-26.14-29.91-39.44q-15.1-20.58-29.82-41.43c-9.82-14-19.4-28.15-28.91-42.35q-7.11-10.64-14.05-21.39c-2.14-3.33-4.37-6.61-6.31-10.07a80.8,80.8,0,0,0-5.09-8.54,23.1,23.1,0,0,0-3-3.43c-.48-.43-.87.28-.45.67Z"/><path d="M229.08,474.83c1.31,1.8,2,4,3.2,5.84.63,1,1.23,2,1.92,3,.56.77,1.54,1.64,1.91,2.3a19.91,19.91,0,0,0,1.63,2.86c.73.88,1.57,1.66,2.37,2.48a15.63,15.63,0,0,1,1.95,2.11c.3.45.47.95.79,1.39.11.16.24.3.36.45s.33.47.32.45c.28,1.77,3,2.05,2.77,0-.1-1.06-.94-1.71-1.33-2.64s-.6-2.24-1.13-3.29a25.67,25.67,0,0,0-1.87-3.05,26.2,26.2,0,0,1-1.52-2.54,17.83,17.83,0,0,0-2.24-2.76c-.83-.94-1.63-1.91-2.45-2.84-1.64-1.85-3.18-3.78-4.91-5.55-1.3-1.34-2.74.53-1.77,1.87Z"/><path d="M105.41,266.06a11.25,11.25,0,0,0,2-.5c.75-.21,1.51-.29,2.26-.46,1-.24,1.93-.73,3-.89.75-.12,1.49-.17,2.23-.36,1.66-.44,3.17-1.29,4.81-1.79a19.38,19.38,0,0,1,2.5-.39,28.23,28.23,0,0,0,2.86-.81,17.92,17.92,0,0,1,2.88-.58,17.59,17.59,0,0,0,2.61-.24,39.55,39.55,0,0,1,4.92-1.06c1.19-.11,2.88-.39,3.92.32s1.53,1.87,2.88,2c1,.07.51-1.23,0-1.52-1.1-.68-1.7-1.95-2.92-2.48a8.27,8.27,0,0,0-3.86-.32,26.93,26.93,0,0,0-4.63.84c-1.85.48-3.72.47-5.59.91-.91.22-1.78.5-2.67.79a22.77,22.77,0,0,1-2.83.54,34.93,34.93,0,0,0-4.9,1.85,16.82,16.82,0,0,1-2.61.63,16,16,0,0,0-2.63.91c-.75.29-1.55.37-2.31.64s-1.43.92-2.24,1.21c-.42.15-.11.83.27.79Z"/><path d="M118.65,266.26a25.22,25.22,0,0,0,4.93-.93,51.35,51.35,0,0,0,5.16-1.46c1.76-.54,3.58-.72,5.35-1.17,1.47-.38,2.62-1.59,4.13-1.77.56-.07.34-.82-.09-.93a8.37,8.37,0,0,0-4.17.41c-1.75.47-3.55.66-5.28,1.16s-3.33,1.32-5,1.84a35.46,35.46,0,0,1-5.25,1.65c-.76.11-.39,1.2.26,1.2Z"/><path d="M99.85,276.29c7.41-8.68,15.47,4.76,18.75,10.65,1.39,2.5,2.89,4.91,4.45,7.31q4.07,6.28,8.2,12.51c3.93,5.92,8,11.78,12,17.67q7.06,10.41,14.16,20.8,7.53,11,15.09,22.06,7.32,10.71,14.67,21.39c4.32,6.27,8.65,12.48,13.23,18.56,3.48,4.6,6.74,9.36,10.09,14.06,1.83,2.56,3.72,5.12,5.74,7.55.1.12.2.25.31.36s.62.65.3.28-.14-.1-.08,0c.76.93,2,0,1.23-.93-.06-.08-.24-.28,0,.09s-.09-.19-.19-.36-.2-.3-.29-.44l-.38-.58-.46-.71c-.9-1.38-1.81-2.74-2.7-4.12-2.9-4.47-6-8.81-9-13.21-1.87-2.75-3.74-5.87-5.59-8.8-2.09-3.32-4.35-6.52-6.57-9.75q-7.34-10.67-14.64-21.34Q170.51,358.16,162.9,347q-7.32-10.74-14.61-21.48Q142,316.29,135.77,307c-3-4.49-6.12-8.94-9.16-13.42-1-1.4-1.9-2.81-2.83-4.23-.3-.45-.6-.9-.89-1.36-.1-.16-.2-.33-.31-.49-.32-.5.25.46,0,.09a59,59,0,0,0-7.48-11.16c-2.86-3.27-7.07-7.16-11.82-6.09-2.34.52-4.14,2.31-5.52,4.17-.83,1.12,1.06,2.9,2,1.75Z"/><path d="M275.35,543.35c-.15-.27-.15-.25,0,.07a5.55,5.55,0,0,0,.24.56c.19.43.4.83.62,1.24s.53,1,.81,1.48c.48.85,1,1.68,1.49,2.52q1.86,3,3.81,6c2.42,3.67,5,7.26,7.46,10.87,1.15,1.67,3.65.57,2.72-1.4-2-4.18-4.77-8-7.39-11.76-1.35-2-2.72-3.9-4-5.89-.27-.4-.53-.8-.79-1.21l-.29-.45c-.29-.48.22.37,0-.07-.89-1.49-1.52-3.42-2.85-4.56a1.6,1.6,0,0,0-2.34.07,2.07,2.07,0,0,0,.57,2.57Z"/><path d="M326.84,617.67a109.88,109.88,0,0,0,6.91,10.59q6.06,8.75,12.38,17.31t13,17.2a93.84,93.84,0,0,0,9,10.69c1.94,1.86,4.78,2.54,7.38,2.78,5.93.54,11.82-1.57,17-4.24.79-.41.09-1.78-.65-1.43-4.75,2.25-10,4.12-15.34,4-2.49,0-5.65-.62-7.3-2.08-3.17-2.82-5.77-6.45-8.43-9.74-8.7-10.77-16.94-21.95-25-33.22a122.56,122.56,0,0,1-8.22-12.14c-.26-.48-1-.31-.73.23Z"/><path d="M393.74,670.79c4.24-3.71,6.77-9,9.06-14.07,1.3-2.85,2.49-5.75,3.63-8.67A47.59,47.59,0,0,0,409,640.4c.12-.56-.78-1.56-1.19-.82a52,52,0,0,0-2.91,7.11c-1.09,2.85-2.23,5.7-3.46,8.5s-2.59,5.64-4.11,8.34a40.05,40.05,0,0,1-4.32,6.52c-.31.35.33,1.06.69.74Z"/><path d="M230.76,452.33c.71,1.4,1.32,2.83,2.11,4.19s1.64,2.72,2.45,4.08c1.67,2.79,3.37,5.53,5.24,8.2,3.72,5.27,7.5,10.75,12,15.4a1.71,1.71,0,0,0,2.71-2.05c-3.17-5.55-7.57-10.44-11.49-15.48s-7.9-9.9-11.28-15.24a1,1,0,1,0-1.73.9Z"/><path d="M286.24,526.18c1.22,2.13,2.43,4.21,3.79,6.26s2.8,4.22,4.16,6.36a20.23,20.23,0,0,0,1.8,2.74,15.48,15.48,0,0,1,1.81,2.39,68.77,68.77,0,0,0,4.4,6.06c1.29,1.71,3.29.13,2.15-1.62-1.3-2-2.58-4-3.84-6a13.4,13.4,0,0,0-1.88-2.53,16.42,16.42,0,0,1-1.91-2.62c-1.31-2-2.68-3.94-4-5.89s-3-4.07-4.45-6.13c-.84-1.17-2.8-.38-2,1Z"/><path d="M332.11,596.72c1.2,1.66,2.3,3.45,3.58,5s2.84,3.39,4.16,5.17,2.48,3.63,3.68,5.45,2.6,3.93,3.84,5.94c2.38,3.87,5.18,7.48,7.47,11.4a30.34,30.34,0,0,1,1.69,2.84,25,25,0,0,0,1.62,3.18,53.63,53.63,0,0,0,4.06,5.43c3.18,3.92,6.3,8.08,10,11.5a.78.78,0,1,0,1.07-1.14c-3-3.29-5.32-7.15-8-10.66-1.44-1.87-2.9-3.71-4.26-5.64s-2.11-3.9-3.36-5.76-2.39-3.73-3.7-5.54-2.64-3.74-3.84-5.7c-2.38-3.91-4.82-7.77-7.28-11.63a33,33,0,0,0-4.53-5.61c-1.69-1.69-3.21-3.55-4.81-5.33-.91-1-2.23-.09-1.41,1.06Z"/><path d="M374.25,653.74c.28,0,.15-.43-.09-.43s-.15.43.09.43Z"/><path d="M333.94,587.18c5.22,6.6,10,13.45,14.93,20.28,2.38,3.33,4.77,6.66,7.31,9.87.57.73,1.23,1.35,1.84,2a19.71,19.71,0,0,1,1.66,2.4,19.63,19.63,0,0,0,4.12,5c1.45,1.13,3.3-.06,2.46-1.85a50.18,50.18,0,0,0-3.49-5.48,25.83,25.83,0,0,0-1.66-2.46c-.59-.69-1.25-1.29-1.81-2-2.51-3.23-4.91-6.55-7.42-9.78-5.17-6.63-10.09-13.43-15.63-19.75-.55-.62-1.47-1.14-2.24-.58a1.68,1.68,0,0,0-.07,2.31Z"/><path d="M368.46,625a44.36,44.36,0,0,0,3.73-6.75c1-2.52,2.05-5,3.19-7.54a22.59,22.59,0,0,0,1.38-3.47,16.91,16.91,0,0,1,1.62-3.79c.3-.54.38-1.1.63-1.65s.54-.87.75-1.35c.5-1.17,1-2,.46-3.23-.21-.53-1.05-1.08-1.58-.63-1.7,1.44-2.12,3.51-3.11,5.42a22.47,22.47,0,0,0-1.56,3.51,28.21,28.21,0,0,1-1.56,3.62c-2.2,4.68-4.5,9.31-6.67,14-.63,1.36,1.79,3.34,2.72,1.87Z"/><path d="M392.53,655.12a9.16,9.16,0,0,1-3,2.52,7.76,7.76,0,0,1-4.22,0c-3-.56-5.34-2.45-7.84-4-.76-.46-1.1.53-.73,1.07a14.07,14.07,0,0,0,3.91,3.37,12,12,0,0,0,5,2,9.17,9.17,0,0,0,4.93-.12,9.42,9.42,0,0,0,3.48-3.19c.61-.75-.76-2.32-1.48-1.57Z"/><path d="M98.87,281.47a77.9,77.9,0,0,0,5.16,8.21c1,1.49,2.06,2.87,3.06,4.33s1.85,3.18,2.85,4.72c.75,1.16,1.52,2.32,2.29,3.47l4.76,7q9.75,14.4,19.51,28.78c8.54,12.59,17.21,25.09,25.86,37.59,7.79,11.26,15.46,22.59,23.2,33.88,3.95,5.77,7.74,11.7,11.92,17.31.09.12.17.25.27.36,1.08,1.27,2.8,0,1.71-1.29a48.45,48.45,0,0,1-2.86-4.1l-7-10.26q-11.09-16.29-22.14-32.6c-8.59-12.68-17-25.5-25.57-38.15l-20.79-30.58-5.78-8.52-1.26-1.86c-.53-.79-1.06-1.59-1.58-2.39-.93-1.41-1.74-2.89-2.63-4.32s-2.13-2.85-3.14-4.31-1.81-2.85-2.83-4.2a25.36,25.36,0,0,1-2.49-3.91c-.84-1.68-3.43-1.1-2.51.81Z"/><path d="M251,412.33a27.8,27.8,0,0,1,9.78,4.9,75.53,75.53,0,0,1,6.72,6.3,124.34,124.34,0,0,0,18.74,15.74c14.34,9.92,30.42,16.56,46.5,23.11,15.27,6.21,30.6,12.44,44.66,21.14a130.64,130.64,0,0,1,19.72,14.74,182.72,182.72,0,0,1,15.51,16.45c10.06,11.84,19.09,24.46,28.37,36.91q1.49,2,3,4c.7.9,1.8.06,1.16-.87-8.66-12.57-18-24.82-27.64-36.62-5-6-10.11-12-15.65-17.47a126.79,126.79,0,0,0-18.13-14.88c-13.81-9.44-29.11-16.18-44.54-22.51-16.13-6.63-32.64-12.88-47.41-22.29a122.38,122.38,0,0,1-20.57-16c-2.31-2.3-4.48-4.73-6.88-6.94a31.28,31.28,0,0,0-8-5.24,39.09,39.09,0,0,0-5.35-2c-1.07-.31-.92,1.35-.05,1.62Z"/><path d="M381.82,597.6c.31,1.62,1.54,2.72,2.45,4,1.17,1.69,2.3,3.41,3.42,5.13,2.23,3.42,4.36,6.89,6.46,10.38,4.26,7.08,8.83,13.91,13.51,20.72,2.66,3.87,5.28,7.79,8.13,11.53.57.75,1.81.28,1.31-.68-3.71-7.09-8.68-13.52-13.16-20.13s-8.52-13.53-13-20.18q-1.89-2.83-3.88-5.61c-.64-.88-1.26-1.78-2-2.62a7.26,7.26,0,0,1-1.88-2.59c-.22-.86-1.63-1.06-1.42,0Z"/><path d="M410.77,643.63c.93.59,1.81,1.29,2.78,1.8s2.21,1,3.3,1.43c2.23,1,4.32,2.26,6.52,3.31,4.29,2,8.56,4,12.64,6.47.85.51,1.22-.76.59-1.27-3.72-3-8.23-4.79-12.52-6.79-2.13-1-4.18-2.21-6.35-3.08a66.49,66.49,0,0,1-6.64-2.92c-.76-.41-.89.69-.32,1Z"/><path d="M366.57,672.15a13.84,13.84,0,0,1,.88,7.65c-.54,2.41-1.87,4.59-2.83,6.85-.32.75,1.07,1.87,1.49,1,1.22-2.46,2.73-4.83,3.18-7.59a16.61,16.61,0,0,0-1.15-8.44c-.42-1.11-2-.72-1.57.51Z"/><path d="M443.84,552.47c.49,3.47,2.67,6.14,4.56,9a21.25,21.25,0,0,1,2.48,5.44c.61,1.87,1.54,3.6,2.29,5.41a49.8,49.8,0,0,1,1.84,6.1c.53,2,1.39,3.8,1.87,5.77a59.65,59.65,0,0,1,1,6.24c.29,2.17.75,4.3,1.14,6.45s.58,4.15,1,6.18a49.18,49.18,0,0,0,1.84,5.62c.68,1.9,1.14,3.87,1.83,5.77s1.69,3.52,2.43,5.33,1.49,3.78,2.44,5.59,2,3.58,3.14,5.32,2.27,3.31,3.35,5,1.88,3.52,3.09,5.16c.67.9,1.37,1.78,2,2.7a15.69,15.69,0,0,1,1.57,3,18,18,0,0,0,1.69,2.65c.66,1,1.2,2,1.78,3.06,2.23,3.94,5.13,7.4,7.49,11.24a.82.82,0,1,0,1.46-.76c-1.41-3.68-4.1-6.58-6-10a51.3,51.3,0,0,0-3.09-5.33c-1.11-1.54-1.66-3.33-2.74-4.91s-2.53-3.21-3.54-5a53,53,0,0,0-3.08-5,57.23,57.23,0,0,1-6.18-10.38c-.77-1.78-1.42-3.61-2.33-5.33a32.34,32.34,0,0,1-2.37-5.59c-.61-1.91-1.35-3.75-2.05-5.62a38.52,38.52,0,0,1-1.57-6.15c-.85-4.17-1.84-8.29-2.6-12.47a32.21,32.21,0,0,0-1.57-5.69,60,60,0,0,1-1.59-5.92,50.24,50.24,0,0,0-2.31-6.32c-.82-2-1.11-4.19-2.13-6.07-1.92-3.53-5.08-6.47-6.11-10.45-.17-.66-1.22-.83-1.1,0Z"/><path d="M277.2,448.16a7,7,0,0,1,.93-.22l-.47.07a6.32,6.32,0,0,1,1.44-.05,1.11,1.11,0,0,0,.69-.19,1.1,1.1,0,0,0,.55-.47,1.29,1.29,0,0,0,.25-.69,1.59,1.59,0,0,0,0-.78,2.75,2.75,0,0,0-.9-1.49,2.3,2.3,0,0,0-1.47-.58,8.86,8.86,0,0,0-1.62.2,6.7,6.7,0,0,0-1.15.37,1.1,1.1,0,0,0-.56.38,1.13,1.13,0,0,0-.36.59,1.6,1.6,0,0,0,0,.72,1.9,1.9,0,0,0,.19.77,2.65,2.65,0,0,0,1.13,1.21,1.92,1.92,0,0,0,1.41.16Z"/><path d="M311.69,496.11c3.5-1.1,6.39-3.17,9.57-4.93a49,49,0,0,1,9.77-4.25c1.52-.44.4-3-.94-2.83a27.94,27.94,0,0,0-10.49,3.5c-3.17,1.78-5.92,4-9.4,5.27-1.9.67-.27,3.79,1.49,3.24Z"/><path d="M329.78,517q2.6-.36,5.18-.91c.33-.07.36-.53.24-.78a.72.72,0,0,0-.8-.44c-1.64.28-3.29.49-4.94.64a.6.6,0,0,0-.52.76c.07.34.44.78.84.73Z"/><path d="M127.29,336.72c0,3-.32,5.9-.07,8.88.23,2.78,1.16,5.5,1.71,8.23.58,2.94,1.39,5.84,2.17,8.74a80.13,80.13,0,0,1,2.22,8.62c.22,1.43.32,2.88.58,4.31s.71,2.87,1.12,4.3c.77,2.71,1.57,5.4,2.38,8.11a10.69,10.69,0,0,0,1.63,3.21c.84,1.19.86,2.63,1.11,4,.49,2.64,2,4.8,2.88,7.31a18.83,18.83,0,0,1,1,3.82,37.58,37.58,0,0,0,1,4c.32,1.37.45,2.8.64,4.19s.53,2.95.73,4.43c.4,2.95.7,5.92,1.2,8.86a66.06,66.06,0,0,0,2.15,8.15c.4,1.3.56,2.64.92,3.95s.9,2.74,1.31,4.12a19.35,19.35,0,0,0,3.29,6.93c.8,1,1.67,2,2.51,3a17.94,17.94,0,0,1,2.42,3c.51,1,1.33,2.22,1.76,2.94,1.78,3,3.42,6.12,5.28,9.1.93,1.49,1.87,3,2.85,4.46a21.23,21.23,0,0,0,1.93,2.44c.85.88,1.6-.49.86-1.27.45.48,0-.1-.13-.25,0,0-.15-.28-.18-.33l-.89-1.54c-.71-1.26-1.4-2.54-2.08-3.82-1.5-2.84-3.08-5.62-4.71-8.38-.51-.88-1-1.76-1.57-2.62-.41-.65-.71-1.33-1.08-2a22.19,22.19,0,0,0-2.51-3.21c-1.54-1.88-3.32-3.7-4.25-6-.5-1.21-.83-2.48-1.21-3.72s-.91-2.63-1.25-4c-.66-2.69-1.59-5.3-2.38-7.95a59.67,59.67,0,0,1-1.7-8.39c-.43-2.93-.89-5.83-1.07-8.8-.17-2.7-1.11-5.2-1.56-7.84a32.64,32.64,0,0,0-2.62-7.51,12.93,12.93,0,0,1-1-3.38,14,14,0,0,0-.88-3.95c-.52-1.09-1.31-1.86-1.61-3.06s-.63-2.65-1-4-.57-2.62-.9-3.93-.77-2.83-1-4.28-.31-3.2-.54-4.79a37.91,37.91,0,0,0-1.15-4.93c-.9-3.15-2-6.26-2.85-9.42-.45-1.59-.79-3.2-1.19-4.81s-.94-3-1.36-4.52a26.56,26.56,0,0,1-.74-4.6c-.19-1.83-.45-3.65-.48-5.49,0-.92-1.59-1.57-1.6-.41Z"/><path d="M182.64,455.84a3.5,3.5,0,0,0,1.12-1.92c.19-1,.44-1.93.69-2.9a43.86,43.86,0,0,0,.84-5.69,40.2,40.2,0,0,1,1.61-5.67,7.84,7.84,0,0,1,.37-1.28,9.71,9.71,0,0,1,.64-1,4.18,4.18,0,0,0,.48-1c.06-.17.09-.54.27-.64l-.64-.07c.23.15.61.42.91.61.15.09.29.17.43.27s.13.22.15,0c0,.92,1.48,1.53,1.56.4a1.92,1.92,0,0,0-.84-1.55c-.25-.2-.52-.37-.78-.54s-.25-.18-.37-.24-.22-.3-.07,0a1.1,1.1,0,0,0-.94-.66c-.92,0-1.1.79-1.37,1.52s-.85,1.26-1.14,2c-.37.92-.55,1.94-.84,2.89s-.71,1.92-.93,2.92c-.42,1.88-.36,3.83-.7,5.73-.18,1-.45,2-.65,3-.14.74-.09,2.06-.74,2.55s.37,1.81.94,1.25Z"/><path d="M189.15,434.8c1.56-.67,2.45-2.27,3.88-3.14.83-.5,1.67-.92,2.47-1.46a7.64,7.64,0,0,1,2.71-1,16.63,16.63,0,0,1,2.9-.34A13.57,13.57,0,0,1,204,429a24.67,24.67,0,0,1,6.13,2.09c.93.46,1.83,1,2.77,1.44a13.78,13.78,0,0,1,2.35,1.3,7.08,7.08,0,0,1,2,1.67,15.78,15.78,0,0,0,2,2.31,17.66,17.66,0,0,1,1.8,2.42,5.59,5.59,0,0,1,.93,2.55,26.94,26.94,0,0,0,.67,3.06c.27,1.06.49,2.14.75,3.21.5,2.11.42,4.28.8,6.41a18.93,18.93,0,0,1,.31,3.09c0,1,.24,2,.32,3s0,2.18,0,3.26,0,2.11-.05,3.16a29.29,29.29,0,0,1-1.45,6,30.66,30.66,0,0,1-2.21,5.93,29.59,29.59,0,0,0-1.42,2.88c-.39,1-.74,1.94-1.11,2.91a17.53,17.53,0,0,0-.73,6.28l0,6.9c0,4.55,0,9.09.06,13.63a26,26,0,0,1-.1,3.3c-.11,1.08-.31,2.16-.44,3.24-.26,2.2-.48,4.4-.78,6.59a25.91,25.91,0,0,1-.57,3c-.27,1.06,1.31,2.2,1.86,1,.89-2,1-4.31,1.27-6.44.16-1.15.24-2.32.38-3.48s.34-2.23.46-3.36a62.25,62.25,0,0,0,0-6.83l0-7c0-2.39,0-4.78,0-7.16a45.91,45.91,0,0,1,.12-6.84,15.56,15.56,0,0,1,1-3,23.29,23.29,0,0,1,1.17-2.89,35,35,0,0,0,2.64-6.05c.32-1,.6-2.1.94-3.14a22.33,22.33,0,0,0,.88-3.1,38.51,38.51,0,0,0,.3-6.53,24,24,0,0,0-.2-3.29c-.15-1.05-.09-2.11-.18-3.16s-.36-2.14-.51-3.21-.12-2.24-.25-3.35a56,56,0,0,0-1.57-6.63,29.74,29.74,0,0,0-.63-3,11,11,0,0,0-1.7-2.83,17.2,17.2,0,0,0-2.1-2.41,6.51,6.51,0,0,1-.9-1,7.87,7.87,0,0,0-.94-1.27,18.13,18.13,0,0,0-2.24-1.64,18.83,18.83,0,0,0-2.68-1.38c-1-.48-1.9-1-2.89-1.46a32.72,32.72,0,0,0-3.18-1.17,19.8,19.8,0,0,0-3.21-.79,15.51,15.51,0,0,0-3,0,18.27,18.27,0,0,0-2.94.42,9.62,9.62,0,0,0-2.82,1,12.55,12.55,0,0,0-1,.76c-.41.31-.86.54-1.3.81a9.54,9.54,0,0,0-2.1,1.75,6.64,6.64,0,0,1-1.91,1.79c-.65.31-.08,1.41.52,1.15Z"/><path d="M180.79,455.46a2.36,2.36,0,0,0-2.25.71,15.07,15.07,0,0,0-1.76,2.3,13,13,0,0,0-1.34,2.79c-.37,1.08-.55,2.21-.87,3.3a22.11,22.11,0,0,0-.85,3.22,23.46,23.46,0,0,1-.66,3.19,30.09,30.09,0,0,0-.74,3.36,19.71,19.71,0,0,1-.66,3.25,41.19,41.19,0,0,0-1.39,6.78,59.82,59.82,0,0,1-1.71,6.83,60.61,60.61,0,0,0-1.65,7.05c-.39,2.36-.91,4.68-1.38,7-.24,1.15-.35,2.32-.6,3.47s-.51,2.33-.69,3.51c-.34,2.29-.77,4.54-1.27,6.8a27.68,27.68,0,0,0-.63,3.6c-.1,1.2-.22,2.39-.42,3.59s-.45,2.43-.6,3.66-.2,2.4-.39,3.59a29.46,29.46,0,0,0-.57,3.36,13.12,13.12,0,0,0,.45,3.1c.44,2.2,1.42,4.25,2,6.4a17.52,17.52,0,0,0,1.09,3,25.24,25.24,0,0,0,1.91,3c1.36,1.91,2.85,3.72,4.34,5.53s3.06,3.57,4.73,5.22a59.31,59.31,0,0,1,4,5c1.54,1.89,3,3.88,4.61,5.68a11.75,11.75,0,0,1,1.9,2.27,15,15,0,0,0,1.78,2.74c.71.85,1.49,1.63,2.27,2.41a1,1,0,0,0,1.45,0,1.26,1.26,0,0,0-.36-1.57c-.7-.71-1.42-1.41-2.05-2.19a19.31,19.31,0,0,1-1.51-2.5,18.53,18.53,0,0,0-2.05-2.47c-.76-.9-1.49-1.84-2.22-2.77-1.38-1.75-2.76-3.49-4.09-5.28s-2.86-3.25-4.31-4.88-3-3.45-4.39-5.22a41.11,41.11,0,0,1-3.82-5.27,11.79,11.79,0,0,1-1-2.64c-.31-1.07-.66-2.12-1-3.17a22.52,22.52,0,0,1-1-3c-.11-.47-.17-1-.27-1.44a5.15,5.15,0,0,1-.17-1.35c.09-1.13.4-2.24.56-3.35s.24-2.35.38-3.51c.28-2.35.8-4.65,1-7a60.11,60.11,0,0,1,1.28-6.63c.43-2.24.69-4.5,1.18-6.73.25-1.11.36-2.24.58-3.36s.5-2.22.74-3.34c.47-2.27.73-4.58,1.23-6.86s1.23-4.53,1.85-6.79a57.61,57.61,0,0,0,1.36-6.75,24,24,0,0,1,.67-3.25,20.92,20.92,0,0,0,.85-3.1c.14-1.08.29-2.15.51-3.22s.61-2.15.81-3.25.22-2.08.51-3.1.53-2.09.73-3.17a15.9,15.9,0,0,1,2.27-5.73c.42-.67.87-1.48,1.76-1.51.72,0,.45-1.11-.11-1.21Z"/><path d="M192.2,574.05c1-1.86,1.91-3.79,3-5.59.57-.91,1.25-1.72,1.9-2.57s1.35-1.89,2-2.84c1.27-1.83,2.82-3.43,4.09-5.26s2.47-3.92,3.75-5.85a44.75,44.75,0,0,1,4.2-5.41,31.31,31.31,0,0,0,3.75-5.44,48.09,48.09,0,0,0,3.24-5.88c.39-1,.64-2,1.07-2.91s1-1.69,1.4-2.56a14.56,14.56,0,0,1,1.47-2.72,29.94,29.94,0,0,0,1.89-2.58,27.38,27.38,0,0,1,1.9-2.53c.66-.85,1.25-1.76,1.92-2.6s1.37-1.37,2-2.13,1.28-1.66,2-2.45c1.52-1.72,3.14-3.38,4.79-5a41,41,0,0,1,5-4,42.23,42.23,0,0,0,5-3.85c.78-.76,1.5-1.59,2.24-2.4s1.44-1.42,2.1-2.19a18,18,0,0,1,1.84-2.15c.86-.74,1.67-1.52,2.47-2.32s1.66-1.67,2.47-2.52,1.34-1.71,2.14-2.44a15,15,0,0,0,2-2,15.33,15.33,0,0,1,1.45-1.87,2.39,2.39,0,0,1,2.31-.55,8.85,8.85,0,0,1,2.63.82,2.71,2.71,0,0,1,.69.66,18.57,18.57,0,0,0,1.26,1.39,11,11,0,0,1,1.7,1.9,2.9,2.9,0,0,1,.25,2c-.16,1,1.81,2,2,.78a5.39,5.39,0,0,0-.24-2.95,7.47,7.47,0,0,0-1.58-2.24c-.73-.77-1.46-1.53-2.16-2.34a5.2,5.2,0,0,0-2.38-1.55c-1.82-.6-4.2-1.43-5.84,0a11.75,11.75,0,0,0-1.69,2,14.19,14.19,0,0,1-1.94,2c-.82.76-1.44,1.67-2.19,2.49s-1.67,1.72-2.52,2.57-1.66,1.57-2.52,2.33a23.72,23.72,0,0,0-2.06,2.42c-.69.79-1.47,1.5-2.18,2.28a31.68,31.68,0,0,1-2.2,2.29,60.74,60.74,0,0,1-5.32,4,40.7,40.7,0,0,0-5.11,4.34c-1.69,1.71-3.4,3.42-4.94,5.28-.68.81-1.25,1.73-2,2.48a16.29,16.29,0,0,0-2,2.27c-.67.92-1.34,1.81-2.07,2.69s-1.18,1.87-1.84,2.76a17,17,0,0,0-1.86,2.59c-.49,1-1,2-1.5,2.95a16.23,16.23,0,0,0-1.25,2.75,17.87,17.87,0,0,1-1.17,2.91c-1.14,2.07-2.32,4.14-3.56,6.16a24.23,24.23,0,0,1-2,2.92c-.69.83-1.46,1.59-2.12,2.45-2.93,3.83-5,8.21-8.05,12-.72.9-1.45,1.79-2.09,2.74s-1.29,2-2,3-1.32,1.79-1.88,2.76a31.84,31.84,0,0,0-1.49,3c-.44,1-.87,2-1.32,3-.25.54.75,1.35,1.08.74Z"/><path d="M267.88,483.65a4.56,4.56,0,0,1,2.25-.91,12.32,12.32,0,0,1,2.7-.34l3.52.05a24,24,0,0,1,3.38.39A8.62,8.62,0,0,1,285,486a20.35,20.35,0,0,1,3.34,5.49,19.64,19.64,0,0,1,1.16,6,24.52,24.52,0,0,1-.39,6.4c-.26,1.22-.75,2.38-1.13,3.57s-.62,2.25-.91,3.38a72.63,72.63,0,0,1-2.32,7.05c-.85,2.25-1.47,4.58-2.31,6.83-.76,2-1.52,4-2.29,6.05a23.83,23.83,0,0,1-2.87,5.59c-.66.9-1.29,1.81-1.95,2.71-.33.45-.74.83-1.09,1.26s-.7.91-1.1,1.31c-.83.83-1.68,1.65-2.55,2.43s-1.82,1.44-2.75,2.14c-.4.31-.75.67-1.14,1a4.58,4.58,0,0,1-1.3.76,4.83,4.83,0,0,0-1.32.76c-.37.33-.69.71-1.08,1a8.94,8.94,0,0,0-2.36,2.31c-.53,1-.83,2-1.29,3a26.67,26.67,0,0,0-1.33,3.11c-.37,1.17-.65,2.36-.95,3.55a51.5,51.5,0,0,1-2.15,7,43.81,43.81,0,0,1-3.28,6.16c-1.33,2.11-2.8,4.13-4.18,6.21a58.48,58.48,0,0,1-4,5.73c-.7.82-1.45,1.59-2.21,2.36a1.21,1.21,0,0,0-.05,1.64c.3.4,1.13.87,1.59.4a32.25,32.25,0,0,0,4.5-5.26c1.38-2.17,2.86-4.27,4.33-6.38a46.09,46.09,0,0,0,6.81-13.29c.7-2.41,1.14-4.93,2-7.3.39-1.1.93-2.13,1.39-3.2a8.42,8.42,0,0,1,1.38-2.8,16.36,16.36,0,0,1,1.28-1.06c.42-.34.76-.75,1.16-1.1.78-.7,1.87-.91,2.67-1.62s1.77-1.42,2.67-2.13,1.88-1.64,2.77-2.52a36.09,36.09,0,0,0,2.44-2.66c.35-.43.75-.82,1.08-1.28s.66-1,1-1.52a29.63,29.63,0,0,0,1.9-2.73,26.23,26.23,0,0,0,1.46-3c.86-2,1.53-4.13,2.34-6.18.92-2.31,1.54-4.7,2.37-7s1.81-4.8,2.46-7.3c.31-1.2.59-2.41.92-3.61s.8-2.4,1.15-3.61a22.78,22.78,0,0,0,.59-6.79,24.08,24.08,0,0,0-1-6.42,21,21,0,0,0-3.19-5.94,14.43,14.43,0,0,0-2.34-2.71,13.46,13.46,0,0,0-2.78-1.66,9.35,9.35,0,0,0-3.17-.74,25.71,25.71,0,0,0-3.51-.17c-1.18.05-2.4,0-3.58.09a14.48,14.48,0,0,0-2.52.53,5.62,5.62,0,0,0-2.18,1c-.43.4.24,1.28.67.89Z"/><path d="M191.59,571.77c0,1.94-1,3.67-1.71,5.42-.38.93-.72,1.88-1.07,2.82s-.73,1.68-1.11,2.52-.6,1.79-1,2.66a27.77,27.77,0,0,0-1,2.79c-.54,1.85-1.35,3.61-1.85,5.48a16.82,16.82,0,0,0-.59,6,13.55,13.55,0,0,0,.45,2.85,14.56,14.56,0,0,0,1.18,2.33c.88,1.69,1.46,3.53,2.42,5.19a37.55,37.55,0,0,0,3.26,4.57,27.88,27.88,0,0,0,4.06,4.28c1.48,1.19,2.82,2.52,4.39,3.59,3.25,2.21,6.08,4.9,9.17,7.32a46.22,46.22,0,0,0,4.84,3.51c1.65,1,3.41,1.73,5,2.73,3.33,2,6.65,4.07,10,6.07.83.51,1.68,1,2.53,1.48s1.66.8,2.41,1.32,1.3,1.06,2,1.52a22.57,22.57,0,0,0,2.33,1.11c.37.19.71.44,1.09.64a11.11,11.11,0,0,0,1.35.53c.91.31,1.79.7,2.69,1s1.83.59,2.74.9a19.51,19.51,0,0,1,2.65,1.16c.84.43,1.66.87,2.52,1.25,1.31.59,1.56-1.21.54-1.78a38.7,38.7,0,0,0-5.12-2.54c-.85-.33-1.74-.53-2.6-.84s-1.89-.77-2.84-1.12c-.39-.14-.79-.25-1.16-.41s-.73-.44-1.11-.64c-.76-.41-1.61-.62-2.34-1.09s-1.18-1-1.8-1.39c-.81-.56-1.71-1-2.57-1.45-1.64-.91-3.24-1.89-4.84-2.86s-3.35-2-5-3-3.19-2-4.86-2.94A31.57,31.57,0,0,1,212,630c-1.49-1.16-3-2.29-4.45-3.53s-2.93-2.54-4.46-3.73-3.2-2.16-4.63-3.43-2.89-2.38-4.18-3.72a30.48,30.48,0,0,1-6.14-8.72c-.37-.84-.72-1.68-1.13-2.5a16.65,16.65,0,0,1-1.23-2.32,13.36,13.36,0,0,1-.37-2.6,11.5,11.5,0,0,1,.14-3,49.44,49.44,0,0,1,1.81-6c.32-1,.54-2,.88-3.05s.7-2,1-3,.81-1.87,1.12-2.85.68-2.18,1-3.26a23,23,0,0,0,1.45-6c0-.79-1.31-1.28-1.32-.34Z"/><path d="M248.36,581.92c-.49.8,0,1.71.45,2.42a16.65,16.65,0,0,0,2,2.55c1.48,1.62,3,3.17,4.5,4.79,2.92,3.23,5.58,6.72,8.72,9.74.44.42.88.84,1.34,1.23a7.24,7.24,0,0,1,1.21,1.07,8,8,0,0,0,1.06,1.26,12.23,12.23,0,0,1,1.23.86,1.06,1.06,0,0,0,1.46.06,1.23,1.23,0,0,0,0-1.55c-.48-.68-1.26-1-1.73-1.62a13.57,13.57,0,0,0-2.2-2.15,50.79,50.79,0,0,1-4.14-4.16c-2.8-3.11-5.59-6.2-8.61-9.1-.81-.78-1.64-1.54-2.41-2.36a7.29,7.29,0,0,1-2-2.67c-.09-.33-.65-.82-.92-.37Z"/><path d="M306,549.13c-.53-.89-1.49-.72-2.34-.4a6.5,6.5,0,0,0-2.88,2.08c-1.79,2.22-3.2,4.75-4.91,7-.87,1.16-1.59,2.4-2.43,3.57s-1.81,1.76-2.49,2.88c-1.44,2.37-3,4.68-4.52,7-.79,1.15-1.29,2.47-2.05,3.64a18,18,0,0,0-1.91,3.6c-1,2.73-1.95,5.45-2.84,8.21s-2.11,5.57-3,8.4a22.35,22.35,0,0,1-2.05,3.94c-.73,1.31-1.41,2.65-2.08,4a18,18,0,0,0-1.68,3.75c-.34,1.41-.85,2.74-1.25,4.12a28.52,28.52,0,0,1-1.29,3.85,23.45,23.45,0,0,1-1.75,3.08c-2.62,4-6.13,7.3-8.29,11.56a31.42,31.42,0,0,0-1.49,3.77c-.22.63-.53,1.23-.76,1.86a12,12,0,0,0-.5,2.13c-.24,1.45-.52,2.88-.64,4.34a16.29,16.29,0,0,0,0,4.52,10.29,10.29,0,0,0,1.8,3.74,14.6,14.6,0,0,1,1.88,3.36,16.12,16.12,0,0,1,.73,3.82,5.57,5.57,0,0,0,2.07,3.38c1.06,1,2.08,2.1,3.13,3.15a31.85,31.85,0,0,1,2.66,3.13,28.81,28.81,0,0,0,5.57,5.94c2.2,1.6,4.72,2.68,6.94,4.25s5,2.61,7.53,3.93c1.23.65,2.46,1.29,3.66,2,1,.6,1.47-.9.7-1.5a40.87,40.87,0,0,0-7.21-4.2,25.38,25.38,0,0,1-3.56-1.91,34.06,34.06,0,0,0-3.33-2.12c-1.09-.6-2.2-1.18-3.23-1.88a23.09,23.09,0,0,1-2.89-2.52,8.48,8.48,0,0,1-1.11-1.42c-.39-.58-.88-1.07-1.31-1.62a34.55,34.55,0,0,0-2.55-3.11c-1-1.05-2.08-2.08-3.13-3.12-.44-.43-.9-.85-1.33-1.3a1.81,1.81,0,0,1-.48-1.27,15,15,0,0,0-2.54-7.29,10.66,10.66,0,0,1-1.88-3.26,12.74,12.74,0,0,1,0-4.18c.11-1.43.36-2.86.61-4.27a23.8,23.8,0,0,1,1.25-3.77,21.93,21.93,0,0,1,1.37-3.45,27.59,27.59,0,0,1,1.77-2.89c1.33-1.9,2.82-3.67,4.23-5.51a32.71,32.71,0,0,0,3.74-5.79,21.71,21.71,0,0,0,1.29-3.48c.37-1.33.89-2.62,1.24-4,.16-.63.25-1.29.47-1.9a14.4,14.4,0,0,1,.93-1.89c.67-1.29,1.26-2.61,2-3.88s1.51-2.56,2.18-3.88c.6-1.16.86-2.47,1.35-3.68,1.09-2.68,2-5.39,2.92-8.13.46-1.35,1-2.66,1.52-4a20.56,20.56,0,0,1,1.47-3.72c.68-1.17,1.48-2.25,2.08-3.47a37.24,37.24,0,0,1,2.1-3.33c.72-1.14,1.45-2.26,2.2-3.39a15.61,15.61,0,0,1,2-3.06,14.39,14.39,0,0,0,2.45-3.05c.77-1.22,1.63-2.38,2.42-3.58s1.46-2.33,2.2-3.49a21.57,21.57,0,0,1,2.29-3.22,5.61,5.61,0,0,1,1.2-1c.13-.07,1.14-.76,1.22-.68a.41.41,0,0,0,.65-.49Z"/><path d="M304.9,551.58a29.63,29.63,0,0,1,4.11.21,25,25,0,0,1,3.89,1.09,8.39,8.39,0,0,1,2.69,1.92c.5.44,1,.88,1.5,1.31l.57.47a1.76,1.76,0,0,1,.3.24c.15.18,0,0,0,0,.09.86,1.55,1.27,1.63.2a2,2,0,0,0-.77-1.61c-.53-.46-1.09-.89-1.62-1.35a14.64,14.64,0,0,0-3.37-2.61,12.55,12.55,0,0,0-2.09-.62c-.74-.17-1.48-.35-2.23-.46a27.31,27.31,0,0,0-4.87-.07c-.82,0-.41,1.25.26,1.27Z"/><path d="M306.09,549.7a22.37,22.37,0,0,1,5-.68,15.14,15.14,0,0,1,2.52,0c.91,0,1.8,0,2.7,0a8.13,8.13,0,0,1,2.4.38,10.1,10.1,0,0,1,2.33.89,6.43,6.43,0,0,1,1.29,1.41,14.78,14.78,0,0,0,1.87,1.67c1.25,1,2,2.36,3.22,3.4a8.33,8.33,0,0,1,1.3,1.7,24.17,24.17,0,0,1,1.41,2.06,27.07,27.07,0,0,1,2,4.82,30.89,30.89,0,0,1,1.13,5.13,28.64,28.64,0,0,1-.4,10.4c-.38,1.64-.71,3.28-1.09,4.92s-1.06,3.28-1.55,4.94-1,3.43-1.54,5.12-1.22,3.54-1.84,5.3-1.23,3.53-1.79,5.32c-.5,1.62-1.13,3.17-1.75,4.75a12.66,12.66,0,0,1-1.34,2.45,15.52,15.52,0,0,1-1.61,2.18c-.57.6-1.27,1.08-1.89,1.63a12.79,12.79,0,0,0-1.71,2,7.5,7.5,0,0,1-1.86,1.65c-.76.54-1.47,1.14-2.22,1.68s-1.51,1.22-2.28,1.81a2.14,2.14,0,0,0-1,2.24c.17,1,2,1.61,2,.25,0-.21.3-.39.45-.53.32-.31.65-.61,1-.9.68-.58,1.4-1.08,2.1-1.64s1.21-1,1.86-1.41a7.47,7.47,0,0,0,1.76-1.83,9.67,9.67,0,0,1,1.41-1.59c.61-.52,1.25-1,1.82-1.58a16.7,16.7,0,0,0,3-4.36,102.83,102.83,0,0,0,3.62-10.15c1.25-3.62,2.49-7.22,3.55-10.9.48-1.67,1.16-3.28,1.58-5s.74-3.5,1.15-5.24a30.45,30.45,0,0,0,.42-10.85,32.68,32.68,0,0,0-3.2-10.29,27.85,27.85,0,0,0-2.83-4.23,20.12,20.12,0,0,0-1.48-1.44c-.62-.67-1.06-1.5-1.65-2.19A20.24,20.24,0,0,0,324,551.1c-.62-.57-1.05-1.29-1.65-1.87A6.39,6.39,0,0,0,320,548a13.06,13.06,0,0,0-3-.81,18.72,18.72,0,0,0-2.9,0,28.86,28.86,0,0,0-2.94.08c-.49.07-.95.2-1.43.3s-.87.1-1.3.22-1,.38-1.44.54a8.13,8.13,0,0,0-1.28.46c-.47.25-.08,1,.4.87Z"/><path d="M314.5,621.88c0,.7.13,1.42.17,2.12s.1,1.59.18,2.38c.17,1.62.37,3.23.61,4.84s.53,3.15.74,4.73a43.57,43.57,0,0,1,.63,4.38c0,1.36.34,2.69.25,4a4.12,4.12,0,0,0,1.27,3.66c.46.4,1,.7,1.47,1.1s1.15,1,1.7,1.45a17.9,17.9,0,0,1,1.37,1.52,16.92,16.92,0,0,0,1.78,1.6c.64.53,1.25,1.09,1.88,1.62a19.3,19.3,0,0,1,1.73,1.53,11.72,11.72,0,0,1,2.38,3.85,1.33,1.33,0,0,0,1.5.81c.64-.21.66-.92.46-1.45a14.66,14.66,0,0,0-2-3.67,18.24,18.24,0,0,0-3.06-3c-.58-.49-1.14-1-1.73-1.47a12.7,12.7,0,0,1-1.61-1.41,18.27,18.27,0,0,0-1.39-1.53c-.58-.53-1.2-1-1.79-1.51s-1-.68-1.42-1-.41-.56-.4-1.07a18,18,0,0,0,0-1.8c-.06-.72-.23-1.43-.26-2.15s-.06-1.44-.14-2.15a20.74,20.74,0,0,0-.49-2.21c-.35-1.56-.62-3.13-.92-4.7s-.61-3.45-.85-5.19c-.12-.88-.24-1.76-.32-2.65-.05-.43-.09-.87-.15-1.31a2.46,2.46,0,0,0-.1-.47c-.05-.17-.28-.5-.28-.57,0-.73-1.28-1.22-1.26-.32Z"/><path d="M289,682.19c1.55-.17,2.79,1.4,3.75,2.41,1.38,1.47,2.89,2.82,4.36,4.21,1.72,1.63,3.45,3.25,5.16,4.89a23.33,23.33,0,0,0,2.53,2,33.7,33.7,0,0,1,2.6,2.18,35.08,35.08,0,0,0,5.33,4.09c.9.53,1.84,1,2.72,1.54s1.64,1.28,2.55,1.81a62.61,62.61,0,0,0,5.91,2.8c1,.44,2,1,3,1.41a30.32,30.32,0,0,1,2.84,1.59c1.94,1.11,4,2,6,3.05s4,2.26,5.91,3.46,3.88,2.39,5.77,3.67,3.74,2.6,5.64,3.85a37.41,37.41,0,0,1,4.92,4,60.56,60.56,0,0,0,5.3,4.29c1.88,1.39,3.81,2.72,5.79,4a36.8,36.8,0,0,0,5.77,3.17c1,.37,1.76,1,2.72,1.33a14.42,14.42,0,0,0,3.41.44,23,23,0,0,1,3.26.67,20.91,20.91,0,0,0,3.43.53c1.14.09,2.27.22,3.41.33a23,23,0,0,1,3.31.5c1.08.28,2.16.48,3.24.75a16.55,16.55,0,0,1,2.86,1.1c1,.47,1.88.95,2.87,1.34,1.42.56,1.62-1.24.57-1.88a24.26,24.26,0,0,0-5.92-2.84c-1.05-.31-2.15-.49-3.21-.78a20.93,20.93,0,0,0-3.42-.6c-1.14-.11-2.28-.27-3.42-.36a22,22,0,0,1-3.42-.46c-1.1-.26-2.2-.56-3.32-.71a18.58,18.58,0,0,1-3.35-.39,6,6,0,0,1-1.12-.6,9.22,9.22,0,0,0-1.43-.65,19.78,19.78,0,0,1-2.91-1.46c-2-1.19-4-2.42-5.86-3.75s-3.73-2.7-5.51-4.15-3.23-3.1-5-4.42-3.67-2.45-5.49-3.7-3.81-2.6-5.78-3.81a133.11,133.11,0,0,0-12.11-6.81,26.9,26.9,0,0,1-2.9-1.55,29,29,0,0,0-2.88-1.48c-2-.95-4-1.78-6-2.73a18.1,18.1,0,0,1-2.8-1.54c-.88-.62-1.69-1.29-2.63-1.83s-1.88-1-2.76-1.57a28.88,28.88,0,0,1-2.56-2c-.88-.72-1.73-1.47-2.59-2.21s-1.79-1.36-2.7-2a27.5,27.5,0,0,1-2.55-2.28c-.86-.8-1.73-1.61-2.6-2.4-1.66-1.52-3.4-3-5-4.54a14.18,14.18,0,0,0-3.83-3.16,3.73,3.73,0,0,0-2.28-.3c-.86.17-.22,1.67.53,1.59Z"/><path d="M402.35,746.06c.47.44,1.1.46,1.62.81a9.9,9.9,0,0,1,1.67,1.5c1.09,1.11,2,2.34,3,3.53s2.05,2.24,3,3.42,1.9,2.39,2.83,3.6a12.91,12.91,0,0,0,2.7,2.82,15.84,15.84,0,0,0,1.92,1,14.34,14.34,0,0,1,2,1.34,38,38,0,0,0,4.12,2.54c1.35.72,2.69,1.37,4,2.21,5.44,3.55,10.74,7.3,16.27,10.74,2.67,1.67,5.32,3.36,7.88,5.21s5.49,3.7,8.2,5.6,5.29,3.58,7.88,5.46c1.26.92,2.44,1.94,3.7,2.86s2.7,1.83,4,2.8c2.54,1.88,5.06,3.81,7.55,5.76s4.83,4.22,7.25,6.35,4.94,4.09,7.36,6.19,4.79,4.37,7.1,6.62c4.73,4.6,9.28,9.37,13.93,14,2.31,2.32,4.57,4.7,6.86,7s4.62,4.49,6.8,6.85,4.5,4.71,6.83,7,4.69,4.55,6.79,7a22.47,22.47,0,0,1,2.64,3.3c.56,1,2,.75,1.55-.5a12.26,12.26,0,0,0-2.42-3.78q-1.5-1.86-3.13-3.6c-2.28-2.44-4.71-4.74-7.06-7.12s-4.37-4.73-6.66-7-4.61-4.7-6.9-7.07c-4.62-4.79-9.35-9.49-14-14.25a186.29,186.29,0,0,0-14.26-13.27c-2.48-2.05-4.83-4.19-7.2-6.36a93.39,93.39,0,0,0-7.54-6.06c-1.29-1-2.54-1.95-3.81-2.92s-2.68-1.84-4-2.79-2.53-2-3.82-3-2.58-1.8-3.89-2.68c-2.7-1.81-5.33-3.72-8-5.52s-5.36-3.76-8.09-5.57-5.45-3.44-8.18-5.16-5.46-3.62-8.2-5.41a64.65,64.65,0,0,0-8.21-5,38.55,38.55,0,0,1-4.16-2.34c-.66-.41-1.28-.9-2-1.29s-1.43-.57-2.11-1a9.51,9.51,0,0,1-2.53-2.64c-1-1.22-1.92-2.45-2.93-3.64s-2.08-2.21-3.07-3.37a45.29,45.29,0,0,0-3.23-3.56,12,12,0,0,0-1.51-1.24,5.36,5.36,0,0,0-.84-.48,5.78,5.78,0,0,1-1-.3c-.87-.72-1.52.48-.78,1.16Z"/><path d="M461.76,651.43c.73,1.84,1.71,3.53,2.58,5.31s1.89,3.71,2.8,5.59a84,84,0,0,1,4.4,11.59,62.37,62.37,0,0,1,2.63,12.28,49.1,49.1,0,0,1-.33,12.7c-.75,4.71-2,9.34-3.16,14-.3,1.13,1.57,2.4,2,1,2.49-8.31,4.44-16.89,3.77-25.61A58.06,58.06,0,0,0,474,675.5a86.93,86.93,0,0,0-4.45-12c-1-2.14-2.14-4.24-3.29-6.32a55.62,55.62,0,0,1-3.43-6.12c-.29-.74-1.37-.48-1,.34Z"/><path d="M467.77,734.42a10.72,10.72,0,0,0-.08,2.34,4.54,4.54,0,0,1-1,2c-.57.76-1.27,1.43-1.88,2.16s-1.28,1.62-1.95,2.41c-1.87,2.25-4.94,3.39-7.7,4.08a26.22,26.22,0,0,1-4.82.72c-1.78.09-.92,2.84.59,2.79a22.78,22.78,0,0,0,9.58-2.38,13.72,13.72,0,0,0,4-3c.67-.74,1.22-1.58,1.83-2.38s1.36-1.65,2-2.49a6,6,0,0,0,1.34-3,8.5,8.5,0,0,0-.39-3c-.18-.6-1.26-1.35-1.55-.4Z"/><path d="M241.34,513.53a6.72,6.72,0,0,0-1.42,3.47,5.1,5.1,0,0,0,1.13,4,13.66,13.66,0,0,0,3.86,3,6.85,6.85,0,0,0,4.76.91c3.44-.52,6.13-2.61,8.74-4.77,1.44-1.19,3.13-2,4.58-3.17a17.61,17.61,0,0,0,3.74-4.06c1.17-1.81,2.2-3.75,3.26-5.62a19.81,19.81,0,0,1,1.57-2.53,3,3,0,0,0,.76-2.34c-.1-.91-1.83-1.38-1.76-.22,0,.61-.35,1-.7,1.43a16.65,16.65,0,0,0-1.29,2.14c-.81,1.46-1.66,2.91-2.49,4.36a17.08,17.08,0,0,1-3,4,18.91,18.91,0,0,1-3.82,2.83,41.75,41.75,0,0,0-4.09,3,18,18,0,0,1-3.62,2.19,8.25,8.25,0,0,1-4.23.76,9.71,9.71,0,0,1-3.59-1.76,4.4,4.4,0,0,1-2.24-3.07,6,6,0,0,1,.26-1.88,3.17,3.17,0,0,1,.74-1.58c.72-.62-.41-1.92-1.11-1.18Z"/><path d="M180.92,461.15c-.28,2.16,1.56,4.13,3,5.53a15.88,15.88,0,0,0,6.09,3.47c2,.69,4.23,1.28,6.28.4a13.79,13.79,0,0,0,2.56-1.58,28.83,28.83,0,0,0,2.65-2,21.89,21.89,0,0,0,2-2.54,4.42,4.42,0,0,0,1.31-2.87,1.21,1.21,0,0,0-.85-1.13.71.71,0,0,0-.91.68,1.71,1.71,0,0,1-.4.72c-.24.34-.49.68-.75,1-.49.63-.9,1.32-1.38,1.95a10.15,10.15,0,0,1-2.11,1.81c-.76.56-1.5,1.17-2.31,1.67a5.77,5.77,0,0,1-4.85.46,16.15,16.15,0,0,1-5.49-2.4,14.14,14.14,0,0,1-2.24-2.07,3.52,3.52,0,0,1-1.23-2.74c.12-.83-1.28-1.37-1.41-.36Z"/><path d="M195.78,437.49l0,.34a.89.89,0,0,0,.62.82,11.59,11.59,0,0,1,3.17,1.8c1,.75,2,1.51,2.91,2.32a21.82,21.82,0,0,1,4.71,5.85,1.08,1.08,0,0,0,1.2.66.83.83,0,0,0,.37-1.17,24.11,24.11,0,0,0-5.47-6.71,37.24,37.24,0,0,0-3.27-2.46,7.19,7.19,0,0,0-3.75-1.62l.76.67-.1-.36a.8.8,0,0,0-.63-.61.48.48,0,0,0-.54.47Z"/><path d="M173.27,398.61c-1.65.37-3.25,1-4.87,1.5s-3.06.94-4.64,1.26a46.13,46.13,0,0,1-4.69.71c-1.59.18-3.14.4-4.72.72-.94.19-.19,1.67.55,1.66a41.13,41.13,0,0,0,4.84-.34c1.64-.22,3.28-.47,4.89-.84a40.46,40.46,0,0,0,4.7-1.44,36.51,36.51,0,0,0,4.72-1.93c.7-.37-.18-1.43-.78-1.3Z"/><path d="M474.5,381.28c-.59-5.55-.54-11.13-.79-16.7-.18-4.19-.49-8.38-.28-12.58a36.11,36.11,0,0,1,.78-6.22,21.36,21.36,0,0,1,.8-2.73c.38-1,1.11-1.88,1.44-2.9.52-1.61.19-4.07-1.45-4.9-.63-.31-1.34-.41-1.95-.78a11.32,11.32,0,0,1-2.53-2.5c-5.14-6.09-13.89-6.37-20.75-3.18-7.63,3.54-12.74,11.51-14.11,19.65-.39,2.3-.28,4.59-.53,6.89a61.74,61.74,0,0,0-.3,7.57c.07,5.4,1.3,10.69,1.22,16.09-.05,2.77-.16,5.54,0,8.3s.41,5.54.71,8.3.67,5.31,1.22,7.93,1.39,5.34,2.07,8a61.5,61.5,0,0,1,1.54,7.71,62.2,62.2,0,0,1,.22,8.19,99.2,99.2,0,0,0,.66,16.35c.44,2.79,1.14,5.5,1.41,8.32a52.78,52.78,0,0,0,1.34,8.19c.64,2.5,1.45,5,2.19,7.43s1.41,5,2.31,7.46,2.23,4.62,2.9,7.12,1.16,5.26,1.66,7.89a58.57,58.57,0,0,0,1.57,7.78,20.83,20.83,0,0,1,1,3.38c.21,1.3.34,2.61.52,3.91A34.47,34.47,0,0,0,458,509a9.63,9.63,0,0,0,1.7,3.13c1.46,2.09,3,4.18,4.28,6.36a50.34,50.34,0,0,1,3.32,6.5,11,11,0,0,1,.87,3.43,33.2,33.2,0,0,1-.23,4.11,23,23,0,0,0,.86,7.33,1.48,1.48,0,0,0,1.32,1.15.92.92,0,0,0,.82-1.19,21.21,21.21,0,0,1-.76-7.48,16.24,16.24,0,0,0-.59-7,43.65,43.65,0,0,0-3-6.28,68.44,68.44,0,0,0-4-6.25c-.67-1-1.41-1.92-2-2.93a9.55,9.55,0,0,1-.86-3.7,35.8,35.8,0,0,0-1.28-7.29,41.89,41.89,0,0,1-1.69-7.33c-.46-2.64-1-5.27-1.58-7.88a33.92,33.92,0,0,0-2.5-6.86,51.28,51.28,0,0,1-2.48-7.12c-1.44-5-3.26-9.87-3.86-15-.32-2.75-.58-5.46-1.15-8.18a53.33,53.33,0,0,1-1-8.07c-.29-5.34.12-10.7-.12-16-.23-5.13-1.57-10.09-2.91-15a85.86,85.86,0,0,1-2.57-15.94c-.22-2.68-.39-5.36-.35-8.06s.17-5.34-.06-8-.66-5.16-.9-7.75-.26-5.08-.27-7.63.39-4.86.45-7.31a25.85,25.85,0,0,1,1-6.31,26.57,26.57,0,0,1,6.33-11.16c5-5.16,13.5-8.37,20.43-5.31a11.94,11.94,0,0,1,4.33,3.35,10.27,10.27,0,0,0,4.58,3.54c.17.06.55.13.68.28s.13,1.1.13,1.4c0,1.06-.79,1.94-1.2,2.9a22.54,22.54,0,0,0-1.47,5.48,63.38,63.38,0,0,0-.39,12.62c.21,4.6.42,9.26.9,13.85.28,2.65.48,5.32.81,8,.09.69,1.17.8,1.08,0Z"/><path d="M468.51,539.42c.78,1.05.15,3.58.14,4.84a30.47,30.47,0,0,0,.4,5.64c.37,2.06,1,3.9,1,6a52.3,52.3,0,0,0,.15,5.87c.2,2.13.05,4.24.19,6.37a59.17,59.17,0,0,0,.91,5.92A58,58,0,0,0,474,585.43a83.88,83.88,0,0,0,4.9,10.74c2,3.6,3.12,7.4,4.51,11.25A90.2,90.2,0,0,1,486.67,620c.9,4.26,2.18,8.43,2.84,12.74.31,2.06.53,4,1,6s.42,4.23.82,6.33a85.7,85.7,0,0,0,3,12.05c1.42,4.1,3.09,8.09,4.64,12.14,1.48,3.88,3.61,7.45,5.42,11.19,3.79,7.8,7.52,15.64,10.67,23.73,3,7.78,4.77,16,7,24.05,1.19,4.27,2.33,8.56,3.3,12.89s1.54,8.51,2.71,12.67c.54,1.93,1.34,3.76,1.93,5.67a42.21,42.21,0,0,0,2,5.81,46.48,46.48,0,0,0,6.2,9.44c2.46,3,5.2,5.69,7.75,8.59a30.9,30.9,0,0,0,3.5,3.64,48.3,48.3,0,0,0,5.49,3.58c1.52.94,3,1.88,4.56,2.72a34.61,34.61,0,0,1,5.37,3.7c3.18,2.56,6.75,4.64,10.09,7a99.14,99.14,0,0,0,10.5,6.33,52.06,52.06,0,0,1,5.15,3.4c1.76,1.19,3.72,2.13,5.58,3.14,1.6.88,3.19,1.76,4.71,2.76,1.78,1.17,3.29,2.67,5.18,3.67a39.73,39.73,0,0,1,4.91,2.71,65.55,65.55,0,0,1,5.08,4.18c5.41,4.8,10.93,9.48,16.34,14.29,12.89,11.44,25.74,22.94,38.4,34.64.59.55,1.2,1.09,1.77,1.67,1.15,1.17,2.16-.67,1.14-1.7-3.83-3.89-9-8.51-13.42-12.52q-10.86-9.87-21.78-19.63c-4.92-4.4-9.8-8.88-14.87-13.11s-9.77-9.33-15.82-12.26a33.72,33.72,0,0,1-5-3.31,50,50,0,0,0-4.94-3c-1.76-1-3.57-1.89-5.31-2.92s-3.46-2.54-5.35-3.6a126.79,126.79,0,0,1-11.06-6.53c-3.35-2.34-6.92-4.41-10.1-7a33.57,33.57,0,0,0-4.19-3.13c-1.75-1-3.54-1.92-5.25-3s-3.58-2.08-5.25-3.3a30.86,30.86,0,0,1-4.52-4.55c-5.19-5.69-11.41-11.47-13.79-19-1.26-4-2.73-8-3.61-12.07s-1.63-8.35-2.65-12.49c-2-8-4.15-16-6.52-23.93-1.21-4-2.33-8-3.9-11.86s-3.32-7.89-5.13-11.77c-3.6-7.71-7.83-15.19-10.95-23.1-1.63-4.13-3.38-8.23-4.67-12.48a67,67,0,0,1-2.44-12.86c-.18-1.91-.84-3.72-1.07-5.61-.25-2.17-.47-4.3-.92-6.44-.89-4.24-2-8.41-2.86-12.67a87.41,87.41,0,0,0-3.48-11.85c-.6-1.76-1.13-3.57-1.81-5.31A52.31,52.31,0,0,0,480.2,594c-.85-1.59-1.47-3.25-2.16-4.92-.8-1.95-1.77-3.81-2.44-5.82a85.77,85.77,0,0,1-2.59-12,36.89,36.89,0,0,1-.42-6.12c0-2.17-.39-4.31-.46-6.48a25.11,25.11,0,0,0-.41-5.41,43.81,43.81,0,0,1-1.36-5.76,39.87,39.87,0,0,1-.15-5.57,4.76,4.76,0,0,0-.73-3.22c-.59-.75-1.55,0-1,.74Z"/><path d="M473.06,375.77c-.12,1.3.47,2.48.64,3.75.21,1.5.35,3,.51,4.52s.39,3,.4,4.48a36.07,36.07,0,0,0,.21,4.53c.2,1.52.35,3.05.57,4.57a9.24,9.24,0,0,0,.44,1.94,12.17,12.17,0,0,0,.89,1.67,11,11,0,0,1,.65,1.93,9.53,9.53,0,0,0,.81,1.92c.64,1.21,1.45,2.31,2.15,3.49s1.32,2.71,2,4.07,1.33,2.76,2,4.13c1.42,2.79,3,5.52,4.44,8.29s2.88,5.36,4.53,7.91,2.33,5.23,3.44,7.91,2.62,5.28,3.85,8,2.08,5.43,3.21,8.09a37.39,37.39,0,0,1,1.52,4.23c.42,1.44.66,2.91,1,4.37a49,49,0,0,0,2.76,8.33c1.13,2.71,2.35,5.38,3.42,8.11a85.76,85.76,0,0,0,3.7,8.45c2.76,5.25,4.43,11,7.59,16.06,1.5,2.4,3.27,4.61,4.75,7s3.45,4.87,5,7.4c3.26,5.16,6.19,10.5,9.86,15.38q1.38,1.85,2.82,3.64c.76,1,1.94.06,1.25-.94-1.72-2.48-3.54-4.89-5.21-7.4s-3.16-5.22-4.73-7.84-3.14-5.14-4.91-7.59-3.11-4.85-4.79-7.19a49.56,49.56,0,0,1-4.44-7.18c-1.31-2.64-2.4-5.37-3.5-8.11s-2.68-5.26-3.83-8-2.21-5.58-3.4-8.33-2.36-5.38-3.29-8.17-1.25-5.6-2.07-8.37-2.12-5.45-3.12-8.21c-.5-1.39-1-2.79-1.57-4.14s-1.29-2.6-1.94-3.89a75.42,75.42,0,0,1-3.37-8,21.22,21.22,0,0,0-1.78-3.8c-.79-1.29-1.64-2.54-2.4-3.86-3.07-5.32-6-10.76-8.7-16.29-.65-1.34-1.23-2.73-1.93-4s-1.41-2.26-2.11-3.4a12.52,12.52,0,0,1-.88-1.66c-.29-.67-.42-1.4-.67-2.09a10.35,10.35,0,0,0-.88-1.64,5.23,5.23,0,0,1-.6-1.89,67.23,67.23,0,0,1-1-9.06,48.64,48.64,0,0,0-1.3-8.89c-.29-1.29-1.07-2.58-1.06-3.91,0-.57-.92-1-1-.26Z"/><path d="M348.88,283.48c.59.73,1,1.56,1.56,2.32a19.56,19.56,0,0,0,1.7,2.06,11.44,11.44,0,0,0,2.09,1.84,7.15,7.15,0,0,1,1.79,1.5,35.12,35.12,0,0,1,2.88,4.44,50.74,50.74,0,0,1,2.58,5.23c.38.92.73,1.85,1.07,2.78s.51,1.76.87,2.59a5.38,5.38,0,0,0,1.66,1.95c.66.53,1.28,1.11,2,1.61,1.44,1,3.09,1.75,4.53,2.78,1.6,1.15,3.21,2.29,4.74,3.54s3,2.38,4.46,3.65,2.9,2.77,4.4,4.11c2.86,2.54,5.5,5.31,8.34,7.87a67.73,67.73,0,0,0,9.6,7c1.7,1.06,3.32,2.23,5,3.3a40.6,40.6,0,0,0,5.09,2.7c1.75.81,3.54,1.54,5.26,2.43.89.46,1.77.93,2.69,1.33a20.72,20.72,0,0,0,2.53.82c.78.22,1.26.87,2,1.23.85.44,1.81.47,2.66.9,1.2.62,2.49,1,3.7,1.63a5.21,5.21,0,0,1,.68.37l.21.17c-.09-.06,0,0,0,.06a1.9,1.9,0,0,0-.12-.38,1.34,1.34,0,0,0,1,1.29.81.81,0,0,0,1-.78c-.07-1.46-1.43-2.27-2.63-2.82-.51-.23-1-.43-1.56-.64-.84-.34-1.6-.85-2.43-1.2a8.78,8.78,0,0,1-2.42-.95,5.82,5.82,0,0,0-2.3-1.19,29.52,29.52,0,0,1-5.2-2.33c-3.54-1.75-7.18-3.15-10.46-5.38-1.7-1.16-3.41-2.27-5.16-3.33s-3.24-2.19-4.81-3.32a81.89,81.89,0,0,1-8.53-7.7c-1.47-1.39-3-2.7-4.51-4.06s-2.88-2.78-4.46-4-3.07-2.52-4.66-3.71a48.52,48.52,0,0,0-4.76-3.29c-.78-.45-1.59-.86-2.36-1.34A20.3,20.3,0,0,1,366.6,307c-.57-.44-1.26-.85-1.5-1.56-.29-.9-.59-1.79-.92-2.67a52.61,52.61,0,0,0-5.47-10.56,11.56,11.56,0,0,0-3.35-3.74,15.22,15.22,0,0,1-4-3.62c-.57-.73-1.07-1.49-1.71-2.17s-1.22.24-.76.81Z"/><path d="M349.16,282.79c-3.76.24-7.41-.53-11.15-.77a18.83,18.83,0,0,0-10.36,2.17,12.48,12.48,0,0,0-6.14,7.39,24.7,24.7,0,0,0-.25,10.62,40.9,40.9,0,0,0,8.8,19.07,10.43,10.43,0,0,1,1.34,1.89,9.88,9.88,0,0,0,1.39,2.11c1.26,1.44,2.53,2.86,3.82,4.28q3.93,4.32,8,8.48c5.41,5.49,11.05,10.75,17,15.68,2.95,2.46,6,4.84,9.06,7.11a72.69,72.69,0,0,1,9.11,7.49c2.65,2.7,5.2,5.48,8,8.07s5.47,4.92,8.32,7.25c5.6,4.62,11.42,9,17.07,13.53,2.86,2.3,5.67,4.66,8.39,7.12a62.72,62.72,0,0,1,7.6,7.86c1.1,1.43,2.12,2.91,3.3,4.28a19.81,19.81,0,0,1,3.11,4.19c.77,1.63,1,3.48,1.94,5a15.85,15.85,0,0,0,1.42,1.74,6.63,6.63,0,0,1,1.23,2.2,19.82,19.82,0,0,0,2.43,4.45,1.09,1.09,0,0,0,1.46.37c.5-.36.33-1.06,0-1.5a21.63,21.63,0,0,1-2.24-4.52,7.92,7.92,0,0,0-1.24-2.12,15.29,15.29,0,0,1-1.35-1.66c-.93-1.55-1-3.51-1.91-5.11a25.22,25.22,0,0,0-3.12-4.23c-1.14-1.35-2.14-2.78-3.21-4.18a45.51,45.51,0,0,0-3.59-4.14c-2.53-2.61-5.24-5.05-8-7.41-10.88-9.35-22.93-17.34-33.15-27.45-2.67-2.64-5.12-5.53-7.95-8s-6.08-4.61-9.11-6.92A210.79,210.79,0,0,1,352,342.38c-5.48-5.2-10.73-10.65-15.75-16.29l-1.8-2a11.22,11.22,0,0,1-1.29-2c-.84-1.48-2.05-2.73-3-4.12a42.14,42.14,0,0,1-4.86-9,32.23,32.23,0,0,1-2.15-10c-.16-3.44.16-7,2.42-9.8a14.14,14.14,0,0,1,8.15-4.51c3.57-.72,7.24-.26,10.83-.07a23,23,0,0,0,5.18-.26c.83-.14.2-1.54-.5-1.5Z"/><path d="M334.25,324.17c-8.39-.18-16.83-2.29-24.67-5.16-5.32-1.95-11-3.6-16.7-2.6a14.14,14.14,0,0,0-11.69,12.3c-.39,3.65.64,7.42,1.88,10.83a32.71,32.71,0,0,0,5.21,9.43,31.21,31.21,0,0,0,8.91,7.15c3.32,1.92,6.59,3.94,9.93,5.83a60.46,60.46,0,0,0,22.63,8c4.31.74,8.65,1.28,13,1.95a26.32,26.32,0,0,0,6.12.66,8.07,8.07,0,0,1,2.73,0,6.74,6.74,0,0,1,2.15,1.14,196.22,196.22,0,0,0,21,13.79,88.62,88.62,0,0,0,22,8.63c6.73,1.62,13.82,2.84,19.87,6.39a24.34,24.34,0,0,1,4.1,2.84.9.9,0,0,0,1.32,0,1.17,1.17,0,0,0-.32-1.45c-.64-.58-1.21-1.23-1.9-1.76s-1.44-1-2.19-1.51a31.25,31.25,0,0,0-4.54-2.31,66.54,66.54,0,0,0-10.05-3.15c-3.34-.82-6.71-1.54-10-2.46a75.93,75.93,0,0,1-11.12-4.08,134.62,134.62,0,0,1-21-12.37c-1.71-1.2-3.44-2.37-5.08-3.65-1.45-1.12-3-2.32-4.84-2.58a12.64,12.64,0,0,0-2.68,0,12.32,12.32,0,0,1-3.15-.21c-2-.34-4.05-.64-6.08-.93-8.17-1.16-16.54-2.13-24.19-5.43a93.2,93.2,0,0,1-9.82-5.1c-1.65-1-3.3-1.94-5-2.9s-3.36-1.89-5-2.94a23.72,23.72,0,0,1-7.27-7.35,34,34,0,0,1-4.15-9.71c-.93-3.57-1.22-7.32.69-10.63a12.64,12.64,0,0,1,5.9-5.48c5-2.13,10.77-1,15.73.61,1.5.49,3,1.08,4.45,1.62,1.95.71,3.93,1.32,5.94,1.85a78.51,78.51,0,0,0,12.26,2.17c2,.19,4,.26,5.93.34,1.11.05.59-1.74-.37-1.76Z"/><path d="M422.22,404.31c-2.85-.45-5.53-1.56-8.32-2.24s-5.42-1.25-8.13-1.76a71.15,71.15,0,0,0-15.64-.74c-5,.19-9.92.47-14.89.52s-9.8.05-14.69.42a55.49,55.49,0,0,0-14.16,2.63c-2.37.82-4.62,1.91-7,2.62-2.79.8-5.58,1.62-8.38,2.41s-5.5,1.39-8.21,2.26-5.42,1.71-8.18,2.46-5.45,1.62-8.16,2.48-5.58,1.56-8.4,2.23a60.8,60.8,0,0,0-7.33,1.81c-2.12.78-3.26,2.59-3.94,4.67-.79,2.41-.58,4.87-.54,7.36a12.28,12.28,0,0,0,1.77,6.19c2.22,3.69,6,6,9.75,7.89a59.89,59.89,0,0,0,7.57,3.32,35.2,35.2,0,0,0,8.07,1.67c5.67.53,11.4,0,17-.6q8.76-.86,17.46-2.23,4.38-.69,8.74-1.5c2.76-.52,5.69-1.44,8.52-1.19a18,18,0,0,1,3.95,1c1.38.45,2.76.88,4.16,1.26q4.06,1.11,8.21,1.81a102.13,102.13,0,0,0,16.92,1.42H407a67.25,67.25,0,0,0,8.52-.11c1.34-.18,2.64-.61,4-.74a8.77,8.77,0,0,1,3.26.3,18.18,18.18,0,0,1,5.72,3.14c1.84,1.37,3.74,2.68,5.56,4.08,2.11,1.63,4,3.52,6.11,5.17a31.79,31.79,0,0,1,2.92,2.37,8.9,8.9,0,0,1,.67.7,5.63,5.63,0,0,1,.38.45c.13.19.18.45.15,0a1.55,1.55,0,0,0,1.1,1.46.91.91,0,0,0,1.16-.88c-.14-1.88-2.13-3.56-3.52-4.65-2.07-1.61-4.05-3.29-6.05-5-1.83-1.57-3.84-2.88-5.76-4.33a42,42,0,0,0-5.62-3.8,12.43,12.43,0,0,0-6.47-1.57c-1.36.09-2.66.49-4,.69A24.93,24.93,0,0,1,411,448c-5.68-.1-11.37.1-17.05-.12a92.75,92.75,0,0,1-16.52-2.09,81.78,81.78,0,0,1-8.11-2.23,22.64,22.64,0,0,0-4-1,14.35,14.35,0,0,0-4.24.13c-2.86.46-5.68,1.11-8.53,1.62s-5.74,1-8.62,1.41q-8.62,1.29-17.32,2.08c-5.53.5-11.2,1-16.71,0A44.66,44.66,0,0,1,295.44,442c-3.4-2-6.53-4.8-7.13-8.89a32.3,32.3,0,0,1-.16-3.41,12.82,12.82,0,0,1,.23-3.71,9.14,9.14,0,0,1,1.27-3,4.24,4.24,0,0,1,2.41-1.66c2.43-.78,5-1.18,7.51-1.76,2.77-.64,5.53-1.35,8.24-2.23,5.37-1.73,10.81-3.18,16.18-4.9,2.71-.86,5.5-1.47,8.23-2.25s5.48-1.58,8.21-2.38c2.41-.71,4.65-1.8,7-2.61a45.58,45.58,0,0,1,6.82-1.68c9.51-1.62,19.22-1,28.82-1.45,5.21-.23,10.44-.61,15.66-.47a51.87,51.87,0,0,1,7.47.69c2.74.49,5.5.9,8.23,1.46s5.18,1.46,7.87,1.76c.68.08.45-1.09-.11-1.17Z"/><path d="M472.6,376.08c1.21,2.25,3.33,4.22,5.11,6,2.32,2.36,4.64,4.81,6.76,7.34,3.72,4.43,8.3,8.21,12.78,11.86a64.87,64.87,0,0,1,6.86,6.19c2,2.2,3.8,4.61,5.88,6.75,4.37,4.47,8,9.63,12.29,14.2,4.12,4.41,9,8.15,12.82,12.83a29.49,29.49,0,0,0,5.88,5.77c2.58,1.84,5.17,3.66,7.81,5.41s5.38,3.26,8,4.95c2.83,1.8,5.56,3.81,8.27,5.79s4.75,4.22,7.2,6.28a87.69,87.69,0,0,1,6.5,6,58.57,58.57,0,0,1,6.28,6.8,83.75,83.75,0,0,1,5,7.79c1.4,2.52,2.45,5.19,3.67,7.8a24.55,24.55,0,0,1,2.68,9,35.87,35.87,0,0,0,1.81,8.74c1,3.11,1.74,6.3,2.54,9.46,1.59,6.33,2.77,12.74,4.61,19s3,12.7,4.37,19.07a171,171,0,0,0,5.41,18.41,192.29,192.29,0,0,1,5.77,18.75,51.38,51.38,0,0,0,3.15,8.56c1.24,2.88,2.11,5.89,3.17,8.84,4.47,12.37,9.68,24.42,13.92,36.87,1.05,3.08,2.48,6,3.73,9,1.19,2.84,2.68,5.6,3.78,8.46a31,31,0,0,0,1.91,3.88,23,23,0,0,1,1.59,4.79,24.89,24.89,0,0,0,6.33,10.48c1,1,2.24,1.78,3.25,2.81s2.43-.5,1.46-1.55c-2-2.17-4.28-3.86-6-6.32-1.82-2.63-2.5-5.48-3.44-8.47a16.49,16.49,0,0,0-1.61-3.49c-.84-1.4-1.31-2.92-2-4.38-1.34-2.82-2.52-5.69-3.78-8.54-2.63-6-4.69-12.22-6.93-18.39S634.59,631,632.39,625s-4.24-12.38-6.84-18.35-3.68-12.2-5.68-18.25-4.32-12.26-6.06-18.53-2.84-12.73-4.29-19.09c-.74-3.22-1.68-6.36-2.58-9.54-.85-3-1.35-6.06-2-9.09-1.36-6.38-3.14-12.68-5-18.92-.91-3-.79-6-1.33-9.05-.5-2.84-1.9-5.41-3.08-8a88,88,0,0,0-8.6-15.25,44.69,44.69,0,0,0-6-6.57c-2.16-2-4.09-4.18-6.41-6.05-2.48-2-4.6-4.34-7.13-6.27s-5.18-3.74-7.8-5.56-5.39-3.31-8.06-5-5.38-3.56-8-5.42a40.36,40.36,0,0,1-3.58-2.65,25.3,25.3,0,0,1-2.83-3.2,78.52,78.52,0,0,0-6.26-6.51c-2.14-2.11-4.4-4.08-6.49-6.24s-4.17-4.83-6.29-7.21c-2-2.22-3.71-4.65-5.8-6.77-2.27-2.29-4.25-4.82-6.43-7.19-4-4.33-8.94-7.56-13.25-11.54a73.29,73.29,0,0,1-6.43-6.15c-2-2.37-4.22-4.65-6.45-6.82-1.16-1.12-2.35-2.21-3.47-3.38a20.77,20.77,0,0,1-2.6-2.79c-.4-.61-1.36-.19-1,.51Z"/><path d="M657.2,688c.25.1.32.67.43.89a6.78,6.78,0,0,0,.63,1.08,13.5,13.5,0,0,0,2.12,2.22,45.3,45.3,0,0,1,3.9,4.3c1.41,1.59,3.18,2.78,4.61,4.34s2.71,3.41,4.09,5.1a43.22,43.22,0,0,0,4.38,4.7,14.6,14.6,0,0,1,1.64,1.95,22.28,22.28,0,0,0,2.27,2.39c.75.73,1.44,1.52,2.16,2.27s1.6,1.46,2.35,2.25,1.31,1.48,2,2.18a12.18,12.18,0,0,0,2.47,1.73c.81.48,1.54,1.09,2.32,1.62a23.82,23.82,0,0,0,2.67,1.47c1.92,1,3.31,2.81,4.73,4.4,3,3.39,5.9,6.92,9,10.29s6.13,7.09,9.17,10.64,6.19,7,9.43,10.31,6.4,6.81,9.87,9.88c3.31,2.94,7,5.49,10.33,8.37,3.53,3,7,6.08,10.63,9s7.31,5.69,11,8.53c7.28,5.64,14.84,10.86,22.27,16.29,3.71,2.71,7.3,5.58,11,8.27s7.61,5.33,11.44,8,7.38,5.29,11.14,7.84,7.54,4.82,11.34,7.17c7.85,4.85,15.26,10.32,22.91,15.46a18.58,18.58,0,0,1,2.44,1.78,23.49,23.49,0,0,1,2.21,2.47c.92,1.18,2.34.09,1.51-1.14a17.09,17.09,0,0,0-4.55-4.77c-1.88-1.28-3.79-2.49-5.64-3.79-3.85-2.69-7.64-5.47-11.55-8.08-3.73-2.48-7.57-4.78-11.37-7.14s-7.64-5-11.37-7.65c-7.51-5.36-15.27-10.37-22.58-16S783.42,805.62,776,800s-14.89-11.26-22-17.32c-3.52-3-7-6.09-10.67-8.93-1.67-1.29-3.34-2.57-4.91-4-1.75-1.58-3.38-3.32-5-5-3.31-3.35-6.62-6.71-9.77-10.21s-6.11-7.11-9.17-10.66-6.13-7-9.15-10.48c-1.47-1.73-3-3.45-4.49-5.13a18.14,18.14,0,0,0-4.82-4.22,23.13,23.13,0,0,1-2.63-1.45c-.84-.59-1.63-1.21-2.51-1.73-1.77-1-2.88-2.65-4.36-4s-3-3-4.57-4.51a19.8,19.8,0,0,1-1.86-2.23,21.36,21.36,0,0,0-2.18-2.18c-3.12-3-5.28-6.85-8.49-9.72a54.69,54.69,0,0,1-4.58-4.3,45,45,0,0,0-4.3-4,7.13,7.13,0,0,1-1.7-2.12,2.11,2.11,0,0,0-1.37-1.27c-.91-.25-.93,1.14-.23,1.42Z"/><path d="M673,720.57a22.34,22.34,0,0,0-6.57.48,55.3,55.3,0,0,0-6.19,1.64,17.61,17.61,0,0,0-4.93,2.3,14.62,14.62,0,0,0-2.23,2c-.74.83-1.55,1.64-2.25,2.5a13.48,13.48,0,0,0-2.58,6.44c-.13.88,1.52,1.74,1.72.68a13.34,13.34,0,0,1,2.11-5.21,24.64,24.64,0,0,1,2-2.42,13.29,13.29,0,0,1,6.49-4.32c1.88-.65,3.81-1.2,5.75-1.67,1.12-.28,2.25-.54,3.39-.72s2.35-.22,3.53-.34c.91-.09.4-1.28-.28-1.36Z"/><path d="M471.21,404.29a3.86,3.86,0,0,0-1.75,2.8c-.31,1.3-.39,2.67-.62,4a16.66,16.66,0,0,0-.31,2.73,14.61,14.61,0,0,0,.3,2.79,42.23,42.23,0,0,0,1.54,5.49c.28.83,1.68.77,1.46-.24-.37-1.65-.85-3.27-1.2-4.93a14,14,0,0,1-.17-5q.26-1.83.45-3.66c.1-1,.16-2.19,1-2.88.46-.4-.11-1.4-.67-1.13Z"/><path d="M470.14,335.46a19.59,19.59,0,0,1-1.37,2.6,24.25,24.25,0,0,0-1,3,17.54,17.54,0,0,0-.55,3.13c-.12,1.13-.32,2.24-.48,3.37a46.85,46.85,0,0,0-.34,6.6,61.64,61.64,0,0,0,.17,6.23,21.38,21.38,0,0,0,1.74,7,1.14,1.14,0,0,0,1,.68c1.28,0,2.35-.77,3.59-.82s.59-1.81-.38-1.79c-1.25,0-2.35.8-3.6.75l1,.68c-1.63-3.71-1.7-7.85-1.69-11.83a53.81,53.81,0,0,1,.18-6.35c.12-1.1.34-2.18.45-3.28a29.34,29.34,0,0,1,.39-3.23c.26-1.11.53-2.24.88-3.33a19.05,19.05,0,0,0,1.08-3c.07-.52-.88-1.06-1.05-.41Z"/><path d="M349.19,284.18a18.09,18.09,0,0,0-2.84.28c-1.06.06-2.11.09-3.17.18-2,.18-4,.78-6,.86a.76.76,0,0,0-.72.75c-.1,2.06,1.69,3.59,3.06,4.86,1.81,1.68,3.54,3.47,5.24,5.26a34.59,34.59,0,0,0,2.45,2.68c.82.7,1.78,1.23,2.63,1.89a23.91,23.91,0,0,0,6.28,3.41,24.87,24.87,0,0,0,3.83,1.26,7.56,7.56,0,0,0,1.9.06c.63,0,1.15.36,1.79.38a.72.72,0,0,0,.69-.85,1.24,1.24,0,0,0-.86-1,7.1,7.1,0,0,0-1.32-.52,9.09,9.09,0,0,0-1.65,0,11,11,0,0,1-3.14-.91,22.92,22.92,0,0,1-5.73-2.75c-.88-.6-1.73-1.24-2.61-1.84a12.34,12.34,0,0,1-2.14-2.07c-1.57-1.75-3.27-3.37-4.94-5-.77-.77-1.58-1.5-2.37-2.26-.55-.54-1.29-1.24-1.25-2.07l-.72.74c2-.09,4-.86,6-1.14,1-.14,2-.23,3-.42a15.66,15.66,0,0,1,2.87-.49c.82,0,.37-1.17-.26-1.24Z"/><path d="M290.5,319.5c.87,1,1.52,2.19,2.39,3.21s2.07,1.89,3.07,2.86,2,2.07,3,3.11a12.11,12.11,0,0,0,3,2.62c1.24.6,2.7.3,4,.33a18.67,18.67,0,0,0,4.52-.58c1.53-.34,3.05-.73,4.55-1.15s2.9-.94,4.37-1.3,2.76-.51,4.09-1c.91-.31,2.22-.81,2.5-1.84s-1.24-1.9-1.57-.83c-.16.53-1.49.86-2,1-1.1.36-2.24.54-3.37.79-1.39.32-2.75.83-4.12,1.24s-2.7.78-4.07,1.12a21.5,21.5,0,0,1-4.2.81c-.71,0-1.42,0-2.13,0a6.71,6.71,0,0,1-1.9,0c-1.08-.35-1.92-1.47-2.69-2.24-1-1-1.9-1.95-2.88-2.89-.53-.52-1.07-1-1.64-1.49a19,19,0,0,1-1.62-1.35c-1-1-1.7-2.21-2.66-3.22-.53-.55-1.23.25-.75.8Z"/><path d="M293,420a7,7,0,0,1,2.85,1.47,7.3,7.3,0,0,0,3.37,1.24,19.61,19.61,0,0,0,4,0c1.4-.14,2.78-.45,4.18-.62s2.78-.19,4.17-.44,2.5-.58,3.75-.9c2.1-.53,4.37-.86,6.09-2.3a9.58,9.58,0,0,0,2.28-3.3c.59-1.2,1.77-1.74,2.57-2.76.44-.56-.53-1.47-1-.89-.69.81-1.7,1.23-2.41,2s-1.16,2.07-2,2.93c-1.49,1.55-3.81,1.88-5.81,2.34-1.13.26-2.24.62-3.37.88a32.52,32.52,0,0,1-4.05.53c-1.32.12-2.62.42-3.94.61a28.88,28.88,0,0,1-3.95.22,6.52,6.52,0,0,1-3.6-1,6.82,6.82,0,0,0-3.19-1.28c-.71,0-.45,1.12.11,1.2Z"/><path d="M325.91,412.85c1.18,0,.62-1.85-.39-1.85-1.17,0-.61,1.85.39,1.85Z"/><path d="M362.48,443.68c.82-.31,1.72-.49,2.52-.87a4.47,4.47,0,0,0,2-1.92,17.83,17.83,0,0,0,1.46-5.69,1.3,1.3,0,0,0-.66-1.41c-.4-.21-1.13-.15-1.22.41a20.94,20.94,0,0,1-1.11,5.38A4.19,4.19,0,0,1,364,441.3a10.28,10.28,0,0,1-2.19,1c-.81.3-.1,1.66.64,1.39Z"/><path d="M418.12,449.82a7.56,7.56,0,0,0,1.63-2.36,12,12,0,0,0,.8-2.89c.45-2.19,1.1-4.32.85-6.57-.1-.9-1.8-1.35-1.73-.21a25.06,25.06,0,0,1-.77,5.9c-.32,1.81-.53,3.6-1.84,5-.48.51.52,1.63,1.06,1.13Z"/><path d="M351.1,371.52a3.27,3.27,0,0,0,2.82-1.33,7.41,7.41,0,0,0,1.3-3c.12-.53.22-1.07.31-1.6a1.14,1.14,0,0,0-.69-1.28.69.69,0,0,0-1,.62c0,.27-.07.53-.1.79,0,.08,0,.16,0,.23s0,.08,0,0l0,.12c0,.15-.05.29-.08.43a11.56,11.56,0,0,1-.51,1.92l-.09.21s-.12.26,0,.12l-.21.42a3,3,0,0,1-.24.38,3.45,3.45,0,0,1-.24.3,2.19,2.19,0,0,1-.58.39,1.91,1.91,0,0,1-.85.15.47.47,0,0,0-.41.6.72.72,0,0,0,.66.58Z"/><path d="M378.64,364.91a15.41,15.41,0,0,1,1.71-6.39,1,1,0,0,0-.47-1.13c-.29-.19-.84-.3-1,.1a12.32,12.32,0,0,0-1.67,7.24.94.94,0,0,0,.8.77.58.58,0,0,0,.67-.59Z"/><path d="M449.89,472.14l-.09.31a.71.71,0,0,0,.37.79,6.06,6.06,0,0,0,2.71.34c1,0,1.93-.06,2.89-.05,2.12,0,4.23,0,6.34,0,1,0,.49-1.49-.31-1.5q-3.06,0-6.11,0c-.9,0-1.79.07-2.69.13-.48,0-.95.05-1.43,0a12.6,12.6,0,0,0-1.37-.09l.67.58,0-.34c0-.43-.78-.77-.94-.24Z"/><path d="M468.3,534.13a2.91,2.91,0,0,0,.58,2.1,8,8,0,0,1,.53,2.27,4.41,4.41,0,0,0,1.22,2.26c.56.59,1.08,1.2,1.62,1.81,2.28,2.55,5.58,3.4,8.73,4.43a.71.71,0,0,0,.9-.68,1.18,1.18,0,0,0-.85-1.13c-2.55-.83-5.54-1.47-7.44-3.5-.53-.57-1-1.19-1.56-1.73a3,3,0,0,1-1-1.49,18.49,18.49,0,0,0-.49-2.05c-.23-.62-.77-1.06-.78-1.74a1,1,0,0,0-.6-.89.59.59,0,0,0-.81.34Z"/><path d="M516.87,431.08c1.7.8,2.87,2.43,4.19,3.72s3,2.62,4.35,4.11a24,24,0,0,1,5.26,9.6c1.17,4.16,1.66,8.5,3,12.63a19.28,19.28,0,0,0,2.6,5.09c1.17,1.69,2.2,3.48,3.4,5.15s2.43,3.23,3.55,4.92,2.17,3.41,3.19,5.16c2,3.48,3.87,7.05,5.8,10.57,4.08,7.42,8.83,14.44,13,21.78,2.19,3.83,4.23,7.75,6.35,11.63s4,7.67,6,11.47c.51.94,1,1.88,1.57,2.81.24.4.68.81,1.19.64a.81.81,0,0,0,.37-1.15c-2.17-3.75-3.9-7.73-5.94-11.56s-4.27-7.93-6.44-11.88c-4.15-7.55-9-14.65-13.25-22.16-4-7.12-7.62-14.5-12.49-21.08-1.22-1.66-2.43-3.29-3.54-5a40,40,0,0,1-3.14-5,30.69,30.69,0,0,1-1.77-6c-.48-2.12-.88-4.25-1.41-6.36a27,27,0,0,0-4.9-10.44,30.63,30.63,0,0,0-4.11-4.18c-.78-.67-1.57-1.33-2.34-2s-1.33-1.32-2-2a7.89,7.89,0,0,0-2.21-1.49c-.77-.33-1,.75-.32,1Z"/><g class="cls-6"><path class="cls-7" d="M473.88,664.72c-.24,1.93.9,3.77,1.34,5.6,1.19,5,1.08,10.34,1.43,15.39a165.9,165.9,0,0,1,.35,18c-.15,3.89-1.57,7.3-2.37,11s-1.79,7.11-2.41,10.72c-.57,3.26-1,6.23-2.55,9.18a23.31,23.31,0,0,1-2.43,3.64c-1.34,1.71-3,2.64-4.53,4.08-2.8,2.57-6.47,4.1-9.86,5.75-2.25,1.08-4,2.34-6.44,3-2.27.62-4.44,1.54-6.69,2.24-6.45,2-13,1.75-19.69,1.75a13.16,13.16,0,0,0-2.87-.06c-1.56.42-.65,2.22-.05,3.16.93,1.43,2.53,2.19,3.91,3.13,2.05,1.4,3.94,3.11,6,4.43a35.43,35.43,0,0,1,4,3.09c1.07.9,2.36,1.28,3.42,2.16a44.94,44.94,0,0,0,4.78,3.11,47.64,47.64,0,0,1,4.64,3.61c2.83,2.38,5.84,4.36,8.81,6.53,1.41,1,3,1.71,4.4,2.73,1.68,1.22,3.33,2.23,4.94,3.55,2,1.63,4.58,2.31,6.84,3.5a127.72,127.72,0,0,1,11.27,6.14c2.09,1.38,4.08,2.89,6.14,4.31,2.36,1.63,5.05,3,7.51,4.51s5.58,3.07,7.82,5.17c1.21,1.14,2.11,2.55,3.28,3.72s2.07,2,3.07,3.1c1.72,1.83,3.42,3.67,5,5.62,1.4,1.7,2.82,3.17,4.36,4.74.93-.68.78-3.23.78-4.3a26.69,26.69,0,0,0-.89-6.53c-1.14-4.63-1.9-9.27-3.36-13.81-1.57-4.91-2.52-10-4-14.94-1.53-5.21-3.41-10.29-4.86-15.52a65.91,65.91,0,0,0-3.73-10.08c-1.23-2.61-3-4.9-4.46-7.39a66.43,66.43,0,0,1-5.24-12.46c-1.41-4.18-2.46-8.42-3.88-12.58a59.26,59.26,0,0,1-2.54-10.12c-.38-2.5-1.05-5-1.46-7.44-.47-2.83-.17-6.08-.1-8.93.05-2.6.44-5.11.45-7.73a54.92,54.92,0,0,0-.83-8.09,64.26,64.26,0,0,0-3.86-14c-.86-2.23-2.19-4.29-3-6.57-.55-1.66-.66-3.12-2.09-4.32"/></g><g class="cls-6"><path class="cls-7" d="M256.85,649.88c-.33-1.7.3-3.52-.35-5.2-.75-1.95-2.46-2.26-4.16-3-2.64-1.11-5.36-2-8-3.1-3.91-1.65-7.69-3.62-11.59-5.3a160.12,160.12,0,0,1-17-9c-5-2.91-9.26-7.4-13.63-11.23-5-4.35-10.09-9-14-14.45a35.63,35.63,0,0,1-3.07-4.59c-.29,1.21-.63,2.4-1,3.58a3.09,3.09,0,0,1-.64,1.17l0,.06c.06.15.09.24.12.3l.09.14.25.38c0-.07.4.49.49.6a7.77,7.77,0,0,1,1.77,3.15c.27,1.07.33,2.17.66,3.23s.67,2,1.06,3c.24.62.49,1.24.74,1.86a31.52,31.52,0,0,0,4.65,4.66,37.09,37.09,0,0,1,2.95,2.5,20.49,20.49,0,0,0,3.63,2.68c2.48,1.61,4.87,3.51,7.3,5.23,5.43,3.84,10.68,8.06,16.15,11.88,6.33,4.41,13.47,6.4,20.31,9.71a36.22,36.22,0,0,0,10,3.39c.72.11,2.84.72,3.4,0C257.45,651,257,650.53,256.85,649.88Z"/></g><g class="cls-6"><path class="cls-7" d="M189.84,580.44c.63-1.84,1.27-3.68,1.81-5.55.9-3.14,1.49-6.62,3.93-9a13.62,13.62,0,0,0-3.81-6.17c-3.22-3-6.7-5.82-9.79-9-1.84-1.86-3.38-3.83-5.36-5.57a38.21,38.21,0,0,1-4.45-4.81c-1.32-1.61-2.84-3-4.09-4.72a64.81,64.81,0,0,1-5-8.11c-.07-.13-.13-.26-.19-.39,0,1.19,0,2.37-.09,3.55-.18,3.74-.88,7.44-1.25,11.17a29.79,29.79,0,0,1,1.74,4.49c1.89,3.07,4.52,5.63,6.63,8.56a44.88,44.88,0,0,1,2.45,4,39.63,39.63,0,0,1,6.75,8,58.25,58.25,0,0,0,5,6.86,68.61,68.61,0,0,1,5.2,5.84C189.49,579.91,189.67,580.17,189.84,580.44Z"/></g><g class="cls-6"><path class="cls-7" d="M343.83,716.8c-3.22-3.14-7.06-5.78-10.59-8.62-9.06-7.29-16.44-16.39-23.89-25.32q-10.19-12.23-20.69-24.17c-5.23-6-10.55-11.89-14.76-18.6a46.63,46.63,0,0,1-7.4-21.57,3.77,3.77,0,0,1-.71,1.34,37.11,37.11,0,0,0-8.73,19.23c-.39,3-1,6.87.42,9.46,1,1.77,2.15,3.25,2.66,5.26a37,37,0,0,1,.71,6c4.24,2,7.36,5.72,10.51,9.15a26,26,0,0,0,6.15,4.45,72.53,72.53,0,0,1,7.06,4.87c4.48,3.44,10.22,5.76,13.69,10.33.72,1,1.3,2,2,3l.31.42c7.56,3.87,11.73,9,18.59,13.67,4.32,2.94,11.81,4.94,16,8.13A29.88,29.88,0,0,1,343.83,716.8Z"/></g><g class="cls-8"><path class="cls-7" d="M180.89,315.47c1.09,2,2.27,4,3.57,5.94a28.34,28.34,0,0,1-1.85-5.59Z"/></g><g class="cls-6"><path class="cls-7" d="M380.18,596.89c.05-.45.11-.89.18-1.34,0-.13,0-.26.05-.39l0-.12a2.72,2.72,0,0,0,0-.28c-.2-.28-.61-1.27-.71-1.44a57,57,0,0,1-3.08-5.21c-.39-.47-.77-1-1.14-1.45s-1-1.09-1.51-1.65a51.84,51.84,0,0,1-4.31-5.69c-2.65-4-5.29-7.93-8-11.86-2.23-3.24-5-6-6.58-9.66a28.77,28.77,0,0,1-4.5-5.88.36.36,0,0,0,0-.09,55.33,55.33,0,0,1-4.3-4.75,139.54,139.54,0,0,1-9.84-15,2.93,2.93,0,0,1-.44-1.59c-1.77-2.18-3.53-4.36-5.08-6.66-2.25-3.34-5-6.28-7.4-9.51-1.6-2.14-3.31-4.38-4.09-6.95-3.64-3-8.07-6.38-7.85-11.52-1.26-1.64-2.53-3.27-3.76-4.9q-4.8-6.35-9.56-12.7c-33.08-44.19-64.42-89.56-95.71-135-3.32-4.86-6.17-9.59-10.67-13.32a39.7,39.7,0,0,1-7.42-8.48c9.76,24.38,55.74,115.82,79.13,161.09a8.16,8.16,0,0,1,4.22,1l.1-.07a3.78,3.78,0,0,1,2.18-1c4.2-.47,9.24-1.31,13,1.15a10.77,10.77,0,0,1,3.84,4.88,3.49,3.49,0,0,1,1.31,1.67c.12.31.24.64.36,1a2.74,2.74,0,0,1,1.67,2.66,46.55,46.55,0,0,1-.29,4.73,13,13,0,0,1-.46,3.61,9.39,9.39,0,0,1-.65,5.61,6,6,0,0,1-.3,1.55c-.45,1.3-1.06,2.52-1.49,3.83a39.83,39.83,0,0,1-2.77,6.43c6.63,9.89,14,19.32,21.19,28.84l.31-.13c3-1.05,6.42,0,9.54,0a11.35,11.35,0,0,1,5.1.79,12.2,12.2,0,0,1,3.45,2.56c1,1,1.81,2.08,2.7,3.13a25.42,25.42,0,0,1,2.88,3.57,21,21,0,0,1,1.33,2.74,2.18,2.18,0,0,1,.69.87c.1.25.18.5.26.75l.05,0,.12.48c.06.19.1.39.15.58,1.08,4.18,2.26,8.5,1.86,12.83a12.19,12.19,0,0,1-.34,1.89,28.15,28.15,0,0,1-.55,5.31,57.28,57.28,0,0,1,4.43,6.28c2.21,3.23,4.79,6.15,7.25,9.18,2.89,3.54,5.19,7.42,7.86,11.11a135.16,135.16,0,0,0,8.73,10.54c1.57,1.76,3.19,3.48,4.81,5.2a14.19,14.19,0,0,0,.92-1.75c.79-1.51,1.76-2.91,2.62-4.39a111,111,0,0,0,4.93-10.11c1.54-3.36,2.7-7,4.42-10.23.12-.22.25-.44.38-.66A3.63,3.63,0,0,1,380.18,596.89Z"/></g><g class="cls-6"><path class="cls-7" d="M815.71,836.92l-16.43-17.17c-9.8-10.24-22.4-17.44-33.35-26.35q-18.37-15-35.89-31a850.84,850.84,0,0,1-72.58-75.24c-11.6-13.64-14.19-32.23-20.58-48.44a4.55,4.55,0,0,1-.23-2.69l-.15-.38a5.76,5.76,0,0,1-.34-1.44,105.06,105.06,0,0,1-3.61-10.09q-.7-2.36-1.3-4.74c-1.92-7.63-6.84-16-9.48-23.69-10.28-30-19.59-60.06-26.74-91-1.71-7.36-3.34-14.84-6.81-21.55-5.67-10.95-17.32-15.68-25.93-24l-.06-.06c-11.06-6.81-22.23-13.45-32-22.07-12.56-11.06-19.34-27.39-32.9-37.21-6.66-4.82-15.9-16.26-22.08-21.45-3.9,21.48,16.54,47.29,25,66.18,10.07,22.55,18.33,49.77,29.87,71.59,11.38,21.51,23.39,42.76,32.51,65.32a294.94,294.94,0,0,1,17.91,65.35c3.52,22.82,3,44.94,2.51,68a34.53,34.53,0,0,0,.7,9.64c1.74,6.59,6.4,13.26,9.42,19.4a102.28,102.28,0,0,0,48.69,47.37c20.35,9.26,42.86,11.47,64.46,16.34a183.53,183.53,0,0,1,62.41,27.08c13.53,9.23,28.26,21.31,44.22,17.58,3.08-.72,6.34-2.38,7.22-5.42C821.17,843.19,818.34,839.66,815.71,836.92Z"/></g><g class="cls-6"><path class="cls-7" d="M446.32,459.92a100,100,0,0,0-9.9-8.5c-5.54-4.27-11.66-8-18.51-9.73-11.6-2.86-24,.24-35.29-4.25-2.64-1.05-5.12-2.5-7.78-3.52-5.16-2-10-.77-15.15.49a126.23,126.23,0,0,1-21,3.26,5.1,5.1,0,0,1-2.79.73c-12.54-.15-26.05,1.09-38.27-2.36-4.68-1.33-8.08-3.42-10.33-6.4-.29,0-.54,0-.66,0,1,3.53,2.14,8,3.75,11.24,4.44,8.91,19.1,8.75,27.47,8.74,4.39,0,16.05-1.61,20.4-2,2.32-.23,6.06.25,8.32-.46,3.14-1,.44-1.31,3.75-1.25s10.85-1.63,14.24-2.09c1.26-.17,2,.8,3.25.84,1.47.06,2.32.85,3.74,1.25,8.62,2.43,11,3.85,20,3.75,7.18-.08,17.77-1.95,25-1.25,11,1.08,22.24,9.3,29.56,16.2a9.49,9.49,0,0,0,1.69,1.34A21.55,21.55,0,0,1,446.32,459.92Z"/></g><path class="cls-9" d="M120.55,288.51s-7.55-20-20-15.62c0,0-6.38.5,14.31,30.54,12,17.42,52.72,77.63,84.83,125.16h.09c5.72.16,10.59,1.65,14.38,4.39a5.66,5.66,0,0,1,5.39,2.24c3,3.95,2.82,8.91,3.57,13.6.17,1.1.34,2.19.49,3.29A33.26,33.26,0,0,1,224.91,466l16.78,24.86,6.08,8.87c.45-.23.91-.46,1.39-.73,2.74-3.57,5-7.54,8.59-10.27C191.7,392.62,120.55,288.51,120.55,288.51Z"/><path class="cls-9" d="M282.22,524.24a18,18,0,0,1-1,4.55,4.29,4.29,0,0,1-.08,3,22.06,22.06,0,0,1-1.71,3.61,5.26,5.26,0,0,1-2.57,2.15,19.41,19.41,0,0,1-1.9,1.84L291.85,564c2-2.23,4-4.36,6.14-6.47a28,28,0,0,1,3-5.11,5.73,5.73,0,0,1,.39-.45C295.19,543.07,288.78,533.77,282.22,524.24Z"/><path class="cls-9" d="M368,647.09c-2.31-2.6-16.44-22.67-36.87-52.09a55.24,55.24,0,0,1-3.84,9.37,5.55,5.55,0,0,1-.86,1.24c-.46,1.72-1,3.43-1.61,5.12a6.35,6.35,0,0,1-.39.83l33.39,48.73s6.87,14.91,18.44,15.14,16.41-4.8,19-8.53S378.13,658.48,368,647.09Z"/><path class="cls-9" d="M626.19,489.35a26.85,26.85,0,0,0,3.66-.92v-.14c-11.84-2-13.43-18.21-4.8-24.07a1.81,1.81,0,0,0-.6.11c-2.4,1-5,1.44-7.35,2.55a10.44,10.44,0,0,0-5.52,5.87c-2.53,6.6,1.71,14.14,8.38,16,1.34.37,2.73.63,4.09.88l1.32.23A1.68,1.68,0,0,1,626.19,489.35Z"/><g class="cls-6"><path class="cls-7" d="M536.31,287.57c8.09,1.44,16.6,1.07,24.79,1.15,8.48.08,17,.34,25.48-.07,3.59-.17,1.72-5.38-1.17-5.51-8.49-.4-17-.15-25.5-.07-8,.08-16.42-.35-24.31,1.17-1.77.33-.55,3.1.71,3.33Z"/></g><g class="cls-6"><path class="cls-7" d="M612.16,287.45c8.86,2.09,18.48,1.62,27.52,1.66l13,.05c3.53,0,7.92.76,11.34-.1,3-.76,1-5.36-1.23-5.8-7.88-1.54-16.47-.61-24.45-.58-8.76,0-18.27-.55-26.82,1.67-1.65.43-.49,2.83.66,3.1Z"/></g><g class="cls-6"><path class="cls-7" d="M535.1,175.22c-.31,5.08-1.27,10.1-1.26,15.2,0,3,1.26,4.56,4.21,5.11a43.34,43.34,0,0,0,8.13.35c5.78,0,11.56,0,17.34-.09,21.53-.23,43-.3,64.55,0,12.15.15,24.29.23,36.43,0,3.58-.07,1.85-5.65-1.19-5.62-24.9.24-49.8-1-74.7-.8-13,.12-26,.52-38.93,1-2.17.08-4.33.18-6.5.24-1.15,0-4.39-.59-5.3-.07-.73-.22-.7,0,.1.53.7,1,.89.79.59-.59.35-1.36.06-3.32.09-4.73.08-3.19.13-6.37,0-9.56-.08-2-3.41-3.54-3.57-.91Z"/></g><path class="cls-9" d="M612.59,223.37a3.28,3.28,0,0,0-2.26-2.12c-2-.6-4.65,0-6.72.06-2.94.09-5.91,0-8.85-.07s-5.63-.05-8.44-.1c-2.19,0-4.82-.55-6.93.05l-.12.05a6.53,6.53,0,0,0-2.16-.12,1.55,1.55,0,0,0-1.45,1.51c-.07.63-.14,1.27-.22,1.93v11.27c1,3.07,4.42,1.49,6.86,1.48,5.59,0,11.2.25,16.76.51a66.81,66.81,0,0,0,7.21-.35c1.44-.09,3.83.57,5.11,0a2.31,2.31,0,0,0,1.21-1.3Z"/><path class="cls-9" d="M652.76,324.69a3.28,3.28,0,0,0-2.26-2.12c-2-.6-4.65,0-6.72.06-2.94.09-5.91,0-8.85-.07s-5.63-.05-8.44-.1c-2.19,0-4.82-.55-6.93.05l-.12.05a6.53,6.53,0,0,0-2.16-.12,1.55,1.55,0,0,0-1.45,1.51c-.06.63-.14,1.27-.22,1.93v11.27c1,3.07,4.42,1.49,6.86,1.48,5.59,0,11.2.25,16.77.51a66.62,66.62,0,0,0,7.2-.35c1.44-.09,3.83.57,5.12,0a2.33,2.33,0,0,0,1.2-1.3Z"/><path class="cls-9" d="M571,407.77a3.28,3.28,0,0,0-2.26-2.12c-2-.59-4.65,0-6.72.06-2.94.09-5.91,0-8.85-.07s-5.63-.05-8.44-.09c-2.19,0-4.82-.56-6.93.05l-.12,0a6.52,6.52,0,0,0-2.16-.11A1.54,1.54,0,0,0,534.1,407c-.07.62-.14,1.27-.22,1.92v11.27c1,3.07,4.42,1.49,6.86,1.49,5.59,0,11.2.24,16.76.5a66.81,66.81,0,0,0,7.21-.35c1.44-.09,3.83.57,5.11,0a2.28,2.28,0,0,0,1.21-1.3Z"/><path d="M572.47,77c0,1-.09,2.06-.12,3.09s0,2.09,0,3.14a.67.67,0,0,0,.49.64.4.4,0,0,0,.51-.38,57.18,57.18,0,0,0-.07-6.28.58.58,0,0,0-.41-.54.34.34,0,0,0-.44.33Z"/><path d="M570.27,78.75a51,51,0,0,0,7.88-2.91c1.3-.62,2.7-1.12,4-1.67.58-.24,1.18-.42,1.75-.69a5.06,5.06,0,0,1,1.87-.67c.55,0,.28-.85-.18-.85a4,4,0,0,0-1.65.44c-.64.3-1.28.52-1.93.78-1.35.52-2.72,1-4,1.6a75.61,75.61,0,0,1-8.1,3.12c-.5.16-.08,1,.38.85Z"/><path d="M587.42,66.32c-.27,6.12-.28,12.31-.07,18.43,0,.63,1.08,1.1,1.11.28.2-6.13.19-12.33-.07-18.46,0-.55-.94-1-1-.25Z"/><path d="M588.2,72.16c1.33.5,2.75.74,4,1.37A34,34,0,0,0,596,75.42a16.62,16.62,0,0,1,1.84.63c.54.27,1.07.56,1.58.87.81.48,1.8,1.26,2.8,1,.63-.16.12-1.1-.37-1.1-1,0-1.83-.78-2.67-1.23a14.55,14.55,0,0,0-1.67-.85c-.62-.24-1.28-.33-1.89-.61-1.21-.56-2.37-1.25-3.63-1.72s-2.53-.63-3.76-1.06c-.53-.18-.43.64,0,.8Z"/><path d="M599.68,76c0,1.26-.1,2.53-.14,3.79a28.79,28.79,0,0,0,0,3.83c.06.58,1,.84,1.09.13a27.61,27.61,0,0,0,0-3.75c0-1.26-.14-2.53-.14-3.79,0-.48-.83-.8-.83-.21Z"/><path d="M588.62,85c4,.27,8,.13,11.91.13.74,0,.39-1.16-.24-1.16-3.95,0-7.92-.14-11.86.13-.59,0-.27.86.19.9Z"/><path d="M541.8,73.52c0,.61-.54.94-1,1.26a6,6,0,0,0-1.36,1.1,10.58,10.58,0,0,1-.79,1c-.25.25-.56.45-.81.7a2,2,0,0,0-.78,1.67,2.57,2.57,0,0,0,1.12,1.56c.4.32.77.65,1.14,1,.83.79,1.86,1.87,3.09,1.9.37,0,.54-.37.49-.69a.86.86,0,0,0-.78-.68,2.69,2.69,0,0,1-1.05-.64c-.44-.35-.85-.73-1.26-1.11s-.68-.59-1-.87a2.59,2.59,0,0,1-.45-.41s0-.16,0,0a3,3,0,0,1,.21-.33,15.5,15.5,0,0,1,1.29-1.4A7.76,7.76,0,0,1,541,76.13c.84-.64,1.72-1.21,1.73-2.38,0-.52-.85-.89-.91-.23Z"/><path d="M537.33,160q17.7.24,35.4.31c.89,0,.47-1.41-.3-1.41q-17.62.08-35.26.32c-.5,0-.25.77.16.78Z"/><path d="M537.74,122.54q29.37.18,58.75.28l16.54,0c.89,0,.46-1.41-.3-1.41q-29.33.06-58.65.19c-5.5,0-11,.09-16.51.13-.49,0-.25.77.17.78Z"/><path d="M537.33,210.67q17.7.24,35.4.31c.89,0,.47-1.41-.3-1.41q-17.62.08-35.26.32c-.5,0-.25.77.16.78Z"/><path d="M537.33,259.3q17.7.24,35.4.32c.89,0,.47-1.41-.3-1.41q-17.62.07-35.26.31c-.5,0-.25.78.16.78Z"/><path d="M537.33,311.31q17.7.26,35.4.32c.89,0,.47-1.41-.3-1.41q-17.62.07-35.26.31c-.5,0-.25.78.16.78Z"/><path d="M659.07,195.72c1.32,0,2.65.11,4,.1a4.63,4.63,0,0,0,2.41-.45,1.89,1.89,0,0,0,.71-1.83v-3.86c0-2.73,0-5.45,0-8.18,0-1.82.28-4-.57-5.69-1.2-2.38-4.43-1.54-6.56-1.59h-1.42l-8.58,0-14.42-.05c-6.11,0-12.22,0-18.33,0l-20.12,0-19.78,0H538.6c-1.46,0-3.62-.45-4.91.46-.72.51-.69,1.32-.68,2.12v3.9c0,2.72,0,5.44,0,8.16,0,1.85-.28,4.19.79,5.83.82,1.26,2.26,1.42,3.64,1.41h41.25l20,0,19.86,0h31.73l7.83,0h1c.7,0,.36-1.1-.24-1.1h-4l-10.79,0H609.71l-19.8,0-19,0H542.75c-1.8,0-3.6,0-5.4,0a6.82,6.82,0,0,1-1.75-.13c-1.7-.46-1.53-2.9-1.52-4.27,0-2.55,0-5.09,0-7.64,0-1.36,0-2.73,0-4.09v-1.76c0-.41-.1-.95.2-1.29.56-.63,1.92-.49,2.66-.48s1.27,0,1.91.06h12.79l15.16,0h57.47q8.36,0,16.7,0l12.19,0c2,0,3.92,0,5.88,0l.69,0c1.39,0,3.1-.48,4.41.18s1.22,3.18,1.21,4.49c0,2.56,0,5.12,0,7.68,0,1.28,0,2.55,0,3.82,0,.59,0,1.17,0,1.76a2.08,2.08,0,0,1-.21,1.35c-.51.62-1.71.55-2.42.55-1.29,0-2.57-.07-3.85-.08C658.41,194.93,658.65,195.72,659.07,195.72Z"/><path d="M568.69,238.24c.92,0,1.92.3,2.15-.88a12.5,12.5,0,0,0,.06-2.29c0-.91,0-1.82,0-2.73l0-5.51a28.29,28.29,0,0,0-.11-4.51,1.85,1.85,0,0,0-1-1.65,1.53,1.53,0,0,0-.64,0,3.9,3.9,0,0,1-.63,0c-.64,0-1.28,0-1.91,0-7.87-.08-15.74,0-23.61-.06-2.59,0-5.18,0-7.77,0a8.54,8.54,0,0,0-1-.05c-1.38.13-1.11,1.88-1.11,2.86,0,3.61,0,7.23,0,10.84,0,1.33-.22,4.15,1.72,4.21.6,0,1.21,0,1.81,0,3.45,0,6.89,0,10.34,0,7.1,0,14.2-.06,21.3,0h.43c.7,0,.36-1.1-.24-1.1-5.62,0-11.25.05-16.87,0s-11.36.11-17,0c-.22,0-.11,0-.12,0a2.76,2.76,0,0,1-.23-1.3c-.11-1.62,0-3.25,0-4.87v-5.33c0-.79,0-1.58,0-2.38,0-.47-.21-1.59.35-1.74a9.81,9.81,0,0,1,1.87,0H540l23.23,0c1.84,0,3.69,0,5.54,0,.16,0,.45,0,.69-.06s.22,0,.26,0c.19.21.19.79.22,1.06.08.79.08,1.59.09,2.38l.06,10.11c0,.46.23,1.82-.16,2.15s-1,0-1.41,0S568.27,238.22,568.69,238.24Z"/><path d="M568.69,339.56c.92,0,1.92.3,2.15-.88a12.5,12.5,0,0,0,.06-2.29c0-.91,0-1.82,0-2.73l0-5.51a28.29,28.29,0,0,0-.11-4.51,1.85,1.85,0,0,0-1-1.65,1.53,1.53,0,0,0-.64-.05,3.9,3.9,0,0,1-.63,0c-.64,0-1.28,0-1.91,0-7.87-.08-15.74,0-23.61-.06-2.59,0-5.18,0-7.77,0a8.54,8.54,0,0,0-1-.05c-1.38.13-1.11,1.88-1.11,2.86,0,3.61,0,7.23,0,10.84,0,1.33-.22,4.15,1.72,4.21.6,0,1.21,0,1.81,0,3.45,0,6.89,0,10.34,0,7.1,0,14.2-.06,21.3,0h.43c.7,0,.36-1.1-.24-1.1-5.62,0-11.25.05-16.87,0s-11.36.12-17,0c-.22,0-.11,0-.12,0a2.76,2.76,0,0,1-.23-1.3c-.11-1.62,0-3.25,0-4.87v-5.33c0-.79,0-1.58,0-2.38,0-.47-.21-1.59.35-1.74a9.81,9.81,0,0,1,1.87,0H540l23.23,0c1.84,0,3.69,0,5.54,0,.16,0,.45,0,.69-.06s.22,0,.26,0c.19.21.19.79.22,1.06.08.79.08,1.59.09,2.38l.06,10.11c0,.46.23,1.82-.16,2.15s-1,0-1.41,0S568.27,339.54,568.69,339.56Z"/><path d="M537.33,394.39q17.7.25,35.4.32c.89,0,.47-1.41-.3-1.41q-17.62.07-35.26.32c-.5,0-.25.77.16.77Z"/><path d="M568.69,422.64c.92,0,1.92.31,2.15-.87a12.61,12.61,0,0,0,.06-2.3c0-.91,0-1.81,0-2.72l0-5.52a28.29,28.29,0,0,0-.11-4.51,1.85,1.85,0,0,0-1-1.65,1.53,1.53,0,0,0-.64-.05,4.11,4.11,0,0,1-.63.05c-.64,0-1.28,0-1.91,0C558.76,405,550.89,405,543,405c-2.59,0-5.18,0-7.77,0a8.53,8.53,0,0,0-1,0c-1.38.12-1.11,1.87-1.11,2.85,0,3.62,0,7.23,0,10.84,0,1.33-.22,4.15,1.72,4.22.6,0,1.21,0,1.81,0,3.45,0,6.89,0,10.34,0,7.1,0,14.2-.05,21.3,0h.43c.7,0,.36-1.11-.24-1.11-5.62,0-11.25.05-16.87,0s-11.36.12-17,0c-.22,0-.11,0-.12,0a2.74,2.74,0,0,1-.23-1.3c-.11-1.61,0-3.25,0-4.87v-5.32c0-.8,0-1.59,0-2.38,0-.48-.21-1.59.35-1.74a9,9,0,0,1,1.87,0H540l23.23.05c1.84,0,3.69,0,5.54,0,.16,0,.45,0,.69-.06s.22,0,.26,0c.19.21.19.8.22,1.06.08.79.08,1.59.09,2.38l.06,10.12c0,.45.23,1.82-.16,2.14s-1,.06-1.41.05S568.27,422.63,568.69,422.64Z"/><path d="M612.6,422.64c.92,0,1.92.31,2.15-.87a13.58,13.58,0,0,0,.06-2.3c0-.91,0-1.81,0-2.72,0-1.84,0-3.68,0-5.52a29.52,29.52,0,0,0-.11-4.51,1.85,1.85,0,0,0-1-1.65,1.58,1.58,0,0,0-.65-.05,3.94,3.94,0,0,1-.63.05c-.63,0-1.27,0-1.91,0-7.87-.09-15.74-.05-23.61-.07-2.58,0-5.18,0-7.76,0a8.61,8.61,0,0,0-1,0c-1.38.12-1.11,1.87-1.11,2.85,0,3.62,0,7.23,0,10.84,0,1.33-.23,4.15,1.71,4.22.61,0,1.21,0,1.81,0l10.35,0c7.09,0,14.19-.05,21.29,0h.43c.7,0,.37-1.11-.23-1.11-5.63,0-11.25.05-16.88,0s-11.35.12-17,0c-.22,0-.11,0-.13,0a2.86,2.86,0,0,1-.22-1.3c-.11-1.61,0-3.25,0-4.87s0-3.55,0-5.32V407.8c0-.48-.22-1.59.35-1.74a8.94,8.94,0,0,1,1.86,0h3.59l23.23.05c1.85,0,3.69,0,5.54,0,.16,0,.46,0,.69-.06s.22,0,.26,0c.2.21.2.8.23,1.06a23.66,23.66,0,0,1,.08,2.38q0,5.07.07,10.12c0,.45.23,1.82-.16,2.14s-1,.06-1.42.05S612.18,422.63,612.6,422.64Z"/><path d="M533.13,435.81l1.08.92v-7.32c0-.47-.21-1.59.35-1.74a9.81,9.81,0,0,1,1.87.05H540l23.23,0c1.84,0,3.69,0,5.54,0,.16,0,.45,0,.69-.07s.22,0,.26,0a2.4,2.4,0,0,1,.22,1.06c.08.79.08,1.6.09,2.39l.06,10.11c0,.46.23,1.82-.16,2.14-.23.2-.67.14-1,.09a.59.59,0,0,0-.41-.19c-5.62,0-11.25.05-16.87,0-3.34,0-6.69,0-10,0l1.16,1.07H547c7.1,0,14.2-.06,21.3,0h.43a.38.38,0,0,0,.31-.14c.81.06,1.6.14,1.8-.89a12.5,12.5,0,0,0,.06-2.29c0-.91,0-1.82,0-2.73l0-5.51a28.42,28.42,0,0,0-.11-4.52,1.83,1.83,0,0,0-1-1.64,1.53,1.53,0,0,0-.64-.05,3.9,3.9,0,0,1-.63,0c-.64,0-1.28,0-1.91,0-7.87-.08-15.74-.05-23.61-.06-2.59,0-5.18,0-7.77,0-.33,0-.68-.07-1,0-1.38.13-1.11,1.88-1.11,2.86Z"/><path d="M612.6,444.25c.92,0,1.92.31,2.15-.87a13.46,13.46,0,0,0,.06-2.29c0-.91,0-1.82,0-2.73,0-1.84,0-3.67,0-5.51a29.65,29.65,0,0,0-.11-4.52,1.85,1.85,0,0,0-1-1.64,1.58,1.58,0,0,0-.65-.05,3.78,3.78,0,0,1-.63,0c-.63,0-1.27,0-1.91,0-7.87-.08-15.74-.05-23.61-.06-2.58,0-5.18,0-7.76,0-.34,0-.68-.07-1,0-1.38.13-1.11,1.88-1.11,2.86,0,3.61,0,7.22,0,10.84,0,1.32-.23,4.15,1.71,4.21.61,0,1.21,0,1.81,0l10.35,0c7.09,0,14.19-.06,21.29,0h.43c.7,0,.37-1.1-.23-1.1-5.63,0-11.25.05-16.88,0s-11.35.11-17,0h-.13a2.88,2.88,0,0,1-.22-1.3c-.11-1.62,0-3.25,0-4.87,0-1.78,0-3.55,0-5.33v-2.38c0-.47-.22-1.59.35-1.74a9.71,9.71,0,0,1,1.86.05h3.59l23.23,0c1.85,0,3.69,0,5.54,0,.16,0,.46,0,.69-.07s.22,0,.26,0c.2.22.2.8.23,1.06a23.86,23.86,0,0,1,.08,2.39q0,5.05.07,10.11c0,.46.23,1.82-.16,2.14s-1,.06-1.42.06S612.18,444.24,612.6,444.25Z"/><path d="M653.8,422.64c.92,0,1.92.31,2.15-.87a13.58,13.58,0,0,0,.06-2.3c0-.91,0-1.81,0-2.72,0-1.84,0-3.68,0-5.52a28.29,28.29,0,0,0-.11-4.51,1.85,1.85,0,0,0-1-1.65,1.53,1.53,0,0,0-.64-.05,4.14,4.14,0,0,1-.64.05c-.63,0-1.27,0-1.9,0C643.87,405,636,405,628.13,405c-2.59,0-5.18,0-7.77,0a8.53,8.53,0,0,0-1,0c-1.38.12-1.11,1.87-1.11,2.85,0,3.62,0,7.23,0,10.84,0,1.33-.22,4.15,1.72,4.22.6,0,1.21,0,1.81,0,3.45,0,6.89,0,10.34,0,7.1,0,14.2-.05,21.3,0h.43c.7,0,.36-1.11-.24-1.11-5.62,0-11.25.05-16.87,0s-11.36.12-17,0c-.22,0-.11,0-.13,0a2.86,2.86,0,0,1-.22-1.3c-.11-1.61,0-3.25,0-4.87v-5.32c0-.8,0-1.59,0-2.38,0-.48-.22-1.59.35-1.74a8.93,8.93,0,0,1,1.86,0h3.6l23.23.05c1.84,0,3.69,0,5.53,0,.17,0,.46,0,.7-.06s.22,0,.26,0c.19.21.19.8.22,1.06.08.79.08,1.59.09,2.38l.06,10.12c0,.45.23,1.82-.16,2.14s-1,.06-1.41.05S653.38,422.63,653.8,422.64Z"/><path d="M697.71,422.64c.91,0,1.92.31,2.15-.87a12.61,12.61,0,0,0,0-2.3c0-.91,0-1.81,0-2.72l0-5.52a28.29,28.29,0,0,0-.1-4.51,1.87,1.87,0,0,0-1-1.65,1.58,1.58,0,0,0-.65-.05,3.94,3.94,0,0,1-.63.05c-.64,0-1.27,0-1.91,0C687.77,405,679.9,405,672,405c-2.59,0-5.18,0-7.76,0a8.61,8.61,0,0,0-1,0c-1.38.12-1.12,1.87-1.11,2.85,0,3.62,0,7.23,0,10.84,0,1.33-.23,4.15,1.71,4.22.61,0,1.21,0,1.81,0q5.18,0,10.34,0c7.1,0,14.2-.05,21.3,0h.43c.7,0,.37-1.11-.23-1.11-5.63,0-11.25.05-16.88,0s-11.35.12-17,0c-.23,0-.12,0-.13,0a2.86,2.86,0,0,1-.22-1.3c-.11-1.61,0-3.25,0-4.87v-7.7c0-.48-.22-1.59.35-1.74a8.94,8.94,0,0,1,1.86,0H669l23.23.05c1.85,0,3.69,0,5.54,0,.16,0,.46,0,.69-.06s.22,0,.26,0c.2.21.2.8.22,1.06a21,21,0,0,1,.09,2.38q0,5.07.07,10.12c0,.45.23,1.82-.16,2.14s-1,.06-1.42.05S697.29,422.63,697.71,422.64Z"/><path d="M609.22,339.56c.92,0,1.92.3,2.15-.88a13.46,13.46,0,0,0,.06-2.29c0-.91,0-1.82,0-2.73,0-1.83,0-3.67,0-5.51a28.29,28.29,0,0,0-.11-4.51,1.85,1.85,0,0,0-1-1.65,1.53,1.53,0,0,0-.64-.05,4,4,0,0,1-.64,0c-.63,0-1.27,0-1.9,0-7.87-.08-15.74,0-23.61-.06-2.59,0-5.18,0-7.77,0a8.54,8.54,0,0,0-1-.05c-1.38.13-1.11,1.88-1.11,2.86,0,3.61,0,7.23,0,10.84,0,1.33-.22,4.15,1.72,4.21.6,0,1.21,0,1.81,0l10.34,0c7.1,0,14.2-.06,21.3,0h.43c.7,0,.36-1.1-.24-1.1-5.62,0-11.25.05-16.87,0s-11.36.12-17,0c-.22,0-.11,0-.13,0a2.88,2.88,0,0,1-.22-1.3c-.11-1.62,0-3.25,0-4.87,0-1.78,0-3.55,0-5.33v-2.38c0-.47-.22-1.59.35-1.74a9.69,9.69,0,0,1,1.86,0h3.6l23.22,0c1.85,0,3.7,0,5.54,0,.17,0,.46,0,.7-.06s.22,0,.26,0c.19.21.19.79.22,1.06.08.79.08,1.59.09,2.38l.06,10.11c0,.46.23,1.82-.16,2.15s-1,0-1.41,0S608.8,339.54,609.22,339.56Z"/><path d="M568.69,367.93c.92,0,1.92.3,2.15-.88a12.5,12.5,0,0,0,.06-2.29c0-.91,0-1.82,0-2.73l0-5.51a28.29,28.29,0,0,0-.11-4.51,1.85,1.85,0,0,0-1-1.65,1.53,1.53,0,0,0-.64-.05,3.9,3.9,0,0,1-.63,0c-.64,0-1.28,0-1.91,0-7.87-.08-15.74,0-23.61-.06-2.59,0-5.18,0-7.77,0a8.54,8.54,0,0,0-1-.05c-1.38.13-1.11,1.88-1.11,2.86,0,3.61,0,7.23,0,10.84,0,1.33-.22,4.15,1.72,4.21.6,0,1.21,0,1.81,0,3.45,0,6.89,0,10.34,0,7.1,0,14.2-.06,21.3,0h.43c.7,0,.36-1.1-.24-1.1-5.62,0-11.25,0-16.87,0s-11.36.11-17,0c-.22,0-.11,0-.12,0a2.76,2.76,0,0,1-.23-1.3c-.11-1.62,0-3.25,0-4.87v-5.33c0-.79,0-1.58,0-2.38,0-.47-.21-1.59.35-1.74a9.81,9.81,0,0,1,1.87.05H540l23.23,0c1.84,0,3.69,0,5.54,0,.16,0,.45,0,.69-.06s.22,0,.26,0c.19.21.19.79.22,1.06.08.79.08,1.59.09,2.38l.06,10.11c0,.46.23,1.82-.16,2.15s-1,.05-1.41.05S568.27,367.91,568.69,367.93Z"/><path d="M609.22,367.93c.92,0,1.92.3,2.15-.88a13.46,13.46,0,0,0,.06-2.29c0-.91,0-1.82,0-2.73,0-1.83,0-3.67,0-5.51a28.29,28.29,0,0,0-.11-4.51,1.85,1.85,0,0,0-1-1.65,1.53,1.53,0,0,0-.64-.05,4,4,0,0,1-.64,0c-.63,0-1.27,0-1.9,0-7.87-.08-15.74,0-23.61-.06-2.59,0-5.18,0-7.77,0a8.54,8.54,0,0,0-1-.05c-1.38.13-1.11,1.88-1.11,2.86,0,3.61,0,7.23,0,10.84,0,1.33-.22,4.15,1.72,4.21.6,0,1.21,0,1.81,0l10.34,0c7.1,0,14.2-.06,21.3,0h.43c.7,0,.36-1.1-.24-1.1-5.62,0-11.25,0-16.87,0s-11.36.11-17,0c-.22,0-.11,0-.13,0a2.88,2.88,0,0,1-.22-1.3c-.11-1.62,0-3.25,0-4.87,0-1.78,0-3.55,0-5.33v-2.38c0-.47-.22-1.59.35-1.74a9.69,9.69,0,0,1,1.86.05h3.6l23.22,0c1.85,0,3.7,0,5.54,0,.17,0,.46,0,.7-.06s.22,0,.26,0c.19.21.19.79.22,1.06.08.79.08,1.59.09,2.38l.06,10.11c0,.46.23,1.82-.16,2.15s-1,.05-1.41.05S608.8,367.91,609.22,367.93Z"/><path d="M650.43,339.56c.91,0,1.91.3,2.14-.88a11.67,11.67,0,0,0,.06-2.29c0-.91,0-1.82,0-2.73l0-5.51a29.51,29.51,0,0,0-.1-4.51,1.87,1.87,0,0,0-1-1.65,1.6,1.6,0,0,0-.65-.05,3.84,3.84,0,0,1-.63,0c-.64,0-1.28,0-1.91,0-7.87-.08-15.74,0-23.61-.06-2.59,0-5.18,0-7.77,0a8.48,8.48,0,0,0-1-.05c-1.39.13-1.12,1.88-1.12,2.86,0,3.61,0,7.23,0,10.84,0,1.33-.22,4.15,1.72,4.21.6,0,1.21,0,1.81,0,3.45,0,6.9,0,10.34,0,7.1,0,14.2-.06,21.3,0h.43c.7,0,.36-1.1-.23-1.1-5.63,0-11.25.05-16.88,0s-11.35.12-17,0c-.22,0-.11,0-.12,0a2.89,2.89,0,0,1-.23-1.3c-.11-1.62,0-3.25,0-4.87v-7.71c0-.47-.22-1.59.34-1.74a9.81,9.81,0,0,1,1.87,0h3.59l23.23,0c1.84,0,3.69,0,5.54,0,.16,0,.46,0,.69-.06s.22,0,.26,0c.2.21.19.79.22,1.06a23.67,23.67,0,0,1,.09,2.38q0,5.06.07,10.11c0,.46.22,1.82-.16,2.15s-1,0-1.42,0S650,339.54,650.43,339.56Z"/><path d="M691,339.56c.92,0,1.92.3,2.15-.88a12.5,12.5,0,0,0,.06-2.29c0-.91,0-1.82,0-2.73,0-1.83,0-3.67,0-5.51a28.29,28.29,0,0,0-.11-4.51,1.85,1.85,0,0,0-1-1.65,1.53,1.53,0,0,0-.64-.05,3.9,3.9,0,0,1-.63,0c-.64,0-1.28,0-1.91,0-7.87-.08-15.74,0-23.61-.06-2.59,0-5.18,0-7.77,0a8.54,8.54,0,0,0-1-.05c-1.38.13-1.11,1.88-1.11,2.86,0,3.61,0,7.23,0,10.84,0,1.33-.22,4.15,1.72,4.21.6,0,1.21,0,1.81,0,3.45,0,6.89,0,10.34,0,7.1,0,14.2-.06,21.3,0H691c.7,0,.36-1.1-.24-1.1-5.62,0-11.25.05-16.87,0s-11.36.12-17,0c-.22,0-.11,0-.12,0a2.76,2.76,0,0,1-.23-1.3c-.11-1.62,0-3.25,0-4.87v-5.33c0-.79,0-1.58,0-2.38,0-.47-.22-1.59.35-1.74a9.81,9.81,0,0,1,1.87,0h3.59l23.23,0c1.84,0,3.69,0,5.54,0,.16,0,.45,0,.69-.06s.22,0,.26,0c.19.21.19.79.22,1.06.08.79.08,1.59.09,2.38l.06,10.11c0,.46.23,1.82-.16,2.15s-1,0-1.41,0S690.53,339.54,691,339.56Z"/><path d="M585.83,288.9a6.34,6.34,0,0,0,2.34,0c.69-.27.76-1,.77-1.64,0-2.44,0-4.88,0-7.32a38.85,38.85,0,0,0-.12-6.65c-.17-1-.66-1.9-1.77-1.95-.52,0-1,.07-1.54.05s-.75,0-1.12,0l-4.88,0c-5.39-.05-10.79,0-16.19-.05l-17.41,0c-3.24,0-6.49,0-9.73,0a5.88,5.88,0,0,0-1.92.06c-.78.27-.89,1.05-.89,1.78,0,1.17,0,2.35,0,3.52q0,3.68,0,7.33c0,1.37-.25,3.57.8,4.67.65.67,1.71.51,2.56.51h4.62c5.31,0,10.61,0,15.91,0q8.78,0,17.55,0c3.5,0,7,0,10.51,0h.51c.7,0,.37-1.1-.23-1.1l-6.91,0H563.14c-5.6,0-11.2-.05-16.8,0H535.4a.87.87,0,0,1-.53-.08c-.41-.35-.35-1.49-.37-1.94-.11-2.31,0-4.64,0-6.95,0-1.21,0-2.42,0-3.62v-1.54c0-.41-.13-1.16.26-1.42s2.25,0,2.87,0h4.69l15.39,0,16.84,0c3.54,0,7.08,0,10.62,0h.76c.47,0,1.38-.3,1.78.05s.37,1.43.39,1.9c.07,1.11,0,2.22,0,3.33,0,2.4,0,4.81,0,7.21,0,.56,0,1.12,0,1.68,0,.38.12,1.06-.14,1.38-.43.53-1.76.19-2.36.19S585.41,288.89,585.83,288.9Z"/><path d="M610.6,238.24c.92,0,1.92.3,2.15-.88a13.46,13.46,0,0,0,.06-2.29c0-.91,0-1.82,0-2.73,0-1.83,0-3.67,0-5.51a28.29,28.29,0,0,0-.11-4.51,1.85,1.85,0,0,0-1-1.65,1.53,1.53,0,0,0-.64,0,4,4,0,0,1-.64,0c-.63,0-1.27,0-1.9,0-7.87-.08-15.74,0-23.61-.06-2.59,0-5.18,0-7.77,0a8.54,8.54,0,0,0-1-.05c-1.38.13-1.11,1.88-1.11,2.86,0,3.61,0,7.23,0,10.84,0,1.33-.22,4.15,1.72,4.21.6,0,1.21,0,1.81,0,3.45,0,6.89,0,10.34,0,7.1,0,14.2-.06,21.3,0h.43c.7,0,.36-1.1-.24-1.1-5.62,0-11.25.05-16.87,0s-11.36.11-17,0c-.22,0-.11,0-.13,0a2.88,2.88,0,0,1-.22-1.3c-.11-1.62,0-3.25,0-4.87v-5.33c0-.79,0-1.58,0-2.38,0-.47-.22-1.59.35-1.74a9.69,9.69,0,0,1,1.86,0h3.6l23.23,0c1.84,0,3.69,0,5.53,0,.17,0,.46,0,.7-.06s.22,0,.26,0c.19.21.19.79.22,1.06.08.79.08,1.59.09,2.38l.06,10.11c0,.46.23,1.82-.16,2.15s-1,0-1.41,0S610.18,238.22,610.6,238.24Z"/><path d="M651.81,238.24c.91,0,1.91.3,2.14-.88a11.67,11.67,0,0,0,.06-2.29c0-.91,0-1.82,0-2.73l0-5.51a29.51,29.51,0,0,0-.1-4.51,1.87,1.87,0,0,0-1-1.65,1.58,1.58,0,0,0-.65,0,3.78,3.78,0,0,1-.63,0c-.64,0-1.27,0-1.91,0-7.87-.08-15.74,0-23.61-.06-2.59,0-5.18,0-7.77,0a8.37,8.37,0,0,0-1-.05c-1.39.13-1.12,1.88-1.12,2.86,0,3.61,0,7.23,0,10.84,0,1.33-.22,4.15,1.72,4.21.6,0,1.21,0,1.81,0,3.45,0,6.9,0,10.34,0,7.1,0,14.2-.06,21.3,0h.43c.7,0,.36-1.1-.23-1.1-5.63,0-11.25.05-16.88,0s-11.35.11-17,0c-.22,0-.11,0-.12,0a2.89,2.89,0,0,1-.23-1.3c-.11-1.62,0-3.25,0-4.87v-7.71c0-.47-.22-1.59.34-1.74a9.79,9.79,0,0,1,1.87,0h3.59l23.23,0c1.85,0,3.69,0,5.54,0,.16,0,.46,0,.69-.06s.22,0,.26,0c.2.21.19.79.22,1.06a21,21,0,0,1,.09,2.38q0,5.06.07,10.11c0,.46.22,1.82-.16,2.15s-1,0-1.42,0S651.38,238.22,651.81,238.24Z"/><path d="M695,238.24c.91,0,1.91.3,2.14-.88a11.67,11.67,0,0,0,.06-2.29c0-.91,0-1.82,0-2.73l0-5.51a29.51,29.51,0,0,0-.1-4.51,1.87,1.87,0,0,0-1-1.65,1.58,1.58,0,0,0-.65,0,3.78,3.78,0,0,1-.63,0c-.64,0-1.27,0-1.91,0-7.87-.08-15.74,0-23.61-.06-2.59,0-5.18,0-7.77,0a8.37,8.37,0,0,0-1-.05c-1.39.13-1.12,1.88-1.12,2.86,0,3.61,0,7.23,0,10.84,0,1.33-.22,4.15,1.72,4.21.6,0,1.21,0,1.81,0,3.45,0,6.9,0,10.34,0,7.1,0,14.2-.06,21.3,0h.43c.7,0,.36-1.1-.23-1.1-5.63,0-11.25.05-16.88,0s-11.35.11-17,0c-.22,0-.11,0-.12,0a2.89,2.89,0,0,1-.23-1.3c-.11-1.62,0-3.25,0-4.87v-7.71c0-.47-.22-1.59.34-1.74a9.79,9.79,0,0,1,1.87,0h3.59l23.23,0c1.85,0,3.69,0,5.54,0,.16,0,.46,0,.69-.06s.22,0,.26,0c.2.21.19.79.22,1.06a21,21,0,0,1,.09,2.38q0,5.06.07,10.11c0,.46.22,1.82-.16,2.15s-1,0-1.42,0S694.61,238.22,695,238.24Z"/><path d="M578,280c.08.11.19.21.28.32s0,0,0,0l.1.11s.12.13.06.05a7.63,7.63,0,0,1,.48.68c.16.22.31.43.49.64s.57.6,1,.47a1.82,1.82,0,0,0,.61-.41,4.33,4.33,0,0,0,.53-.43,4.28,4.28,0,0,0,.48-.64.45.45,0,0,1,.2-.18.69.69,0,0,0,.33-.38c.11-.34-.24-.9-.63-.84a1.39,1.39,0,0,0-.68.35,4.65,4.65,0,0,0-.42.57.59.59,0,0,1-.17.18l-.22.17c-.08.06-.17.11-.25.18s-.25.16-.26.2l.12,0a.3.3,0,0,1,.18.06c.19.1.09.05,0,0l-.12-.12s-.14-.14-.08-.07l-.07-.08-.13-.15-.31-.33c-.17-.17-.34-.36-.53-.52s-.38-.2-.56-.33a.38.38,0,0,0-.5,0,.42.42,0,0,0,0,.54Z"/><path d="M662.16,288.9a6.34,6.34,0,0,0,2.34,0c.69-.27.76-1,.77-1.64,0-2.44,0-4.88,0-7.32a38.85,38.85,0,0,0-.11-6.65c-.17-1-.66-1.9-1.78-1.95-.51,0-1,.07-1.53.05s-.75,0-1.12,0l-4.88,0c-5.39-.05-10.79,0-16.19-.05l-17.41,0c-3.24,0-6.49,0-9.73,0a5.88,5.88,0,0,0-1.92.06c-.78.27-.89,1.05-.89,1.78,0,1.17,0,2.35,0,3.52,0,2.45,0,4.89,0,7.33,0,1.37-.26,3.57.8,4.67.65.67,1.71.51,2.56.51h4.62l15.91,0q8.77,0,17.55,0c3.5,0,7,0,10.51,0h.51c.7,0,.37-1.1-.23-1.1-2.31,0-4.61,0-6.91,0H639.46c-5.59,0-11.19-.05-16.79,0H611.72a.84.84,0,0,1-.52-.08c-.42-.35-.36-1.49-.38-1.94-.1-2.31,0-4.64,0-6.95,0-1.21,0-2.42,0-3.62v-1.54c0-.41-.14-1.16.26-1.42s2.25,0,2.87,0h4.68l15.4,0,16.83,0c3.55,0,7.09,0,10.63,0h.75c.48,0,1.39-.3,1.78.05s.37,1.43.4,1.9c.06,1.11,0,2.22,0,3.33,0,2.4,0,4.81,0,7.21,0,.56,0,1.12,0,1.68,0,.38.12,1.06-.14,1.38-.43.53-1.76.19-2.36.19S661.73,288.89,662.16,288.9Z"/><path d="M654.32,280c.08.11.19.21.28.32s0,0,0,0l.1.11s.12.13.06.05c.17.22.33.45.48.68s.31.43.48.64.58.6,1,.47a2,2,0,0,0,.61-.41,4.33,4.33,0,0,0,.53-.43,4.28,4.28,0,0,0,.48-.64.47.47,0,0,1,.19-.18.71.71,0,0,0,.34-.38c.11-.34-.24-.9-.63-.84a1.35,1.35,0,0,0-.68.35,3.8,3.8,0,0,0-.42.57,1,1,0,0,1-.17.18l-.22.17-.26.18s-.25.16-.25.2l.12,0a.32.32,0,0,1,.18.06c.19.1.09.05,0,0l-.13-.12s-.13-.14-.07-.07l-.07-.08-.14-.15-.31-.33a6.38,6.38,0,0,0-.52-.52c-.17-.14-.38-.2-.56-.33s-.36-.17-.5,0a.42.42,0,0,0,0,.54Z"/><path d="M598.27,281.17c1.21,0,2.42.09,3.63.08a.47.47,0,0,0,.42-.6.74.74,0,0,0-.67-.59c-1.2,0-2.4.05-3.6.09a.4.4,0,0,0-.35.52.63.63,0,0,0,.57.5Z"/><path class="cls-7" d="M604.9,224.49l0,0h.06Z"/><path d="M525.35,49.5V429.69c.33.24.67.47,1,.72V50.5h196v408H558.86l1.42,1H723.35V49.5Z"/><path d="M728.35,26.5h-208a12,12,0,0,0-12,12V411c.33.39.66.77,1,1.15V38.5a11,11,0,0,1,11-11h208a11,11,0,0,1,11,11v445a11,11,0,0,1-11,11h-133c.23.33.45.66.66,1h132.3a12,12,0,0,0,12-12V38.5A12,12,0,0,0,728.35,26.5Z"/><path d="M625.62,463.91a19.15,19.15,0,0,0-9.24,2,11.86,11.86,0,0,0-5.63,7.45,13,13,0,0,0,5.68,14c4.63,3.08,10.74,3.64,15.51.53,4.55-3,7.24-8.09,6.17-13.53A14.21,14.21,0,0,0,634,467c-2.12-2-5.41-3.81-8.42-3.68-1.06,0-.58,1.49.16,1.69,2.4.68,4.66,1.2,6.66,2.8a12.4,12.4,0,0,1,3.86,5.19A11.67,11.67,0,0,1,633,485.89a12.67,12.67,0,0,1-14.35,1.6c-4.22-2.26-7.27-6.82-6.82-11.69a11.11,11.11,0,0,1,4.64-8.16c2.74-1.88,6.14-2.38,9.39-2.4.84,0,.44-1.33-.28-1.33Z"/></g></svg>